Roman_opsz5_wght700.ufo
<glyph name="numbersign" format="2">
	<unicode hex="0023"/>
	<advance width="2482"/>
	<outline>
		<contour>
			<point x="604" y="-388" type="curve" smooth="yes"/>
			<point x="662" y="-388"/>
			<point x="680" y="-342"/>
			<point x="688" y="-322" type="curve" smooth="yes"/>
			<point x="874" y="146" type="line"/>
			<point x="1326" y="146" type="line"/>
			<point x="1272" y="4"/>
			<point x="1218" y="-138"/>
			<point x="1164" y="-280" type="curve" smooth="yes"/>
			<point x="1160" y="-292"/>
			<point x="1158" y="-302"/>
			<point x="1158" y="-312" type="curve" smooth="yes"/>
			<point x="1158" y="-360"/>
			<point x="1202" y="-388"/>
			<point x="1242" y="-388" type="curve" smooth="yes"/>
			<point x="1300" y="-388"/>
			<point x="1318" y="-342"/>
			<point x="1326" y="-322" type="curve" smooth="yes"/>
			<point x="1512" y="146" type="line"/>
			<point x="2172" y="146" type="line" smooth="yes"/>
			<point x="2198" y="146"/>
			<point x="2288" y="146"/>
			<point x="2288" y="232" type="curve" smooth="yes"/>
			<point x="2288" y="318"/>
			<point x="2204" y="318"/>
			<point x="2184" y="318" type="curve" smooth="yes"/>
			<point x="1582" y="318" type="line"/>
			<point x="1724" y="682" type="line"/>
			<point x="2184" y="682" type="line" smooth="yes"/>
			<point x="2206" y="682"/>
			<point x="2288" y="682"/>
			<point x="2288" y="768" type="curve" smooth="yes"/>
			<point x="2288" y="854"/>
			<point x="2198" y="854"/>
			<point x="2172" y="854" type="curve" smooth="yes"/>
			<point x="1794" y="854" type="line"/>
			<point x="1954" y="1256" type="line" smooth="yes"/>
			<point x="1962" y="1274"/>
			<point x="1966" y="1286"/>
			<point x="1966" y="1302" type="curve" smooth="yes"/>
			<point x="1966" y="1350"/>
			<point x="1928" y="1388"/>
			<point x="1880" y="1388" type="curve" smooth="yes"/>
			<point x="1822" y="1388"/>
			<point x="1804" y="1342"/>
			<point x="1796" y="1322" type="curve" smooth="yes"/>
			<point x="1610" y="854" type="line"/>
			<point x="1156" y="854" type="line"/>
			<point x="1316" y="1256" type="line" smooth="yes"/>
			<point x="1324" y="1274"/>
			<point x="1328" y="1286"/>
			<point x="1328" y="1302" type="curve" smooth="yes"/>
			<point x="1328" y="1350"/>
			<point x="1290" y="1388"/>
			<point x="1242" y="1388" type="curve" smooth="yes"/>
			<point x="1184" y="1388"/>
			<point x="1166" y="1342"/>
			<point x="1158" y="1322" type="curve" smooth="yes"/>
			<point x="972" y="854" type="line"/>
			<point x="312" y="854" type="line" smooth="yes"/>
			<point x="286" y="854"/>
			<point x="196" y="854"/>
			<point x="196" y="768" type="curve" smooth="yes"/>
			<point x="196" y="682"/>
			<point x="280" y="682"/>
			<point x="300" y="682" type="curve" smooth="yes"/>
			<point x="902" y="682" type="line"/>
			<point x="760" y="318" type="line"/>
			<point x="300" y="318" type="line" smooth="yes"/>
			<point x="278" y="318"/>
			<point x="196" y="318"/>
			<point x="196" y="232" type="curve" smooth="yes"/>
			<point x="196" y="146"/>
			<point x="286" y="146"/>
			<point x="312" y="146" type="curve" smooth="yes"/>
			<point x="688" y="146" type="line"/>
			<point x="634" y="5"/>
			<point x="580" y="-135"/>
			<point x="526" y="-276" type="curve" smooth="yes"/>
			<point x="522" y="-288"/>
			<point x="520" y="-300"/>
			<point x="520" y="-310" type="curve" smooth="yes"/>
			<point x="520" y="-360"/>
			<point x="564" y="-388"/>
		</contour>
		<contour>
			<point x="944" y="318" type="line"/>
			<point x="1086" y="682" type="line"/>
			<point x="1540" y="682" type="line"/>
			<point x="1398" y="318" type="line"/>
		</contour>
	</outline>
</glyph>
<glyph name="dollar" format="2">
	<unicode hex="0024"/>
	<advance width="1516"/>
	<outline>
		<contour>
			<point x="692" y="-112" type="line"/>
			<point x="826" y="-112" type="line"/>
			<point x="826" y="-14" type="line"/>
			<point x="1200" y="14"/>
			<point x="1320" y="248"/>
			<point x="1320" y="426" type="curve" smooth="yes"/>
			<point x="1320" y="483"/>
			<point x="1304" y="599"/>
			<point x="1203" y="701" type="curve" smooth="yes"/>
			<point x="1130" y="773"/>
			<point x="1013" y="838"/>
			<point x="826" y="868" type="curve"/>
			<point x="826" y="1268" type="line"/>
			<point x="966" y="1258"/>
			<point x="1054" y="1226"/>
			<point x="1108" y="1166" type="curve"/>
			<point x="1108" y="1166"/>
			<point x="1108" y="1166"/>
			<point x="1108" y="1166" type="curve"/>
			<point x="1052" y="1142"/>
			<point x="1020" y="1090"/>
			<point x="1020" y="1030" type="curve" smooth="yes"/>
			<point x="1020" y="938"/>
			<point x="1088" y="880"/>
			<point x="1170" y="880" type="curve" smooth="yes"/>
			<point x="1236" y="880"/>
			<point x="1320" y="920"/>
			<point x="1320" y="1036" type="curve" smooth="yes"/>
			<point x="1320" y="1348"/>
			<point x="984" y="1396"/>
			<point x="826" y="1402" type="curve"/>
			<point x="826" y="1500" type="line"/>
			<point x="692" y="1500" type="line"/>
			<point x="692" y="1402" type="line"/>
			<point x="288" y="1374"/>
			<point x="196" y="1132"/>
			<point x="196" y="990" type="curve" smooth="yes"/>
			<point x="196" y="844"/>
			<point x="286" y="750"/>
			<point x="338" y="710" type="curve" smooth="yes"/>
			<point x="452" y="622"/>
			<point x="558" y="596"/>
			<point x="692" y="574" type="curve"/>
			<point x="692" y="120" type="line"/>
			<point x="564" y="130"/>
			<point x="452" y="170"/>
			<point x="402" y="246" type="curve"/>
			<point x="402" y="246"/>
			<point x="402" y="246"/>
			<point x="402" y="246" type="curve"/>
			<point x="468" y="272"/>
			<point x="496" y="330"/>
			<point x="496" y="386" type="curve" smooth="yes"/>
			<point x="496" y="472"/>
			<point x="432" y="536"/>
			<point x="346" y="536" type="curve" smooth="yes"/>
			<point x="274" y="536"/>
			<point x="196" y="490"/>
			<point x="196" y="380" type="curve" smooth="yes"/>
			<point x="196" y="14"/>
			<point x="616" y="-10"/>
			<point x="692" y="-14" type="curve"/>
		</contour>
		<contour>
			<point x="692" y="892" type="line"/>
			<point x="626" y="902"/>
			<point x="392" y="936"/>
			<point x="392" y="1080" type="curve" smooth="yes"/>
			<point x="392" y="1164"/>
			<point x="484" y="1254"/>
			<point x="692" y="1268" type="curve"/>
		</contour>
		<contour>
			<point x="826" y="120" type="curve"/>
			<point x="826" y="264"/>
			<point x="826" y="408"/>
			<point x="826" y="552" type="curve"/>
			<point x="1014" y="524"/>
			<point x="1124" y="444"/>
			<point x="1124" y="336" type="curve" smooth="yes"/>
			<point x="1124" y="258"/>
			<point x="1062" y="142"/>
		</contour>
	</outline>
</glyph>
<glyph name="percent" format="2">
	<unicode hex="0025"/>
	<advance width="2482"/>
	<outline>
		<contour>
			<point x="2004" y="1334" type="line" smooth="yes"/>
			<point x="2030" y="1360"/>
			<point x="2048" y="1378"/>
			<point x="2048" y="1414" type="curve" smooth="yes"/>
			<point x="2048" y="1460"/>
			<point x="2010" y="1500"/>
			<point x="1962" y="1500" type="curve" smooth="yes"/>
			<point x="1930" y="1500"/>
			<point x="1914" y="1486"/>
			<point x="1894" y="1466" type="curve"/>
			<point x="1812" y="1392"/>
			<point x="1670" y="1284"/>
			<point x="1406" y="1284" type="curve" smooth="yes"/>
			<point x="1234" y="1284"/>
			<point x="1034" y="1334"/>
			<point x="832" y="1442" type="curve" smooth="yes"/>
			<point x="782" y="1468"/>
			<point x="724" y="1500"/>
			<point x="616" y="1500" type="curve" smooth="yes"/>
			<point x="360" y="1500"/>
			<point x="196" y="1332"/>
			<point x="196" y="1098" type="curve" smooth="yes"/>
			<point x="196" y="852"/>
			<point x="370" y="694"/>
			<point x="616" y="694" type="curve" smooth="yes"/>
			<point x="850" y="694"/>
			<point x="1000" y="856"/>
			<point x="1000" y="1098" type="curve" smooth="yes"/>
			<point x="1000" y="1182"/>
			<point x="978" y="1252"/>
			<point x="976" y="1256" type="curve"/>
			<point x="1110" y="1210"/>
			<point x="1236" y="1174"/>
			<point x="1410" y="1174" type="curve" smooth="yes"/>
			<point x="1450" y="1174"/>
			<point x="1526" y="1174"/>
			<point x="1622" y="1196" type="curve"/>
			<point x="1622" y="1196" type="line"/>
			<point x="470" y="44" type="line" smooth="yes"/>
			<point x="452" y="26"/>
			<point x="436" y="6"/>
			<point x="436" y="-26" type="curve" smooth="yes"/>
			<point x="436" y="-74"/>
			<point x="474" y="-112"/>
			<point x="522" y="-112" type="curve" smooth="yes"/>
			<point x="558" y="-112"/>
			<point x="576" y="-94"/>
			<point x="602" y="-68" type="curve" smooth="yes"/>
		</contour>
		<contour>
			<point x="620" y="806" type="curve" smooth="yes"/>
			<point x="446" y="806"/>
			<point x="446" y="984"/>
			<point x="446" y="1096" type="curve" smooth="yes"/>
			<point x="446" y="1212"/>
			<point x="446" y="1388"/>
			<point x="620" y="1388" type="curve" smooth="yes"/>
			<point x="728" y="1388"/>
			<point x="834" y="1304"/>
			<point x="834" y="1098" type="curve" smooth="yes"/>
			<point x="834" y="882"/>
			<point x="722" y="806"/>
		</contour>
		<contour>
			<point x="1908" y="0" type="curve" smooth="yes"/>
			<point x="1734" y="0"/>
			<point x="1734" y="178"/>
			<point x="1734" y="290" type="curve" smooth="yes"/>
			<point x="1734" y="406"/>
			<point x="1734" y="582"/>
			<point x="1908" y="582" type="curve" smooth="yes"/>
			<point x="2016" y="582"/>
			<point x="2122" y="498"/>
			<point x="2122" y="292" type="curve" smooth="yes"/>
			<point x="2122" y="76"/>
			<point x="2010" y="0"/>
		</contour>
		<contour>
			<point x="2288" y="290" type="curve" smooth="yes"/>
			<point x="2288" y="534"/>
			<point x="2136" y="694"/>
			<point x="1904" y="694" type="curve" smooth="yes"/>
			<point x="1648" y="694"/>
			<point x="1484" y="526"/>
			<point x="1484" y="292" type="curve" smooth="yes"/>
			<point x="1484" y="46"/>
			<point x="1658" y="-112"/>
			<point x="1904" y="-112" type="curve" smooth="yes"/>
			<point x="2144" y="-112"/>
			<point x="2288" y="58"/>
		</contour>
	</outline>
</glyph>
<glyph name="ampersand" format="2">
	<unicode hex="0026"/>
	<advance width="2322"/>
	<outline>
		<contour>
			<point x="1904" y="880" type="curve" smooth="yes"/>
			<point x="1802" y="880"/>
			<point x="1684" y="886"/>
			<point x="1616" y="888" type="curve"/>
			<point x="1616" y="754" type="line"/>
			<point x="1658" y="754"/>
			<point x="1700" y="754"/>
			<point x="1742" y="754" type="curve"/>
			<point x="1742" y="754"/>
			<point x="1742" y="754"/>
			<point x="1742" y="754" type="curve"/>
			<point x="1554" y="540"/>
			<point x="1448" y="420"/>
			<point x="1254" y="284" type="curve"/>
			<point x="1190" y="330"/>
			<point x="972" y="498"/>
			<point x="840" y="714" type="curve"/>
			<point x="1036" y="842"/>
			<point x="1246" y="978"/>
			<point x="1246" y="1126" type="curve" smooth="yes"/>
			<point x="1246" y="1282"/>
			<point x="1110" y="1422"/>
			<point x="920" y="1422" type="curve" smooth="yes"/>
			<point x="714" y="1422"/>
			<point x="476" y="1288"/>
			<point x="476" y="1032" type="curve" smooth="yes"/>
			<point x="476" y="902"/>
			<point x="510" y="782"/>
			<point x="560" y="674" type="curve"/>
			<point x="514" y="648"/>
			<point x="422" y="592"/>
			<point x="354" y="550" type="curve" smooth="yes"/>
			<point x="266" y="496"/>
			<point x="154" y="426"/>
			<point x="154" y="288" type="curve" smooth="yes"/>
			<point x="154" y="74"/>
			<point x="384" y="-34"/>
			<point x="678" y="-34" type="curve" smooth="yes"/>
			<point x="744" y="-34"/>
			<point x="918" y="-32"/>
			<point x="1154" y="74" type="curve"/>
			<point x="1358" y="-14"/>
			<point x="1572" y="-34"/>
			<point x="1710" y="-34" type="curve" smooth="yes"/>
			<point x="1918" y="-34"/>
			<point x="2120" y="36"/>
			<point x="2126" y="222" type="curve"/>
			<point x="1960" y="222" type="line"/>
			<point x="1954" y="110"/>
			<point x="1808" y="100"/>
			<point x="1726" y="100" type="curve" smooth="yes"/>
			<point x="1618" y="100"/>
			<point x="1506" y="128"/>
			<point x="1376" y="202" type="curve"/>
			<point x="1588" y="348"/>
			<point x="1732" y="514"/>
			<point x="1942" y="754" type="curve"/>
			<point x="1942" y="754"/>
			<point x="1942" y="754"/>
			<point x="1942" y="754" type="curve"/>
			<point x="2009" y="754"/>
			<point x="2077" y="754"/>
			<point x="2144" y="754" type="curve"/>
			<point x="2144" y="888" type="line"/>
			<point x="2056" y="880"/>
			<point x="1988" y="880"/>
		</contour>
		<contour>
			<point x="612" y="574" type="curve"/>
			<point x="712" y="410"/>
			<point x="876" y="234"/>
			<point x="1004" y="156" type="curve"/>
			<point x="874" y="100"/>
			<point x="724" y="100"/>
			<point x="718" y="100" type="curve" smooth="yes"/>
			<point x="550" y="100"/>
			<point x="454" y="224"/>
			<point x="454" y="344" type="curve" smooth="yes"/>
			<point x="454" y="486"/>
			<point x="566" y="548"/>
		</contour>
		<contour>
			<point x="788" y="816" type="curve"/>
			<point x="724" y="954"/>
			<point x="720" y="1078"/>
			<point x="720" y="1112" type="curve" smooth="yes"/>
			<point x="720" y="1260"/>
			<point x="848" y="1310"/>
			<point x="920" y="1310" type="curve" smooth="yes"/>
			<point x="1026" y="1310"/>
			<point x="1080" y="1208"/>
			<point x="1080" y="1126" type="curve" smooth="yes"/>
			<point x="1080" y="1016"/>
			<point x="928" y="904"/>
		</contour>
	</outline>
</glyph>
<glyph name="parenleft" format="2">
	<unicode hex="0028"/>
	<advance width="1194"/>
	<outline>
		<contour>
			<point x="298" y="500" type="curve" smooth="yes"/>
			<point x="298" y="244"/>
			<point x="392" y="-62"/>
			<point x="658" y="-312" type="curve" smooth="yes"/>
			<point x="698" y="-350"/>
			<point x="872" y="-500"/>
			<point x="942" y="-500" type="curve" smooth="yes"/>
			<point x="952" y="-500"/>
			<point x="998" y="-500"/>
			<point x="998" y="-456" type="curve" smooth="yes"/>
			<point x="998" y="-434"/>
			<point x="982" y="-422"/>
			<point x="974" y="-416" type="curve" smooth="yes"/>
			<point x="650" y="-180"/>
			<point x="540" y="174"/>
			<point x="540" y="500" type="curve" smooth="yes"/>
			<point x="540" y="816"/>
			<point x="644" y="1174"/>
			<point x="980" y="1420" type="curve" smooth="yes"/>
			<point x="990" y="1428"/>
			<point x="998" y="1442"/>
			<point x="998" y="1456" type="curve" smooth="yes"/>
			<point x="998" y="1500"/>
			<point x="952" y="1500"/>
			<point x="942" y="1500" type="curve" smooth="yes"/>
			<point x="878" y="1500"/>
			<point x="706" y="1358"/>
			<point x="670" y="1326" type="curve" smooth="yes"/>
			<point x="388" y="1058"/>
			<point x="298" y="758"/>
		</contour>
	</outline>
</glyph>
<glyph name="parenright" format="2">
	<unicode hex="0029"/>
	<advance width="1194"/>
	<outline>
		<contour>
			<point x="896" y="500" type="curve" smooth="yes"/>
			<point x="896" y="756"/>
			<point x="802" y="1062"/>
			<point x="536" y="1312" type="curve" smooth="yes"/>
			<point x="496" y="1350"/>
			<point x="322" y="1500"/>
			<point x="252" y="1500" type="curve" smooth="yes"/>
			<point x="212" y="1500"/>
			<point x="196" y="1480"/>
			<point x="196" y="1456" type="curve" smooth="yes"/>
			<point x="196" y="1434"/>
			<point x="214" y="1420"/>
			<point x="218" y="1416" type="curve" smooth="yes"/>
			<point x="550" y="1172"/>
			<point x="654" y="818"/>
			<point x="654" y="500" type="curve" smooth="yes"/>
			<point x="654" y="72"/>
			<point x="468" y="-238"/>
			<point x="216" y="-418" type="curve" smooth="yes"/>
			<point x="196" y="-432"/>
			<point x="196" y="-452"/>
			<point x="196" y="-456" type="curve" smooth="yes"/>
			<point x="196" y="-478"/>
			<point x="210" y="-500"/>
			<point x="252" y="-500" type="curve" smooth="yes"/>
			<point x="316" y="-500"/>
			<point x="488" y="-358"/>
			<point x="524" y="-326" type="curve" smooth="yes"/>
			<point x="806" y="-58"/>
			<point x="896" y="242"/>
		</contour>
	</outline>
</glyph>
<glyph name="asterisk" format="2">
	<unicode hex="002A"/>
	<advance width="1516"/>
	<outline>
		<contour>
			<point x="758" y="612" type="curve" smooth="yes"/>
			<point x="814" y="612"/>
			<point x="866" y="652"/>
			<point x="866" y="704" type="curve" smooth="yes"/>
			<point x="866" y="710"/>
			<point x="863" y="724"/>
			<point x="818" y="970" type="curve"/>
			<point x="1130" y="786" type="line" smooth="yes"/>
			<point x="1158" y="770"/>
			<point x="1164" y="766"/>
			<point x="1186" y="766" type="curve" smooth="yes"/>
			<point x="1238" y="766"/>
			<point x="1290" y="814"/>
			<point x="1290" y="880" type="curve" smooth="yes"/>
			<point x="1290" y="956"/>
			<point x="1230" y="972"/>
			<point x="1208" y="978" type="curve" smooth="yes"/>
			<point x="922" y="1056" type="line"/>
			<point x="1208" y="1134" type="line" smooth="yes"/>
			<point x="1230" y="1140"/>
			<point x="1290" y="1156"/>
			<point x="1290" y="1232" type="curve" smooth="yes"/>
			<point x="1290" y="1298"/>
			<point x="1238" y="1346"/>
			<point x="1186" y="1346" type="curve" smooth="yes"/>
			<point x="1162" y="1346"/>
			<point x="1126" y="1324"/>
			<point x="1096" y="1308" type="curve" smooth="yes"/>
			<point x="818" y="1142" type="line"/>
			<point x="864" y="1388"/>
			<point x="866" y="1402"/>
			<point x="866" y="1408" type="curve" smooth="yes"/>
			<point x="866" y="1460"/>
			<point x="814" y="1500"/>
			<point x="758" y="1500" type="curve" smooth="yes"/>
			<point x="702" y="1500"/>
			<point x="650" y="1460"/>
			<point x="650" y="1408" type="curve" smooth="yes"/>
			<point x="650" y="1402"/>
			<point x="653" y="1388"/>
			<point x="698" y="1142" type="curve"/>
			<point x="386" y="1326" type="line" smooth="yes"/>
			<point x="358" y="1342"/>
			<point x="352" y="1346"/>
			<point x="330" y="1346" type="curve" smooth="yes"/>
			<point x="278" y="1346"/>
			<point x="226" y="1298"/>
			<point x="226" y="1232" type="curve" smooth="yes"/>
			<point x="226" y="1156"/>
			<point x="286" y="1140"/>
			<point x="308" y="1134" type="curve" smooth="yes"/>
			<point x="594" y="1056" type="line"/>
			<point x="308" y="978" type="line" smooth="yes"/>
			<point x="286" y="972"/>
			<point x="226" y="956"/>
			<point x="226" y="880" type="curve" smooth="yes"/>
			<point x="226" y="814"/>
			<point x="278" y="766"/>
			<point x="330" y="766" type="curve" smooth="yes"/>
			<point x="354" y="766"/>
			<point x="390" y="788"/>
			<point x="420" y="804" type="curve" smooth="yes"/>
			<point x="698" y="970" type="line"/>
			<point x="652" y="724"/>
			<point x="650" y="710"/>
			<point x="650" y="704" type="curve" smooth="yes"/>
			<point x="650" y="652"/>
			<point x="702" y="612"/>
		</contour>
	</outline>
</glyph>
<glyph name="plus" format="2">
	<unicode hex="002B"/>
	<advance width="2322"/>
	<outline>
		<contour>
			<point x="1248" y="414" type="line"/>
			<point x="2018" y="414" type="line" smooth="yes"/>
			<point x="2038" y="414"/>
			<point x="2126" y="414"/>
			<point x="2126" y="500" type="curve" smooth="yes"/>
			<point x="2126" y="586"/>
			<point x="2038" y="586"/>
			<point x="2018" y="586" type="curve" smooth="yes"/>
			<point x="1248" y="586" type="line"/>
			<point x="1248" y="1358" type="line" smooth="yes"/>
			<point x="1248" y="1378"/>
			<point x="1248" y="1466"/>
			<point x="1162" y="1466" type="curve" smooth="yes"/>
			<point x="1076" y="1466"/>
			<point x="1076" y="1378"/>
			<point x="1076" y="1358" type="curve" smooth="yes"/>
			<point x="1076" y="586" type="line"/>
			<point x="304" y="586" type="line" smooth="yes"/>
			<point x="284" y="586"/>
			<point x="196" y="586"/>
			<point x="196" y="500" type="curve" smooth="yes"/>
			<point x="196" y="414"/>
			<point x="284" y="414"/>
			<point x="304" y="414" type="curve" smooth="yes"/>
			<point x="1076" y="414" type="line"/>
			<point x="1076" y="-358" type="line" smooth="yes"/>
			<point x="1076" y="-378"/>
			<point x="1076" y="-466"/>
			<point x="1162" y="-466" type="curve" smooth="yes"/>
			<point x="1248" y="-466"/>
			<point x="1248" y="-378"/>
			<point x="1248" y="-358" type="curve" smooth="yes"/>
		</contour>
	</outline>
</glyph>
<glyph name="comma" format="2">
	<unicode hex="002C"/>
	<advance width="436"/>
	<outline>
		<contour>
			<point x="132" y="86" type="curve" smooth="yes"/>
			<point x="132" y="40"/>
			<point x="165" y="0"/>
			<point x="218" y="0" type="curve" smooth="yes"/>
			<point x="241" y="0"/>
			<point x="258" y="8"/>
			<point x="262" y="11" type="curve"/>
			<point x="251" y="-65"/>
			<point x="208" y="-113"/>
			<point x="170" y="-139" type="curve" smooth="yes"/>
			<point x="157" y="-148"/>
			<point x="152" y="-152"/>
			<point x="152" y="-164" type="curve" smooth="yes"/>
			<point x="152" y="-176"/>
			<point x="168" y="-194"/>
			<point x="182" y="-194" type="curve" smooth="yes"/>
			<point x="203" y="-194"/>
			<point x="320" y="-107"/>
			<point x="320" y="38" type="curve" smooth="yes"/>
			<point x="320" y="112"/>
			<point x="280" y="172"/>
			<point x="217" y="172" type="curve" smooth="yes"/>
			<point x="168" y="172"/>
			<point x="132" y="135"/>
		</contour>
	</outline>
</glyph>
<glyph name="hyphen" format="2">
	<unicode hex="002D"/>
	<advance width="1032"/>
	<outline>
		<contour>
			<point x="838" y="324" type="line"/>
			<point x="838" y="564" type="line"/>
			<point x="66" y="564" type="line"/>
			<point x="66" y="324" type="line"/>
		</contour>
	</outline>
</glyph>
<glyph name="period" format="2">
	<unicode hex="002E"/>
	<advance width="872"/>
	<outline>
		<contour>
			<point x="608" y="172" type="curve" smooth="yes"/>
			<point x="608" y="266"/>
			<point x="530" y="344"/>
			<point x="436" y="344" type="curve" smooth="yes"/>
			<point x="342" y="344"/>
			<point x="264" y="266"/>
			<point x="264" y="172" type="curve" smooth="yes"/>
			<point x="264" y="78"/>
			<point x="342" y="0"/>
			<point x="436" y="0" type="curve" smooth="yes"/>
			<point x="530" y="0"/>
			<point x="608" y="78"/>
		</contour>
	</outline>
</glyph>
<glyph name="slash" format="2">
	<unicode hex="002F"/>
	<advance width="1516"/>
	<outline>
		<contour>
			<point x="1304" y="1362" type="line" smooth="yes"/>
			<point x="1314" y="1380"/>
			<point x="1320" y="1394"/>
			<point x="1320" y="1414" type="curve" smooth="yes"/>
			<point x="1320" y="1460"/>
			<point x="1282" y="1500"/>
			<point x="1234" y="1500" type="curve" smooth="yes"/>
			<point x="1194" y="1500"/>
			<point x="1168" y="1476"/>
			<point x="1152" y="1444" type="curve" smooth="yes"/>
			<point x="212" y="-362" type="line" smooth="yes"/>
			<point x="202" y="-380"/>
			<point x="196" y="-394"/>
			<point x="196" y="-414" type="curve" smooth="yes"/>
			<point x="196" y="-460"/>
			<point x="234" y="-500"/>
			<point x="282" y="-500" type="curve" smooth="yes"/>
			<point x="322" y="-500"/>
			<point x="348" y="-476"/>
			<point x="364" y="-444" type="curve" smooth="yes"/>
		</contour>
	</outline>
</glyph>
<glyph name="zero" format="2">
  <advance width="758"/>
  <unicode hex="0030"/>
  <outline>
    <contour>
      <point x="379" y="-17" type="curve" smooth="yes"/>
      <point x="487.76506" y="-17.0"/>
      <point x="559.208654371" y="11.435402384"/>
      <point x="605.4681396033106" y="57.36760191999162" type="curve" smooth="yes"/>
      <point x="668.9400992848" y="120.39049770859998"/>
      <point x="685.0" y="216.35317999999995"/>
      <point x="685" y="317" type="curve" smooth="yes"/>
      <point x="685.0" y="416.372"/>
      <point x="670.65523775" y="518.542978"/>
      <point x="604.0939664848751" y="585.434237799" type="curve" smooth="yes"/>
      <point x="558.1256159999999" y="631.6304839999999"/>
      <point x="487.25249999999994" y="660.9999999999999"/>
      <point x="379" y="661" type="curve"/>
      <point x="271.11888" y="661.0"/>
      <point x="200.1988528768" y="631.8380368128"/>
      <point x="154.09256390143895" y="585.5218404003615" type="curve" smooth="yes"/>
      <point x="88.22515709439998" y="519.35456"/>
      <point x="72.99999999999997" y="418.17728"/>
      <point x="73" y="317" type="curve"/>
      <point x="73.0" y="214.62151999999998"/>
      <point x="90.2020693312" y="119.52083856319997"/>
      <point x="153.1464258682144" y="57.193883657588835" type="curve" smooth="yes"/>
      <point x="199.6400631712" y="11.156287993599989"/>
      <point x="271.09064" y="-17.00000000000001"/>
    </contour>
    <contour>
      <point x="379" y="39" type="curve" smooth="yes"/>
      <point x="340" y="39"/>
      <point x="259" y="49"/>
      <point x="237" y="130" type="curve" smooth="yes"/>
      <point x="224" y="179"/>
      <point x="223" y="260"/>
      <point x="223" y="332" type="curve" smooth="yes"/>
      <point x="223" y="405"/>
      <point x="223" y="484"/>
      <point x="240" y="532" type="curve" smooth="yes"/>
      <point x="257" y="577"/>
      <point x="309" y="605"/>
      <point x="379" y="605" type="curve" smooth="yes"/>
      <point x="438" y="605"/>
      <point x="499" y="585"/>
      <point x="519" y="527" type="curve" smooth="yes"/>
      <point x="535" y="481"/>
      <point x="535" y="398"/>
      <point x="535" y="332" type="curve" smooth="yes"/>
      <point x="535" y="271"/>
      <point x="535" y="177"/>
      <point x="520" y="128" type="curve" smooth="yes"/>
      <point x="496" y="48"/>
      <point x="416" y="39"/>
    </contour>
  </outline>
</glyph>
<glyph name="one" format="2">
	<unicode hex="0031"/>
	<advance width="758"/>
	<outline>
		<contour>
			<point x="325" y="555" type="curve"/>
			<point x="325" y="67" type="line"/>
			<point x="325" y="67"/>
			<point x="325" y="67"/>
			<point x="325" y="67" type="curve"/>
			<point x="144" y="67" type="line"/>
			<point x="144" y="0" type="line"/>
			<point x="193" y="4"/>
			<point x="335" y="4"/>
			<point x="392" y="4" type="curve" smooth="yes"/>
			<point x="449" y="4"/>
			<point x="591" y="4"/>
			<point x="640" y="0" type="curve"/>
			<point x="640" y="67" type="line"/>
			<point x="459" y="67" type="line"/>
			<point x="459" y="67"/>
			<point x="459" y="67"/>
			<point x="459" y="67" type="curve"/>
			<point x="459" y="623" type="line" smooth="yes"/>
			<point x="459" y="654"/>
			<point x="453" y="661"/>
			<point x="421" y="661" type="curve" smooth="yes"/>
			<point x="414.007" y="661"/>
			<point x="407.014" y="661"/>
			<point x="400" y="661" type="curve"/>
			<point x="315" y="597"/>
			<point x="186" y="597"/>
			<point x="163" y="597" type="curve" smooth="yes"/>
			<point x="154.009" y="597"/>
			<point x="145.018" y="597"/>
			<point x="136" y="597" type="curve"/>
			<point x="136" y="574.689"/>
			<point x="136" y="552.378"/>
			<point x="136" y="530" type="curve"/>
			<point x="163" y="530" type="line" smooth="yes"/>
			<point x="175" y="530"/>
			<point x="252" y="530"/>
		</contour>
	</outline>
</glyph>
<glyph name="two" format="2">
	<unicode hex="0032"/>
	<advance width="1516"/>
	<outline>
		<contour>
			<point x="1020" y="910" type="curve" smooth="yes"/>
			<point x="1020" y="754"/>
			<point x="898" y="636"/>
			<point x="770" y="544" type="curve" smooth="yes"/>
			<point x="212" y="138" type="line" smooth="yes"/>
			<point x="178" y="114"/>
			<point x="178" y="106"/>
			<point x="178" y="62" type="curve" smooth="yes"/>
			<point x="178" y="0" type="line"/>
			<point x="1260" y="0" type="line"/>
			<point x="1338" y="422" type="line"/>
			<point x="1172" y="422" type="line"/>
			<point x="1158" y="344"/>
			<point x="1130" y="294"/>
			<point x="1112" y="290" type="curve"/>
			<point x="1064" y="284"/>
			<point x="978" y="284"/>
			<point x="910" y="284" type="curve" smooth="yes"/>
			<point x="612" y="284" type="line"/>
			<point x="740" y="366"/>
			<point x="862" y="442"/>
			<point x="948" y="488" type="curve" smooth="yes"/>
			<point x="1172" y="612"/>
			<point x="1338" y="704"/>
			<point x="1338" y="912" type="curve" smooth="yes"/>
			<point x="1338" y="1160"/>
			<point x="1110" y="1322"/>
			<point x="714" y="1322" type="curve" smooth="yes"/>
			<point x="620" y="1322"/>
			<point x="178" y="1320"/>
			<point x="178" y="1026" type="curve" smooth="yes"/>
			<point x="178" y="906"/>
			<point x="276" y="858"/>
			<point x="342" y="858" type="curve" smooth="yes"/>
			<point x="422" y="858"/>
			<point x="508" y="914"/>
			<point x="508" y="1024" type="curve" smooth="yes"/>
			<point x="508" y="1096"/>
			<point x="466" y="1138"/>
			<point x="456" y="1148" type="curve"/>
			<point x="528" y="1184"/>
			<point x="602" y="1188"/>
			<point x="648" y="1188" type="curve" smooth="yes"/>
			<point x="844" y="1188"/>
			<point x="1020" y="1094"/>
		</contour>
	</outline>
</glyph>
<glyph name="three" format="2">
	<unicode hex="0033"/>
	<advance width="1516"/>
	<outline>
		<contour>
			<point x="734" y="-34" type="curve" smooth="yes"/>
			<point x="1228" y="-34"/>
			<point x="1362" y="206"/>
			<point x="1362" y="362" type="curve" smooth="yes"/>
			<point x="1362" y="540"/>
			<point x="1198" y="656"/>
			<point x="1004" y="702" type="curve"/>
			<point x="1122" y="742"/>
			<point x="1280" y="842"/>
			<point x="1280" y="1026" type="curve" smooth="yes"/>
			<point x="1280" y="1190"/>
			<point x="1100" y="1322"/>
			<point x="742" y="1322" type="curve" smooth="yes"/>
			<point x="422" y="1322"/>
			<point x="236" y="1186"/>
			<point x="236" y="1000" type="curve" smooth="yes"/>
			<point x="236" y="888"/>
			<point x="324" y="836"/>
			<point x="398" y="836" type="curve" smooth="yes"/>
			<point x="480" y="836"/>
			<point x="560" y="896"/>
			<point x="560" y="998" type="curve" smooth="yes"/>
			<point x="560" y="1096"/>
			<point x="484" y="1138"/>
			<point x="480" y="1140" type="curve"/>
			<point x="562" y="1198"/>
			<point x="666" y="1210"/>
			<point x="732" y="1210" type="curve" smooth="yes"/>
			<point x="928" y="1210"/>
			<point x="970" y="1126"/>
			<point x="970" y="1030" type="curve" smooth="yes"/>
			<point x="970" y="946"/>
			<point x="920" y="768"/>
			<point x="680" y="758" type="curve"/>
			<point x="658" y="758"/>
			<point x="568" y="754"/>
			<point x="554" y="752" type="curve"/>
			<point x="518" y="744"/>
			<point x="518" y="710"/>
			<point x="518" y="696" type="curve" smooth="yes"/>
			<point x="518" y="640"/>
			<point x="550" y="640"/>
			<point x="588" y="640" type="curve" smooth="yes"/>
			<point x="726" y="640" type="line" smooth="yes"/>
			<point x="994" y="640"/>
			<point x="1018" y="474"/>
			<point x="1018" y="364" type="curve" smooth="yes"/>
			<point x="1018" y="264"/>
			<point x="1000" y="88"/>
			<point x="728" y="88" type="curve" smooth="yes"/>
			<point x="686" y="88"/>
			<point x="530" y="92"/>
			<point x="428" y="158" type="curve"/>
			<point x="470" y="188"/>
			<point x="500" y="238"/>
			<point x="500" y="302" type="curve" smooth="yes"/>
			<point x="500" y="400"/>
			<point x="428" y="474"/>
			<point x="328" y="474" type="curve" smooth="yes"/>
			<point x="228" y="474"/>
			<point x="154" y="406"/>
			<point x="154" y="298" type="curve" smooth="yes"/>
			<point x="154" y="100"/>
			<point x="352" y="-34"/>
		</contour>
	</outline>
</glyph>
<glyph name="four" format="2">
	<unicode hex="0034"/>
	<advance width="758"/>
	<outline>
		<contour>
			<point x="428" y="155" type="line"/>
			<point x="428" y="67" type="line"/>
			<point x="428" y="67"/>
			<point x="428" y="67"/>
			<point x="428" y="67" type="curve"/>
			<point x="287" y="67" type="line"/>
			<point x="287" y="0" type="line"/>
			<point x="336" y="4"/>
			<point x="443" y="4"/>
			<point x="497" y="4" type="curve" smooth="yes"/>
			<point x="553" y="4"/>
			<point x="648" y="4"/>
			<point x="701" y="0" type="curve"/>
			<point x="701" y="67" type="line"/>
			<point x="570" y="67" type="line"/>
			<point x="570" y="67"/>
			<point x="570" y="67"/>
			<point x="570" y="67" type="curve"/>
			<point x="570" y="155" type="line"/>
			<point x="701" y="155" type="line"/>
			<point x="701" y="222" type="line"/>
			<point x="570" y="222" type="line"/>
			<point x="570" y="626" type="line" smooth="yes"/>
			<point x="570" y="662"/>
			<point x="574" y="669"/>
			<point x="512" y="669" type="curve" smooth="yes"/>
			<point x="437" y="669"/>
			<point x="434" y="669"/>
			<point x="419" y="652" type="curve" smooth="yes"/>
			<point x="57" y="222" type="line"/>
			<point x="57" y="155" type="line"/>
		</contour>
		<contour>
			<point x="144" y="222" type="line"/>
			<point x="445" y="580" type="line"/>
			<point x="445" y="222" type="line"/>
		</contour>
	</outline>
</glyph>
<glyph name="five" format="2">
	<unicode hex="0035"/>
	<advance width="1516"/>
	<outline>
		<contour>
			<point x="696" y="-34" type="curve" smooth="yes"/>
			<point x="1140" y="-34"/>
			<point x="1338" y="182"/>
			<point x="1338" y="402" type="curve" smooth="yes"/>
			<point x="1338" y="604"/>
			<point x="1180" y="830"/>
			<point x="778" y="830" type="curve" smooth="yes"/>
			<point x="658" y="830"/>
			<point x="558" y="810"/>
			<point x="466" y="762" type="curve"/>
			<point x="466" y="982" type="line"/>
			<point x="542" y="974"/>
			<point x="622" y="974"/>
			<point x="626" y="974" type="curve" smooth="yes"/>
			<point x="930" y="974"/>
			<point x="1110" y="1120"/>
			<point x="1194" y="1206" type="curve" smooth="yes"/>
			<point x="1220" y="1232"/>
			<point x="1224" y="1236"/>
			<point x="1224" y="1266" type="curve" smooth="yes"/>
			<point x="1224" y="1276"/>
			<point x="1224" y="1322"/>
			<point x="1180" y="1322" type="curve" smooth="yes"/>
			<point x="1176" y="1322"/>
			<point x="1172" y="1322"/>
			<point x="1158" y="1316" type="curve"/>
			<point x="1080" y="1296"/>
			<point x="938" y="1258"/>
			<point x="752" y="1258" type="curve" smooth="yes"/>
			<point x="616" y="1258"/>
			<point x="484" y="1278"/>
			<point x="352" y="1314" type="curve"/>
			<point x="332" y="1322"/>
			<point x="328" y="1322"/>
			<point x="322" y="1322" type="curve" smooth="yes"/>
			<point x="278" y="1322"/>
			<point x="278" y="1278"/>
			<point x="278" y="1250" type="curve" smooth="yes"/>
			<point x="278" y="648" type="line" smooth="yes"/>
			<point x="278" y="584"/>
			<point x="288" y="570"/>
			<point x="354" y="570" type="curve" smooth="yes"/>
			<point x="396" y="570"/>
			<point x="398" y="572"/>
			<point x="434" y="606" type="curve" smooth="yes"/>
			<point x="464" y="636"/>
			<point x="548" y="718"/>
			<point x="768" y="718" type="curve" smooth="yes"/>
			<point x="862" y="718"/>
			<point x="922" y="693"/>
			<point x="960" y="656" type="curve" smooth="yes"/>
			<point x="1026" y="591"/>
			<point x="1026" y="489"/>
			<point x="1026" y="414" type="curve" smooth="yes"/>
			<point x="1026" y="343"/>
			<point x="1026" y="242"/>
			<point x="956" y="171" type="curve" smooth="yes"/>
			<point x="909" y="122"/>
			<point x="828" y="88"/>
			<point x="692" y="88" type="curve" smooth="yes"/>
			<point x="658" y="88"/>
			<point x="510" y="90"/>
			<point x="414" y="172" type="curve"/>
			<point x="488" y="214"/>
			<point x="494" y="282"/>
			<point x="494" y="310" type="curve" smooth="yes"/>
			<point x="494" y="408"/>
			<point x="416" y="468"/>
			<point x="336" y="468" type="curve" smooth="yes"/>
			<point x="264" y="468"/>
			<point x="178" y="418"/>
			<point x="178" y="306" type="curve" smooth="yes"/>
			<point x="178" y="110"/>
			<point x="378" y="-34"/>
		</contour>
	</outline>
</glyph>
<glyph name="six" format="2">
	<unicode hex="0036"/>
	<advance width="758"/>
	<outline>
		<contour>
			<point x="77" y="319" type="curve" smooth="yes"/>
			<point x="77" y="205.59594"/>
			<point x="105.0197354052" y="117.0341196376"/>
			<point x="163.5432453069" y="59.3693841978" type="curve" smooth="yes"/>
			<point x="213.9087874308" y="9.74290645"/>
			<point x="286.8666" y="-17"/>
			<point x="384" y="-17" type="curve" smooth="yes"/>
			<point x="444" y="-17"/>
			<point x="513" y="-13"/>
			<point x="583" y="33" type="curve" smooth="yes"/>
			<point x="636" y="68"/>
			<point x="681" y="115"/>
			<point x="681" y="206" type="curve" smooth="yes"/>
			<point x="681" y="281.17426"/>
			<point x="645.5384250276" y="341.6527321736"/>
			<point x="584.9079301291" y="380.0319278033" type="curve" smooth="yes"/>
			<point x="538.2695829864" y="409.5540725892"/>
			<point x="476.7387" y="426"/>
			<point x="405" y="426" type="curve" smooth="yes"/>
			<point x="338" y="426"/>
			<point x="275" y="398"/>
			<point x="234" y="345" type="curve"/>
			<point x="238" y="435"/>
			<point x="241" y="488"/>
			<point x="291" y="543" type="curve" smooth="yes"/>
			<point x="320" y="574"/>
			<point x="379" y="605"/>
			<point x="457" y="605" type="curve" smooth="yes"/>
			<point x="468" y="605"/>
			<point x="503" y="605"/>
			<point x="529" y="587" type="curve"/>
			<point x="521" y="582"/>
			<point x="494" y="562"/>
			<point x="494" y="522" type="curve" smooth="yes"/>
			<point x="494" y="476"/>
			<point x="529" y="447"/>
			<point x="569" y="447" type="curve" smooth="yes"/>
			<point x="603" y="447"/>
			<point x="644" y="470"/>
			<point x="644" y="524" type="curve" smooth="yes"/>
			<point x="644" y="575"/>
			<point x="616" y="661"/>
			<point x="457" y="661" type="curve" smooth="yes"/>
			<point x="236" y="661"/>
			<point x="77" y="533"/>
		</contour>
		<contour>
			<point x="384" y="44" type="curve" smooth="yes"/>
			<point x="334.23805" y="44"/>
			<point x="301.1346984775" y="57.43886936"/>
			<point x="279.1904031204" y="78.5028062072" type="curve" smooth="yes"/>
			<point x="242.483635115" y="113.7369766625"/>
			<point x="237" y="170.30615"/>
			<point x="237" y="221" type="curve" smooth="yes"/>
			<point x="237" y="295"/>
			<point x="293" y="370"/>
			<point x="392" y="370" type="curve" smooth="yes"/>
			<point x="443" y="370"/>
			<point x="474.2948654528" y="358.058076032"/>
			<point x="493.4989412365" y="338.6150892749" type="curve" smooth="yes"/>
			<point x="524" y="307.7345778512"/>
			<point x="524" y="258"/>
			<point x="524" y="207" type="curve" smooth="yes"/>
			<point x="524" y="157"/>
			<point x="524" y="107.3206169388"/>
			<point x="492.6675341816" y="76.3725670165" type="curve" smooth="yes"/>
			<point x="472.393342856" y="56.347118368"/>
			<point x="439.0004" y="44"/>
		</contour>
	</outline>
</glyph>
<glyph name="seven" format="2">
  <advance width="758"/>
  <unicode hex="0037"/>
  <outline>
    <contour>
      <point x="339" y="-17" type="curve" smooth="yes"/>
      <point x="369" y="-17"/>
      <point x="386" y="-3"/>
      <point x="392" y="3" type="curve" smooth="yes"/>
      <point x="414" y="25"/>
      <point x="414" y="50"/>
      <point x="414" y="68" type="curve" smooth="yes"/>
      <point x="416" y="311"/>
      <point x="482" y="372"/>
      <point x="548" y="434" type="curve" smooth="yes"/>
      <point x="602.612" y="483.284"/>
      <point x="657.224" y="532.568"/>
      <point x="712" y="582" type="curve" smooth="yes"/>
      <point x="718" y="588"/>
      <point x="721" y="592"/>
      <point x="721" y="608" type="curve" smooth="yes"/>
      <point x="721" y="644" type="line"/>
      <point x="472" y="644" type="line"/>
      <point x="399.406" y="644.666"/>
      <point x="326.812" y="645.332"/>
      <point x="254" y="646" type="curve" smooth="yes"/>
      <point x="228" y="646"/>
      <point x="225" y="658"/>
      <point x="224" y="667" type="curve"/>
      <point x="141" y="667" type="line"/>
      <point x="98" y="433" type="line"/>
      <point x="181" y="433" type="line"/>
      <point x="187" y="461"/>
      <point x="197" y="496"/>
      <point x="220" y="499" type="curve" smooth="yes"/>
      <point x="246" y="502"/>
      <point x="289" y="502"/>
      <point x="323" y="502" type="curve" smooth="yes"/>
      <point x="505" y="502" type="line"/>
      <point x="434" y="437"/>
      <point x="407" y="413"/>
      <point x="375" y="371" type="curve" smooth="yes"/>
      <point x="275" y="239"/>
      <point x="264" y="119"/>
      <point x="264" y="65" type="curve" smooth="yes"/>
      <point x="264" y="-13"/>
      <point x="328" y="-17"/>
    </contour>
  </outline>
</glyph>
<glyph name="eight" format="2">
	<unicode hex="0038"/>
	<advance width="1516"/>
	<outline>
		<contour>
			<point x="752" y="-34" type="curve" smooth="yes"/>
			<point x="850" y="-34"/>
			<point x="1362" y="-34"/>
			<point x="1362" y="372" type="curve" smooth="yes"/>
			<point x="1362" y="526"/>
			<point x="1256" y="654"/>
			<point x="1054" y="734" type="curve"/>
			<point x="1236" y="814"/>
			<point x="1280" y="922"/>
			<point x="1280" y="1014" type="curve" smooth="yes"/>
			<point x="1280" y="1306"/>
			<point x="930" y="1322"/>
			<point x="766" y="1322" type="curve" smooth="yes"/>
			<point x="546" y="1322"/>
			<point x="236" y="1262"/>
			<point x="236" y="960" type="curve" smooth="yes"/>
			<point x="236" y="868"/>
			<point x="279" y="797"/>
			<point x="329" y="747" type="curve" smooth="yes"/>
			<point x="368" y="709"/>
			<point x="411" y="682"/>
			<point x="442" y="666" type="curve"/>
			<point x="290" y="610"/>
			<point x="154" y="514"/>
			<point x="154" y="324" type="curve" smooth="yes"/>
			<point x="154" y="-12"/>
			<point x="548" y="-34"/>
		</contour>
		<contour>
			<point x="766" y="88" type="curve" smooth="yes"/>
			<point x="610" y="88"/>
			<point x="386" y="120"/>
			<point x="386" y="326" type="curve" smooth="yes"/>
			<point x="386" y="450"/>
			<point x="466" y="536"/>
			<point x="606" y="592" type="curve"/>
			<point x="739" y="533"/>
			<point x="872" y="475"/>
			<point x="1006" y="416" type="curve" smooth="yes"/>
			<point x="1014" y="412"/>
			<point x="1130" y="362"/>
			<point x="1130" y="272" type="curve" smooth="yes"/>
			<point x="1130" y="158"/>
			<point x="1038" y="88"/>
		</contour>
		<contour>
			<point x="904" y="802" type="curve"/>
			<point x="810" y="844"/>
			<point x="716" y="886"/>
			<point x="622" y="928" type="curve" smooth="yes"/>
			<point x="484" y="988"/>
			<point x="436" y="1010"/>
			<point x="436" y="1070" type="curve" smooth="yes"/>
			<point x="436" y="1160"/>
			<point x="508" y="1210"/>
			<point x="746" y="1210" type="curve" smooth="yes"/>
			<point x="870" y="1210"/>
			<point x="1080" y="1192"/>
			<point x="1080" y="1012" type="curve" smooth="yes"/>
			<point x="1080" y="916"/>
			<point x="1018" y="846"/>
		</contour>
	</outline>
</glyph>
<glyph name="nine" format="2">
  <advance width="758"/>
  <unicode hex="0039"/>
  <outline>
    <contour>
      <point x="319" y="-17" type="curve" smooth="yes"/>
      <point x="526" y="-17"/>
      <point x="681" y="107"/>
      <point x="681" y="328" type="curve" smooth="yes"/>
      <point x="681" y="530"/>
      <point x="592" y="661"/>
      <point x="381" y="661" type="curve" smooth="yes"/>
      <point x="304" y="661"/>
      <point x="245" y="653"/>
      <point x="180" y="613" type="curve" smooth="yes"/>
      <point x="99" y="564"/>
      <point x="77" y="504"/>
      <point x="77" y="439" type="curve" smooth="yes"/>
      <point x="77.0" y="364.95618"/>
      <point x="111.82262767559999" y="304.33025323280003"/>
      <point x="172.2586653538189" y="265.6091457891864" type="curve" smooth="yes"/>
      <point x="218.74743160719996" y="235.8239947076"/>
      <point x="280.39173999999997" y="219.0"/>
      <point x="353" y="219" type="curve" smooth="yes"/>
      <point x="437" y="219"/>
      <point x="490" y="257"/>
      <point x="524" y="300" type="curve"/>
      <point x="523" y="242"/>
      <point x="522" y="168"/>
      <point x="482" y="115" type="curve" smooth="yes"/>
      <point x="432" y="50"/>
      <point x="353" y="44"/>
      <point x="318" y="44" type="curve" smooth="yes"/>
      <point x="308" y="44"/>
      <point x="265" y="44"/>
      <point x="234" y="60" type="curve"/>
      <point x="235" y="61"/>
      <point x="264" y="81"/>
      <point x="264" y="122" type="curve" smooth="yes"/>
      <point x="264" y="168"/>
      <point x="229" y="197"/>
      <point x="189" y="197" type="curve" smooth="yes"/>
      <point x="155" y="197"/>
      <point x="114" y="174"/>
      <point x="114" y="120" type="curve" smooth="yes"/>
      <point x="114" y="-17"/>
      <point x="285" y="-17"/>
    </contour>
    <contour>
      <point x="366" y="275" type="curve" smooth="yes"/>
      <point x="315.99972" y="275.0"/>
      <point x="284.93904606120003" y="286.6220309921"/>
      <point x="265.64384480367806" y="305.5724828474073" type="curve" smooth="yes"/>
      <point x="234.0" y="336.6509437282"/>
      <point x="234.0" y="387.43957"/>
      <point x="234" y="439" type="curve" smooth="yes"/>
      <point x="234" y="486"/>
      <point x="234.0" y="537.1142159359999"/>
      <point x="266.62350853197006" y="569.9206821200199" type="curve" smooth="yes"/>
      <point x="287.8839662592" y="591.3003717632"/>
      <point x="322.99968" y="605.0"/>
      <point x="381" y="605" type="curve" smooth="yes"/>
      <point x="427.80018" y="605.0"/>
      <point x="459.14881257120004" y="591.7558164896"/>
      <point x="480.06766994239433" y="571.1603454515688" type="curve" smooth="yes"/>
      <point x="515.4685965714001" y="536.3066846531"/>
      <point x="521" y="480"/>
      <point x="521" y="432" type="curve" smooth="yes"/>
      <point x="521" y="331"/>
      <point x="448" y="275"/>
    </contour>
  </outline>
</glyph>
<glyph name="colon" format="2">
	<unicode hex="003A"/>
	<advance width="872"/>
	<outline>
		<contour>
			<point x="608" y="716" type="curve" smooth="yes"/>
			<point x="608" y="810"/>
			<point x="530" y="888"/>
			<point x="436" y="888" type="curve" smooth="yes"/>
			<point x="342" y="888"/>
			<point x="264" y="810"/>
			<point x="264" y="716" type="curve" smooth="yes"/>
			<point x="264" y="622"/>
			<point x="342" y="544"/>
			<point x="436" y="544" type="curve" smooth="yes"/>
			<point x="530" y="544"/>
			<point x="608" y="622"/>
		</contour>
		<contour>
			<point x="608" y="172" type="curve" smooth="yes"/>
			<point x="608" y="266"/>
			<point x="530" y="344"/>
			<point x="436" y="344" type="curve" smooth="yes"/>
			<point x="342" y="344"/>
			<point x="264" y="266"/>
			<point x="264" y="172" type="curve" smooth="yes"/>
			<point x="264" y="78"/>
			<point x="342" y="0"/>
			<point x="436" y="0" type="curve" smooth="yes"/>
			<point x="530" y="0"/>
			<point x="608" y="78"/>
		</contour>
	</outline>
</glyph>
<glyph name="semicolon" format="2">
	<unicode hex="003B"/>
	<advance width="872"/>
	<outline>
		<contour>
			<point x="436" y="544" type="curve" smooth="yes"/>
			<point x="530" y="544"/>
			<point x="608" y="622"/>
			<point x="608" y="716" type="curve" smooth="yes"/>
			<point x="608" y="810"/>
			<point x="530" y="888"/>
			<point x="436" y="888" type="curve" smooth="yes"/>
			<point x="342" y="888"/>
			<point x="264" y="810"/>
			<point x="264" y="716" type="curve" smooth="yes"/>
			<point x="264" y="622"/>
			<point x="342" y="544"/>
		</contour>
		<contour>
			<point x="364" y="-388" type="curve" smooth="yes"/>
			<point x="404" y="-388"/>
			<point x="616" y="-206"/>
			<point x="616" y="78" type="curve" smooth="yes"/>
			<point x="616" y="224"/>
			<point x="554" y="344"/>
			<point x="434" y="344" type="curve" smooth="yes"/>
			<point x="336" y="344"/>
			<point x="264" y="270"/>
			<point x="264" y="172" type="curve" smooth="yes"/>
			<point x="264" y="80"/>
			<point x="330" y="0"/>
			<point x="436" y="0" type="curve" smooth="yes"/>
			<point x="472" y="0"/>
			<point x="476" y="2"/>
			<point x="498" y="10" type="curve"/>
			<point x="482" y="-110"/>
			<point x="414" y="-216"/>
			<point x="330" y="-284" type="curve" smooth="yes"/>
			<point x="314" y="-296"/>
			<point x="304" y="-306"/>
			<point x="304" y="-328" type="curve" smooth="yes"/>
			<point x="304" y="-352"/>
			<point x="336" y="-388"/>
		</contour>
	</outline>
</glyph>
<glyph name="equal" format="2">
	<unicode hex="003D"/>
	<advance width="2322"/>
	<outline>
		<contour>
			<point x="2022" y="682" type="line" smooth="yes"/>
			<point x="2044" y="682"/>
			<point x="2126" y="682"/>
			<point x="2126" y="768" type="curve" smooth="yes"/>
			<point x="2126" y="854"/>
			<point x="2036" y="854"/>
			<point x="2010" y="854" type="curve" smooth="yes"/>
			<point x="312" y="854" type="line" smooth="yes"/>
			<point x="286" y="854"/>
			<point x="196" y="854"/>
			<point x="196" y="768" type="curve" smooth="yes"/>
			<point x="196" y="682"/>
			<point x="280" y="682"/>
			<point x="300" y="682" type="curve" smooth="yes"/>
		</contour>
		<contour>
			<point x="2010" y="146" type="line" smooth="yes"/>
			<point x="2036" y="146"/>
			<point x="2126" y="146"/>
			<point x="2126" y="232" type="curve" smooth="yes"/>
			<point x="2126" y="318"/>
			<point x="2042" y="318"/>
			<point x="2022" y="318" type="curve" smooth="yes"/>
			<point x="300" y="318" type="line" smooth="yes"/>
			<point x="278" y="318"/>
			<point x="196" y="318"/>
			<point x="196" y="232" type="curve" smooth="yes"/>
			<point x="196" y="146"/>
			<point x="286" y="146"/>
			<point x="312" y="146" type="curve" smooth="yes"/>
		</contour>
	</outline>
</glyph>
<glyph name="question" format="2">
	<unicode hex="003F"/>
	<advance width="718"/>
	<outline>
		<contour>
			<point x="620" y="571" type="curve" smooth="yes"/>
			<point x="620" y="683"/>
			<point x="456" y="702"/>
			<point x="347" y="702" type="curve" smooth="yes"/>
			<point x="290" y="702"/>
			<point x="98" y="702"/>
			<point x="98" y="572" type="curve" smooth="yes"/>
			<point x="98" y="522"/>
			<point x="135" y="496"/>
			<point x="173" y="496" type="curve" smooth="yes"/>
			<point x="214" y="496"/>
			<point x="248" y="525"/>
			<point x="248" y="571" type="curve" smooth="yes"/>
			<point x="248" y="607"/>
			<point x="225" y="626"/>
			<point x="224" y="627" type="curve"/>
			<point x="269" y="646"/>
			<point x="322" y="646"/>
			<point x="345" y="646" type="curve" smooth="yes"/>
			<point x="457" y="646"/>
			<point x="470" y="620"/>
			<point x="470" y="573" type="curve" smooth="yes"/>
			<point x="470" y="536"/>
			<point x="451" y="523"/>
			<point x="434" y="511" type="curve" smooth="yes"/>
			<point x="364" y="464"/>
			<point x="298" y="396"/>
			<point x="298" y="304" type="curve" smooth="yes"/>
			<point x="298" y="293.344"/>
			<point x="298" y="282.688"/>
			<point x="298" y="272" type="curve" smooth="yes"/>
			<point x="298" y="244"/>
			<point x="301" y="239"/>
			<point x="338" y="239" type="curve"/>
			<point x="375" y="239"/>
			<point x="381" y="242"/>
			<point x="381" y="277" type="curve" smooth="yes"/>
			<point x="381" y="299" type="line" smooth="yes"/>
			<point x="381" y="366"/>
			<point x="424" y="417"/>
			<point x="541" y="468" type="curve" smooth="yes"/>
			<point x="596" y="493"/>
			<point x="620" y="532"/>
		</contour>
		<contour>
			<point x="425" y="86" type="curve" smooth="yes"/>
			<point x="425" y="133"/>
			<point x="386" y="172"/>
			<point x="339" y="172" type="curve" smooth="yes"/>
			<point x="292" y="172"/>
			<point x="253" y="133"/>
			<point x="253" y="86" type="curve" smooth="yes"/>
			<point x="253" y="39"/>
			<point x="292" y="0"/>
			<point x="339" y="0" type="curve" smooth="yes"/>
			<point x="386" y="0"/>
			<point x="425" y="39"/>
		</contour>
	</outline>
</glyph>
<glyph name="at" format="2">
	<unicode hex="0040"/>
	<advance width="2322"/>
	<outline>
		<contour>
			<point x="1170" y="-16" type="curve" smooth="yes"/>
			<point x="1390" y="-16"/>
			<point x="1688" y="10"/>
			<point x="2014" y="104" type="curve" smooth="yes"/>
			<point x="2046" y="112"/>
			<point x="2096" y="128"/>
			<point x="2106" y="134" type="curve" smooth="yes"/>
			<point x="2118" y="142"/>
			<point x="2126" y="156"/>
			<point x="2126" y="170" type="curve" smooth="yes"/>
			<point x="2126" y="214"/>
			<point x="2084" y="214"/>
			<point x="2056" y="214" type="curve" smooth="yes"/>
			<point x="1990" y="214" type="line" smooth="yes"/>
			<point x="1960" y="214"/>
			<point x="1956" y="214"/>
			<point x="1934" y="208" type="curve" smooth="yes"/>
			<point x="1834" y="178"/>
			<point x="1542" y="96"/>
			<point x="1170" y="96" type="curve" smooth="yes"/>
			<point x="544" y="96"/>
			<point x="362" y="438"/>
			<point x="362" y="694" type="curve" smooth="yes"/>
			<point x="362" y="992"/>
			<point x="594" y="1292"/>
			<point x="1160" y="1292" type="curve" smooth="yes"/>
			<point x="1712" y="1292"/>
			<point x="1960" y="1008"/>
			<point x="1960" y="688" type="curve" smooth="yes"/>
			<point x="1960" y="588"/>
			<point x="1940" y="358"/>
			<point x="1802" y="358" type="curve" smooth="yes"/>
			<point x="1740" y="358"/>
			<point x="1740" y="430"/>
			<point x="1740" y="456" type="curve" smooth="yes"/>
			<point x="1740" y="902" type="line" smooth="yes"/>
			<point x="1740" y="958"/>
			<point x="1736" y="974"/>
			<point x="1666" y="974" type="curve" smooth="yes"/>
			<point x="1641" y="974"/>
			<point x="1615" y="974"/>
			<point x="1590" y="974" type="curve"/>
			<point x="1540" y="1026"/>
			<point x="1430" y="1142"/>
			<point x="1158" y="1142" type="curve" smooth="yes"/>
			<point x="762" y="1142"/>
			<point x="582" y="922"/>
			<point x="582" y="694" type="curve" smooth="yes"/>
			<point x="582" y="468"/>
			<point x="760" y="246"/>
			<point x="1158" y="246" type="curve" smooth="yes"/>
			<point x="1340" y="246"/>
			<point x="1450" y="300"/>
			<point x="1504" y="338" type="curve"/>
			<point x="1576" y="254"/>
			<point x="1714" y="246"/>
			<point x="1776" y="246" type="curve" smooth="yes"/>
			<point x="2028" y="246"/>
			<point x="2126" y="500"/>
			<point x="2126" y="694" type="curve" smooth="yes"/>
			<point x="2126" y="1028"/>
			<point x="1860" y="1404"/>
			<point x="1162" y="1404" type="curve" smooth="yes"/>
			<point x="452" y="1404"/>
			<point x="196" y="1020"/>
			<point x="196" y="694" type="curve" smooth="yes"/>
			<point x="196" y="224"/>
			<point x="632" y="-16"/>
		</contour>
		<contour>
			<point x="1164" y="358" type="curve" smooth="yes"/>
			<point x="962" y="358"/>
			<point x="848" y="496"/>
			<point x="848" y="694" type="curve" smooth="yes"/>
			<point x="848" y="892"/>
			<point x="962" y="1030"/>
			<point x="1164" y="1030" type="curve" smooth="yes"/>
			<point x="1322" y="1030"/>
			<point x="1426" y="960"/>
			<point x="1474" y="882" type="curve"/>
			<point x="1474" y="882"/>
			<point x="1474" y="882"/>
			<point x="1474" y="882" type="curve"/>
			<point x="1474" y="506" type="line"/>
			<point x="1424" y="426"/>
			<point x="1320" y="358"/>
		</contour>
	</outline>
</glyph>
<glyph name="A" format="2">
	<unicode hex="0041"/>
	<advance width="2226"/>
	<outline>
		<contour>
			<point x="1112" y="1422" type="curve" smooth="yes"/>
			<point x="974" y="1422"/>
			<point x="960" y="1422"/>
			<point x="928" y="1356" type="curve" smooth="yes"/>
			<point x="348" y="134" type="line"/>
			<point x="280" y="134"/>
			<point x="212" y="134"/>
			<point x="144" y="134" type="curve"/>
			<point x="144" y="0" type="line"/>
			<point x="236" y="6"/>
			<point x="326" y="8"/>
			<point x="418" y="8" type="curve" smooth="yes"/>
			<point x="526" y="8"/>
			<point x="656" y="2"/>
			<point x="722" y="0" type="curve"/>
			<point x="722" y="134" type="line"/>
			<point x="667" y="134"/>
			<point x="611" y="134"/>
			<point x="556" y="134" type="curve"/>
			<point x="556" y="134"/>
			<point x="556" y="134"/>
			<point x="556" y="134" type="curve"/>
			<point x="694" y="426" type="line"/>
			<point x="1414" y="426" type="line"/>
			<point x="1554" y="134" type="line"/>
			<point x="1554" y="134"/>
			<point x="1554" y="134"/>
			<point x="1554" y="134" type="curve"/>
			<point x="1499" y="134"/>
			<point x="1443" y="134"/>
			<point x="1388" y="134" type="curve"/>
			<point x="1388" y="0" type="line"/>
			<point x="1492" y="4"/>
			<point x="1666" y="8"/>
			<point x="1750" y="8" type="curve" smooth="yes"/>
			<point x="1870" y="8"/>
			<point x="1972" y="4"/>
			<point x="2084" y="0" type="curve"/>
			<point x="2084" y="134" type="line"/>
			<point x="2084" y="134" type="line"/>
			<point x="2016" y="134"/>
			<point x="1948" y="134"/>
			<point x="1880" y="134" type="curve"/>
			<point x="1300" y="1352" type="line" smooth="yes"/>
			<point x="1268" y="1418"/>
			<point x="1268" y="1422"/>
		</contour>
		<contour>
			<point x="1054" y="1184" type="line"/>
			<point x="1352" y="560" type="line"/>
			<point x="758" y="560" type="line"/>
		</contour>
	</outline>
</glyph>
<glyph name="B" format="2">
	<unicode hex="0042"/>
	<advance width="2112"/>
	<outline>
		<contour>
			<point x="1918" y="378" type="curve" smooth="yes"/>
			<point x="1918" y="546"/>
			<point x="1744" y="684"/>
			<point x="1442" y="718" type="curve"/>
			<point x="1684" y="762"/>
			<point x="1838" y="874"/>
			<point x="1838" y="1022" type="curve" smooth="yes"/>
			<point x="1838" y="1218"/>
			<point x="1598" y="1372"/>
			<point x="1222" y="1372" type="curve" smooth="yes"/>
			<point x="200" y="1372" type="line"/>
			<point x="200" y="1238" type="line"/>
			<point x="412" y="1238" type="line"/>
			<point x="412" y="1238"/>
			<point x="412" y="1238"/>
			<point x="412" y="1238" type="curve"/>
			<point x="412" y="134" type="line"/>
			<point x="412" y="134"/>
			<point x="412" y="134"/>
			<point x="412" y="134" type="curve"/>
			<point x="200" y="134" type="line"/>
			<point x="200" y="0" type="line"/>
			<point x="1298" y="0" type="line" smooth="yes"/>
			<point x="1692" y="0"/>
			<point x="1918" y="172"/>
		</contour>
		<contour>
			<point x="690" y="770" type="line"/>
			<point x="690" y="1238" type="line"/>
			<point x="690" y="1238"/>
			<point x="690" y="1238"/>
			<point x="690" y="1238" type="curve"/>
			<point x="1198" y="1238" type="line" smooth="yes"/>
			<point x="1436" y="1238"/>
			<point x="1528" y="1122"/>
			<point x="1528" y="1020" type="curve" smooth="yes"/>
			<point x="1528" y="880"/>
			<point x="1374" y="770"/>
			<point x="1136" y="770" type="curve" smooth="yes"/>
		</contour>
		<contour>
			<point x="1204" y="134" type="curve" smooth="yes"/>
			<point x="690" y="134" type="line"/>
			<point x="690" y="134"/>
			<point x="690" y="134"/>
			<point x="690" y="134" type="curve"/>
			<point x="690" y="658" type="line"/>
			<point x="1224" y="658" type="line" smooth="yes"/>
			<point x="1520" y="658"/>
			<point x="1590" y="488"/>
			<point x="1590" y="382" type="curve" smooth="yes"/>
			<point x="1590" y="228"/>
			<point x="1430" y="134"/>
		</contour>
	</outline>
</glyph>
<glyph name="C" format="2">
	<unicode hex="0043"/>
	<advance width="2160"/>
	<outline>
		<contour>
			<point x="196" y="686" type="curve" smooth="yes"/>
			<point x="196" y="336"/>
			<point x="486" y="-34"/>
			<point x="1190" y="-34" type="curve" smooth="yes"/>
			<point x="1672" y="-34"/>
			<point x="1966" y="186"/>
			<point x="1966" y="460" type="curve" smooth="yes"/>
			<point x="1966" y="516"/>
			<point x="1938" y="516"/>
			<point x="1880" y="516" type="curve" smooth="yes"/>
			<point x="1814" y="516"/>
			<point x="1804" y="512"/>
			<point x="1800" y="452" type="curve" smooth="yes"/>
			<point x="1786" y="234"/>
			<point x="1542" y="100"/>
			<point x="1250" y="100" type="curve" smooth="yes"/>
			<point x="1002" y="100"/>
			<point x="807" y="156"/>
			<point x="685" y="279" type="curve" smooth="yes"/>
			<point x="591" y="373"/>
			<point x="540" y="507"/>
			<point x="540" y="686" type="curve" smooth="yes"/>
			<point x="540" y="850"/>
			<point x="582" y="1032"/>
			<point x="740" y="1142" type="curve" smooth="yes"/>
			<point x="850" y="1216"/>
			<point x="1004" y="1272"/>
			<point x="1242" y="1272" type="curve" smooth="yes"/>
			<point x="1610" y="1272"/>
			<point x="1758" y="1022"/>
			<point x="1780" y="868" type="curve" smooth="yes"/>
			<point x="1786" y="832"/>
			<point x="1814" y="832"/>
			<point x="1878" y="832" type="curve" smooth="yes"/>
			<point x="1960" y="832"/>
			<point x="1966" y="842"/>
			<point x="1966" y="902" type="curve" smooth="yes"/>
			<point x="1966" y="1336" type="line" smooth="yes"/>
			<point x="1966" y="1378"/>
			<point x="1966" y="1406"/>
			<point x="1906" y="1406" type="curve" smooth="yes"/>
			<point x="1878" y="1406"/>
			<point x="1874" y="1404"/>
			<point x="1850" y="1384" type="curve" smooth="yes"/>
			<point x="1712" y="1266" type="line"/>
			<point x="1486" y="1406"/>
			<point x="1254" y="1406"/>
			<point x="1186" y="1406" type="curve" smooth="yes"/>
			<point x="500" y="1406"/>
			<point x="196" y="1046"/>
		</contour>
	</outline>
</glyph>
<glyph name="D" format="2">
	<unicode hex="0044"/>
	<advance width="1137"/>
	<outline>
		<contour>
			<point x="1039" y="337" type="curve" smooth="yes"/>
			<point x="1039" y="546"/>
			<point x="863" y="686"/>
			<point x="608" y="686" type="curve" smooth="yes"/>
			<point x="96" y="686" type="line"/>
			<point x="96" y="619" type="line"/>
			<point x="131.298" y="619"/>
			<point x="166.596" y="619"/>
			<point x="202" y="619" type="curve"/>
			<point x="202" y="619"/>
			<point x="202" y="619"/>
			<point x="202" y="619" type="curve"/>
			<point x="202" y="67" type="line"/>
			<point x="202" y="67"/>
			<point x="202" y="67"/>
			<point x="202" y="67" type="curve"/>
			<point x="166.702" y="67"/>
			<point x="131.404" y="67"/>
			<point x="96" y="67" type="curve"/>
			<point x="96" y="0" type="line"/>
			<point x="608" y="0" type="line" smooth="yes"/>
			<point x="868" y="0"/>
			<point x="1039" y="139"/>
		</contour>
		<contour>
			<point x="350" y="67" type="line"/>
			<point x="350" y="67"/>
			<point x="350" y="67"/>
			<point x="350" y="67" type="curve"/>
			<point x="350" y="619" type="line"/>
			<point x="350" y="619"/>
			<point x="350" y="619"/>
			<point x="350" y="619" type="curve"/>
			<point x="567" y="619" type="line" smooth="yes"/>
			<point x="642" y="619"/>
			<point x="728" y="605"/>
			<point x="787" y="562" type="curve" smooth="yes"/>
			<point x="838" y="524"/>
			<point x="875" y="469"/>
			<point x="875" y="338" type="curve" smooth="yes"/>
			<point x="875" y="284.6584"/>
			<point x="872.64682372" y="202.07018052"/>
			<point x="812.1961454967" y="142.0814626315" type="curve" smooth="yes"/>
			<point x="768.38556428" y="98.60567916"/>
			<point x="694.06" y="67"/>
			<point x="568" y="67" type="curve" smooth="yes"/>
		</contour>
	</outline>
</glyph>
<glyph name="E" format="2">
	<unicode hex="0045"/>
	<advance width="1954"/>
	<outline>
		<contour>
			<point x="1842" y="458" type="line"/>
			<point x="1676" y="458" type="line"/>
			<point x="1602" y="162"/>
			<point x="1396" y="134"/>
			<point x="1154" y="134" type="curve" smooth="yes"/>
			<point x="708" y="134" type="line"/>
			<point x="708" y="134"/>
			<point x="708" y="134"/>
			<point x="708" y="134" type="curve"/>
			<point x="708" y="636" type="line"/>
			<point x="886" y="636" type="line" smooth="yes"/>
			<point x="1014" y="636"/>
			<point x="1126" y="628"/>
			<point x="1130" y="470" type="curve"/>
			<point x="1296" y="470" type="line"/>
			<point x="1296" y="936" type="line"/>
			<point x="1130" y="936" type="line"/>
			<point x="1126" y="778"/>
			<point x="1014" y="770"/>
			<point x="886" y="770" type="curve" smooth="yes"/>
			<point x="708" y="770" type="line"/>
			<point x="708" y="1222" type="line"/>
			<point x="708" y="1222"/>
			<point x="708" y="1222"/>
			<point x="708" y="1222" type="curve"/>
			<point x="1126" y="1222" type="line" smooth="yes"/>
			<point x="1348" y="1222"/>
			<point x="1540" y="1202"/>
			<point x="1594" y="944" type="curve"/>
			<point x="1760" y="944" type="line"/>
			<point x="1682" y="1356" type="line"/>
			<point x="184" y="1356" type="line"/>
			<point x="184" y="1222" type="line"/>
			<point x="396" y="1222" type="line"/>
			<point x="396" y="1222"/>
			<point x="396" y="1222"/>
			<point x="396" y="1222" type="curve"/>
			<point x="396" y="134" type="line"/>
			<point x="396" y="134"/>
			<point x="396" y="134"/>
			<point x="396" y="134" type="curve"/>
			<point x="184" y="134" type="line"/>
			<point x="184" y="0" type="line"/>
			<point x="1726" y="0" type="line"/>
		</contour>
	</outline>
</glyph>
<glyph name="F" format="2">
	<unicode hex="0046"/>
	<advance width="1874"/>
	<outline>
		<contour>
			<point x="1642" y="1356" type="line"/>
			<point x="184" y="1356" type="line"/>
			<point x="184" y="1222" type="line"/>
			<point x="396" y="1222" type="line"/>
			<point x="396" y="1222"/>
			<point x="396" y="1222"/>
			<point x="396" y="1222" type="curve"/>
			<point x="396" y="134" type="line"/>
			<point x="396" y="134"/>
			<point x="396" y="134"/>
			<point x="396" y="134" type="curve"/>
			<point x="184" y="134" type="line"/>
			<point x="184" y="0" type="line"/>
			<point x="310" y="6"/>
			<point x="496" y="8"/>
			<point x="560" y="8" type="curve" smooth="yes"/>
			<point x="668" y="8"/>
			<point x="872" y="8"/>
			<point x="972" y="0" type="curve"/>
			<point x="972" y="134" type="line"/>
			<point x="708" y="134" type="line"/>
			<point x="708" y="134"/>
			<point x="708" y="134"/>
			<point x="708" y="134" type="curve"/>
			<point x="708" y="612" type="line"/>
			<point x="874" y="612" type="line" smooth="yes"/>
			<point x="1008" y="612"/>
			<point x="1108" y="600"/>
			<point x="1112" y="446" type="curve"/>
			<point x="1278" y="446" type="line"/>
			<point x="1278" y="912" type="line"/>
			<point x="1112" y="912" type="line"/>
			<point x="1108" y="758"/>
			<point x="1008" y="746"/>
			<point x="874" y="746" type="curve" smooth="yes"/>
			<point x="708" y="746" type="line"/>
			<point x="708" y="1222" type="line"/>
			<point x="708" y="1222"/>
			<point x="708" y="1222"/>
			<point x="708" y="1222" type="curve"/>
			<point x="1102" y="1222" type="line" smooth="yes"/>
			<point x="1312" y="1222"/>
			<point x="1504" y="1202"/>
			<point x="1554" y="944" type="curve"/>
			<point x="1720" y="944" type="line"/>
		</contour>
	</outline>
</glyph>
<glyph name="G" format="2">
	<unicode hex="0047"/>
	<advance width="1169"/>
	<outline>
		<contour>
			<point x="589" y="-17" type="curve" smooth="yes"/>
			<point x="664" y="-17"/>
			<point x="731" y="-16"/>
			<point x="786" y="-6" type="curve" smooth="yes"/>
			<point x="826" y="1"/>
			<point x="859" y="12"/>
			<point x="883" y="31" type="curve"/>
			<point x="904" y="20"/>
			<point x="953" y="0"/>
			<point x="961" y="0" type="curve" smooth="yes"/>
			<point x="983" y="0"/>
			<point x="983" y="21"/>
			<point x="983" y="35" type="curve" smooth="yes"/>
			<point x="983" y="90.944"/>
			<point x="983" y="146.888"/>
			<point x="983" y="203" type="curve"/>
			<point x="983" y="203"/>
			<point x="983" y="203"/>
			<point x="983" y="203" type="curve"/>
			<point x="1016.633" y="203"/>
			<point x="1050.266" y="203"/>
			<point x="1084" y="203" type="curve"/>
			<point x="1084" y="225.311"/>
			<point x="1084" y="247.622"/>
			<point x="1084" y="270" type="curve"/>
			<point x="1029" y="268"/>
			<point x="975" y="266"/>
			<point x="892" y="266" type="curve" smooth="yes"/>
			<point x="834" y="266"/>
			<point x="697" y="266"/>
			<point x="646" y="270" type="curve"/>
			<point x="646" y="247.689"/>
			<point x="646" y="225.378"/>
			<point x="646" y="203" type="curve"/>
			<point x="706.273" y="203"/>
			<point x="766.546" y="203"/>
			<point x="827" y="203" type="curve"/>
			<point x="827" y="203"/>
			<point x="827" y="203"/>
			<point x="827" y="203" type="curve"/>
			<point x="827" y="176.027"/>
			<point x="827" y="149.054"/>
			<point x="827" y="122" type="curve" smooth="yes"/>
			<point x="827" y="96"/>
			<point x="827" y="72"/>
			<point x="772" y="59" type="curve" smooth="yes"/>
			<point x="746" y="53"/>
			<point x="707" y="50"/>
			<point x="650" y="50" type="curve" smooth="yes"/>
			<point x="543" y="50"/>
			<point x="451" y="66"/>
			<point x="383" y="108" type="curve" smooth="yes"/>
			<point x="312" y="153"/>
			<point x="270" y="228"/>
			<point x="270" y="344" type="curve"/>
			<point x="270" y="418"/>
			<point x="288" y="514"/>
			<point x="370" y="571" type="curve" smooth="yes"/>
			<point x="425" y="608"/>
			<point x="502" y="636"/>
			<point x="621" y="636" type="curve" smooth="yes"/>
			<point x="787" y="636"/>
			<point x="874" y="533"/>
			<point x="890" y="434" type="curve" smooth="yes"/>
			<point x="893" y="416"/>
			<point x="906" y="416"/>
			<point x="938" y="416" type="curve" smooth="yes"/>
			<point x="981" y="416"/>
			<point x="983" y="421"/>
			<point x="983" y="451" type="curve" smooth="yes"/>
			<point x="983" y="523.261"/>
			<point x="983" y="595.522"/>
			<point x="983" y="668" type="curve" smooth="yes"/>
			<point x="983" y="689"/>
			<point x="983" y="703"/>
			<point x="953" y="703" type="curve" smooth="yes"/>
			<point x="939" y="703"/>
			<point x="937" y="702"/>
			<point x="925" y="692" type="curve" smooth="yes"/>
			<point x="902.023" y="672.353"/>
			<point x="879.046" y="652.706"/>
			<point x="856" y="633" type="curve"/>
			<point x="743" y="703"/>
			<point x="627" y="703"/>
			<point x="593" y="703" type="curve" smooth="yes"/>
			<point x="250" y="703"/>
			<point x="98" y="523"/>
			<point x="98" y="343" type="curve" smooth="yes"/>
			<point x="98" y="73"/>
			<point x="379" y="-17"/>
		</contour>
	</outline>
</glyph>
<glyph name="H" format="2">
	<unicode hex="0048"/>
	<advance width="2304"/>
	<outline>
		<contour>
			<point x="184" y="0" type="line"/>
			<point x="302" y="6"/>
			<point x="482" y="8"/>
			<point x="552" y="8" type="curve" smooth="yes"/>
			<point x="594" y="8"/>
			<point x="788" y="6"/>
			<point x="920" y="0" type="curve"/>
			<point x="920" y="134" type="line"/>
			<point x="708" y="134" type="line"/>
			<point x="708" y="134"/>
			<point x="708" y="134"/>
			<point x="708" y="134" type="curve"/>
			<point x="708" y="646" type="line"/>
			<point x="1598" y="646" type="line"/>
			<point x="1598" y="134" type="line"/>
			<point x="1598" y="134"/>
			<point x="1598" y="134"/>
			<point x="1598" y="134" type="curve"/>
			<point x="1386" y="134" type="line"/>
			<point x="1386" y="0" type="line"/>
			<point x="1504" y="6"/>
			<point x="1684" y="8"/>
			<point x="1754" y="8" type="curve" smooth="yes"/>
			<point x="1796" y="8"/>
			<point x="1990" y="6"/>
			<point x="2122" y="0" type="curve"/>
			<point x="2122" y="134" type="line"/>
			<point x="1910" y="134" type="line"/>
			<point x="1910" y="134"/>
			<point x="1910" y="134"/>
			<point x="1910" y="134" type="curve"/>
			<point x="1910" y="1238" type="line"/>
			<point x="1910" y="1238"/>
			<point x="1910" y="1238"/>
			<point x="1910" y="1238" type="curve"/>
			<point x="2122" y="1238" type="line"/>
			<point x="2122" y="1372" type="line"/>
			<point x="2004" y="1366"/>
			<point x="1824" y="1364"/>
			<point x="1754" y="1364" type="curve" smooth="yes"/>
			<point x="1712" y="1364"/>
			<point x="1518" y="1366"/>
			<point x="1386" y="1372" type="curve"/>
			<point x="1386" y="1238" type="line"/>
			<point x="1598" y="1238" type="line"/>
			<point x="1598" y="1238"/>
			<point x="1598" y="1238"/>
			<point x="1598" y="1238" type="curve"/>
			<point x="1598" y="780" type="line"/>
			<point x="708" y="780" type="line"/>
			<point x="708" y="1238" type="line"/>
			<point x="708" y="1238"/>
			<point x="708" y="1238"/>
			<point x="708" y="1238" type="curve"/>
			<point x="920" y="1238" type="line"/>
			<point x="920" y="1372" type="line"/>
			<point x="802" y="1366"/>
			<point x="622" y="1364"/>
			<point x="552" y="1364" type="curve" smooth="yes"/>
			<point x="510" y="1364"/>
			<point x="316" y="1366"/>
			<point x="184" y="1372" type="curve"/>
			<point x="184" y="1238" type="line"/>
			<point x="396" y="1238" type="line"/>
			<point x="396" y="1238"/>
			<point x="396" y="1238"/>
			<point x="396" y="1238" type="curve"/>
			<point x="396" y="134" type="line"/>
			<point x="396" y="134"/>
			<point x="396" y="134"/>
			<point x="396" y="134" type="curve"/>
			<point x="184" y="134" type="line"/>
		</contour>
	</outline>
</glyph>
<glyph name="I" format="2">
	<unicode hex="0049"/>
	<advance width="1100"/>
	<outline>
		<contour>
			<point x="172" y="0" type="line"/>
			<point x="294" y="8"/>
			<point x="428" y="8"/>
			<point x="550" y="8" type="curve" smooth="yes"/>
			<point x="672" y="8"/>
			<point x="806" y="8"/>
			<point x="928" y="0" type="curve"/>
			<point x="928" y="134" type="line"/>
			<point x="706" y="134" type="line"/>
			<point x="706" y="134"/>
			<point x="706" y="134"/>
			<point x="706" y="134" type="curve"/>
			<point x="706" y="1238" type="line"/>
			<point x="706" y="1238"/>
			<point x="706" y="1238"/>
			<point x="706" y="1238" type="curve"/>
			<point x="928" y="1238" type="line"/>
			<point x="928" y="1372" type="line"/>
			<point x="806" y="1364"/>
			<point x="672" y="1364"/>
			<point x="550" y="1364" type="curve" smooth="yes"/>
			<point x="428" y="1364"/>
			<point x="294" y="1364"/>
			<point x="172" y="1372" type="curve"/>
			<point x="172" y="1238" type="line"/>
			<point x="394" y="1238" type="line"/>
			<point x="394" y="1238"/>
			<point x="394" y="1238"/>
			<point x="394" y="1238" type="curve"/>
			<point x="394" y="134" type="line"/>
			<point x="394" y="134"/>
			<point x="394" y="134"/>
			<point x="394" y="134" type="curve"/>
			<point x="172" y="134" type="line"/>
		</contour>
	</outline>
</glyph>
<glyph name="J" format="2">
	<unicode hex="004A"/>
	<advance width="1550"/>
	<outline>
		<contour>
			<point x="616" y="-34" type="curve" smooth="yes"/>
			<point x="976" y="-34"/>
			<point x="1160" y="104"/>
			<point x="1160" y="300" type="curve" smooth="yes"/>
			<point x="1160" y="1238" type="line"/>
			<point x="1160" y="1238"/>
			<point x="1160" y="1238"/>
			<point x="1160" y="1238" type="curve"/>
			<point x="1318" y="1238" type="line"/>
			<point x="1318" y="1372" type="line"/>
			<point x="1224" y="1368"/>
			<point x="1132" y="1364"/>
			<point x="992" y="1364" type="curve" smooth="yes"/>
			<point x="884" y="1364"/>
			<point x="690" y="1364"/>
			<point x="590" y="1372" type="curve"/>
			<point x="590" y="1238" type="line"/>
			<point x="864" y="1238" type="line"/>
			<point x="864" y="1238"/>
			<point x="864" y="1238"/>
			<point x="864" y="1238" type="curve"/>
			<point x="864" y="304" type="line" smooth="yes"/>
			<point x="864" y="168"/>
			<point x="792" y="78"/>
			<point x="614" y="78" type="curve" smooth="yes"/>
			<point x="598" y="78"/>
			<point x="512" y="78"/>
			<point x="432" y="106" type="curve"/>
			<point x="436" y="110"/>
			<point x="478" y="156"/>
			<point x="478" y="228" type="curve" smooth="yes"/>
			<point x="478" y="346"/>
			<point x="384" y="402"/>
			<point x="306" y="402" type="curve" smooth="yes"/>
			<point x="226" y="402"/>
			<point x="132" y="348"/>
			<point x="132" y="226" type="curve" smooth="yes"/>
			<point x="132" y="-34"/>
			<point x="514" y="-34"/>
		</contour>
	</outline>
</glyph>
<glyph name="K" format="2">
	<unicode hex="004B"/>
	<advance width="2308"/>
	<outline>
		<contour>
			<point x="184" y="0" type="line"/>
			<point x="302" y="6"/>
			<point x="482" y="8"/>
			<point x="552" y="8" type="curve" smooth="yes"/>
			<point x="594" y="8"/>
			<point x="788" y="6"/>
			<point x="920" y="0" type="curve"/>
			<point x="920" y="134" type="line"/>
			<point x="708" y="134" type="line"/>
			<point x="708" y="134"/>
			<point x="708" y="134"/>
			<point x="708" y="134" type="curve"/>
			<point x="708" y="460" type="line"/>
			<point x="1032" y="672" type="line"/>
			<point x="1586" y="134" type="line"/>
			<point x="1586" y="134"/>
			<point x="1586" y="134"/>
			<point x="1586" y="134" type="curve"/>
			<point x="1551" y="134"/>
			<point x="1517" y="134"/>
			<point x="1482" y="134" type="curve"/>
			<point x="1482" y="0" type="line"/>
			<point x="1600" y="6"/>
			<point x="1728" y="8"/>
			<point x="1846" y="8" type="curve" smooth="yes"/>
			<point x="1952" y="8"/>
			<point x="2048" y="6"/>
			<point x="2152" y="0" type="curve"/>
			<point x="2152" y="134" type="line"/>
			<point x="2089" y="134"/>
			<point x="2025" y="134"/>
			<point x="1962" y="134" type="curve"/>
			<point x="1258" y="818" type="line"/>
			<point x="1898" y="1238" type="line"/>
			<point x="1969" y="1238"/>
			<point x="2041" y="1238"/>
			<point x="2112" y="1238" type="curve"/>
			<point x="2112" y="1372" type="line"/>
			<point x="2026" y="1364"/>
			<point x="1940" y="1364"/>
			<point x="1854" y="1364" type="curve" smooth="yes"/>
			<point x="1716" y="1364"/>
			<point x="1560" y="1370"/>
			<point x="1512" y="1372" type="curve"/>
			<point x="1512" y="1238" type="line"/>
			<point x="1540" y="1238"/>
			<point x="1568" y="1238"/>
			<point x="1596" y="1238" type="curve"/>
			<point x="1596" y="1238"/>
			<point x="1596" y="1238"/>
			<point x="1596" y="1238" type="curve"/>
			<point x="708" y="658" type="line"/>
			<point x="708" y="1238" type="line"/>
			<point x="708" y="1238"/>
			<point x="708" y="1238"/>
			<point x="708" y="1238" type="curve"/>
			<point x="920" y="1238" type="line"/>
			<point x="920" y="1372" type="line"/>
			<point x="802" y="1366"/>
			<point x="622" y="1364"/>
			<point x="552" y="1364" type="curve" smooth="yes"/>
			<point x="510" y="1364"/>
			<point x="316" y="1366"/>
			<point x="184" y="1372" type="curve"/>
			<point x="184" y="1238" type="line"/>
			<point x="396" y="1238" type="line"/>
			<point x="396" y="1238"/>
			<point x="396" y="1238"/>
			<point x="396" y="1238" type="curve"/>
			<point x="396" y="134" type="line"/>
			<point x="396" y="134"/>
			<point x="396" y="134"/>
			<point x="396" y="134" type="curve"/>
			<point x="184" y="134" type="line"/>
		</contour>
	</outline>
</glyph>
<glyph name="L" format="2">
	<unicode hex="004C"/>
	<advance width="1794"/>
	<outline>
		<contour>
			<point x="1640" y="458" type="line"/>
			<point x="1474" y="458" type="line"/>
			<point x="1418" y="168"/>
			<point x="1188" y="134"/>
			<point x="1012" y="134" type="curve" smooth="yes"/>
			<point x="708" y="134" type="line"/>
			<point x="708" y="134"/>
			<point x="708" y="134"/>
			<point x="708" y="134" type="curve"/>
			<point x="708" y="1238" type="line"/>
			<point x="708" y="1238"/>
			<point x="708" y="1238"/>
			<point x="708" y="1238" type="curve"/>
			<point x="972" y="1238" type="line"/>
			<point x="972" y="1372" type="line"/>
			<point x="872" y="1364"/>
			<point x="668" y="1364"/>
			<point x="560" y="1364" type="curve" smooth="yes"/>
			<point x="494" y="1364"/>
			<point x="312" y="1366"/>
			<point x="184" y="1372" type="curve"/>
			<point x="184" y="1238" type="line"/>
			<point x="396" y="1238" type="line"/>
			<point x="396" y="1238"/>
			<point x="396" y="1238"/>
			<point x="396" y="1238" type="curve"/>
			<point x="396" y="134" type="line"/>
			<point x="396" y="134"/>
			<point x="396" y="134"/>
			<point x="396" y="134" type="curve"/>
			<point x="184" y="134" type="line"/>
			<point x="184" y="0" type="line"/>
			<point x="1562" y="0" type="line"/>
		</contour>
	</outline>
</glyph>
<glyph name="M" format="2">
	<unicode hex="004D"/>
	<advance width="2788"/>
	<outline>
		<contour>
			<point x="1394" y="222" type="line"/>
			<point x="790" y="1314" type="line" smooth="yes"/>
			<point x="758" y="1372"/>
			<point x="714" y="1372"/>
			<point x="678" y="1372" type="curve" smooth="yes"/>
			<point x="208" y="1372" type="line"/>
			<point x="208" y="1238" type="line"/>
			<point x="420" y="1238" type="line"/>
			<point x="420" y="1238"/>
			<point x="420" y="1238"/>
			<point x="420" y="1238" type="curve"/>
			<point x="420" y="134" type="line"/>
			<point x="420" y="134"/>
			<point x="420" y="134"/>
			<point x="420" y="134" type="curve"/>
			<point x="208" y="134" type="line"/>
			<point x="208" y="0" type="line"/>
			<point x="286" y="4"/>
			<point x="394" y="8"/>
			<point x="510" y="8" type="curve" smooth="yes"/>
			<point x="628" y="8"/>
			<point x="732" y="4"/>
			<point x="814" y="0" type="curve"/>
			<point x="814" y="134" type="line"/>
			<point x="602" y="134" type="line"/>
			<point x="602" y="134"/>
			<point x="602" y="134"/>
			<point x="602" y="134" type="curve"/>
			<point x="602" y="1204" type="line"/>
			<point x="604" y="1204" type="line"/>
			<point x="1238" y="58" type="line" smooth="yes"/>
			<point x="1270" y="0"/>
			<point x="1314" y="0"/>
			<point x="1346" y="0" type="curve" smooth="yes"/>
			<point x="1378" y="0"/>
			<point x="1422" y="0"/>
			<point x="1454" y="58" type="curve" smooth="yes"/>
			<point x="2104" y="1232" type="line"/>
			<point x="2106" y="1232" type="line"/>
			<point x="2106" y="134" type="line"/>
			<point x="2106" y="134"/>
			<point x="2106" y="134"/>
			<point x="2106" y="134" type="curve"/>
			<point x="1894" y="134" type="line"/>
			<point x="1894" y="0" type="line"/>
			<point x="1986" y="4"/>
			<point x="2118" y="8"/>
			<point x="2236" y="8" type="curve" smooth="yes"/>
			<point x="2356" y="8"/>
			<point x="2480" y="4"/>
			<point x="2580" y="0" type="curve"/>
			<point x="2580" y="134" type="line"/>
			<point x="2368" y="134" type="line"/>
			<point x="2368" y="134"/>
			<point x="2368" y="134"/>
			<point x="2368" y="134" type="curve"/>
			<point x="2368" y="1238" type="line"/>
			<point x="2368" y="1238"/>
			<point x="2368" y="1238"/>
			<point x="2368" y="1238" type="curve"/>
			<point x="2580" y="1238" type="line"/>
			<point x="2580" y="1372" type="line"/>
			<point x="2110" y="1372" type="line" smooth="yes"/>
			<point x="2074" y="1372"/>
			<point x="2030" y="1372"/>
			<point x="1998" y="1314" type="curve" smooth="yes"/>
		</contour>
	</outline>
</glyph>
<glyph name="N" format="2">
	<unicode hex="004E"/>
	<advance width="2304"/>
	<outline>
		<contour>
			<point x="1728" y="392" type="line"/>
			<point x="728" y="1348" type="line" smooth="yes"/>
			<point x="702" y="1372"/>
			<point x="690" y="1372"/>
			<point x="654" y="1372" type="curve" smooth="yes"/>
			<point x="184" y="1372" type="line"/>
			<point x="184" y="1238" type="line"/>
			<point x="184" y="1238" type="line"/>
			<point x="255" y="1238"/>
			<point x="325" y="1238"/>
			<point x="396" y="1238" type="curve"/>
			<point x="396" y="1238"/>
			<point x="396" y="1238"/>
			<point x="396" y="1238" type="curve"/>
			<point x="396" y="134" type="line"/>
			<point x="396" y="134"/>
			<point x="396" y="134"/>
			<point x="396" y="134" type="curve"/>
			<point x="184" y="134" type="line"/>
			<point x="184" y="0" type="line"/>
			<point x="262" y="4"/>
			<point x="370" y="8"/>
			<point x="486" y="8" type="curve" smooth="yes"/>
			<point x="604" y="8"/>
			<point x="708" y="4"/>
			<point x="790" y="0" type="curve"/>
			<point x="790" y="134" type="line"/>
			<point x="578" y="134" type="line"/>
			<point x="578" y="134"/>
			<point x="578" y="134"/>
			<point x="578" y="134" type="curve"/>
			<point x="578" y="1126" type="line"/>
			<point x="578" y="1126"/>
			<point x="578" y="1126"/>
			<point x="578" y="1126" type="curve"/>
			<point x="1728" y="28" type="line" smooth="yes"/>
			<point x="1758" y="0"/>
			<point x="1758" y="0"/>
			<point x="1822" y="0" type="curve" smooth="yes"/>
			<point x="1902" y="0"/>
			<point x="1910" y="12"/>
			<point x="1910" y="76" type="curve" smooth="yes"/>
			<point x="1910" y="1238" type="line"/>
			<point x="1910" y="1238"/>
			<point x="1910" y="1238"/>
			<point x="1910" y="1238" type="curve"/>
			<point x="2122" y="1238" type="line"/>
			<point x="2122" y="1372" type="line"/>
			<point x="2044" y="1368"/>
			<point x="1936" y="1364"/>
			<point x="1820" y="1364" type="curve" smooth="yes"/>
			<point x="1702" y="1364"/>
			<point x="1598" y="1368"/>
			<point x="1516" y="1372" type="curve"/>
			<point x="1516" y="1238" type="line"/>
			<point x="1728" y="1238" type="line"/>
			<point x="1728" y="1238"/>
			<point x="1728" y="1238"/>
			<point x="1728" y="1238" type="curve"/>
		</contour>
	</outline>
</glyph>
<glyph name="O" format="2">
	<unicode hex="004F"/>
	<advance width="2244"/>
	<outline>
		<contour>
			<point x="2048" y="676" type="curve" smooth="yes"/>
			<point x="2048" y="1038"/>
			<point x="1776" y="1406"/>
			<point x="1122" y="1406" type="curve" smooth="yes"/>
			<point x="466" y="1406"/>
			<point x="196" y="1036"/>
			<point x="196" y="676" type="curve" smooth="yes"/>
			<point x="196" y="324"/>
			<point x="468" y="-34"/>
			<point x="1122" y="-34" type="curve" smooth="yes"/>
			<point x="1778" y="-34"/>
			<point x="2048" y="326"/>
		</contour>
		<contour>
			<point x="1122" y="94" type="curve" smooth="yes"/>
			<point x="926" y="94"/>
			<point x="790" y="149"/>
			<point x="699" y="240" type="curve" smooth="yes"/>
			<point x="584" y="353"/>
			<point x="540" y="523"/>
			<point x="540" y="710" type="curve" smooth="yes"/>
			<point x="540" y="842"/>
			<point x="562" y="1018"/>
			<point x="692" y="1142" type="curve" smooth="yes"/>
			<point x="816" y="1256"/>
			<point x="992" y="1282"/>
			<point x="1122" y="1282" type="curve" smooth="yes"/>
			<point x="1252" y="1282"/>
			<point x="1418" y="1258"/>
			<point x="1548" y="1144" type="curve" smooth="yes"/>
			<point x="1680" y="1028"/>
			<point x="1704" y="846"/>
			<point x="1704" y="710" type="curve" smooth="yes"/>
			<point x="1704" y="511"/>
			<point x="1655" y="348"/>
			<point x="1544" y="239" type="curve" smooth="yes"/>
			<point x="1450" y="147"/>
			<point x="1312" y="94"/>
		</contour>
	</outline>
</glyph>
<glyph name="P" format="2">
	<unicode hex="0050"/>
	<advance width="2032"/>
	<outline>
		<contour>
			<point x="716" y="564" type="line"/>
			<point x="1204" y="564" type="line" smooth="yes"/>
			<point x="1538" y="564"/>
			<point x="1838" y="712"/>
			<point x="1838" y="962" type="curve" smooth="yes"/>
			<point x="1838" y="1198"/>
			<point x="1578" y="1372"/>
			<point x="1180" y="1372" type="curve" smooth="yes"/>
			<point x="192" y="1372" type="line"/>
			<point x="192" y="1238" type="line"/>
			<point x="404" y="1238" type="line"/>
			<point x="404" y="1238"/>
			<point x="404" y="1238"/>
			<point x="404" y="1238" type="curve"/>
			<point x="404" y="134" type="line"/>
			<point x="404" y="134"/>
			<point x="404" y="134"/>
			<point x="404" y="134" type="curve"/>
			<point x="192" y="134" type="line"/>
			<point x="192" y="0" type="line"/>
			<point x="310" y="6"/>
			<point x="490" y="8"/>
			<point x="560" y="8" type="curve" smooth="yes"/>
			<point x="602" y="8"/>
			<point x="796" y="6"/>
			<point x="928" y="0" type="curve"/>
			<point x="928" y="134" type="line"/>
			<point x="716" y="134" type="line"/>
			<point x="716" y="134"/>
			<point x="716" y="134"/>
			<point x="716" y="134" type="curve"/>
		</contour>
		<contour>
			<point x="700" y="686" type="line"/>
			<point x="700" y="1238" type="line"/>
			<point x="700" y="1238"/>
			<point x="700" y="1238"/>
			<point x="700" y="1238" type="curve"/>
			<point x="1124" y="1238" type="line" smooth="yes"/>
			<point x="1468" y="1238"/>
			<point x="1494" y="1102"/>
			<point x="1494" y="962" type="curve" smooth="yes"/>
			<point x="1494" y="826"/>
			<point x="1468" y="686"/>
			<point x="1122" y="686" type="curve" smooth="yes"/>
		</contour>
	</outline>
</glyph>
<glyph name="Q" format="2">
	<unicode hex="0051"/>
	<advance width="2244"/>
	<outline>
		<contour>
			<point x="1562" y="34" type="curve"/>
			<point x="1880" y="144"/>
			<point x="2048" y="396"/>
			<point x="2048" y="676" type="curve" smooth="yes"/>
			<point x="2048" y="1038"/>
			<point x="1776" y="1406"/>
			<point x="1122" y="1406" type="curve" smooth="yes"/>
			<point x="466" y="1406"/>
			<point x="196" y="1036"/>
			<point x="196" y="676" type="curve" smooth="yes"/>
			<point x="196" y="324"/>
			<point x="468" y="-34"/>
			<point x="1122" y="-34" type="curve" smooth="yes"/>
			<point x="1142" y="-34"/>
			<point x="1240" y="-34"/>
			<point x="1358" y="-18" type="curve"/>
			<point x="1444" y="-220"/>
			<point x="1516" y="-388"/>
			<point x="1718" y="-388" type="curve" smooth="yes"/>
			<point x="1934" y="-388"/>
			<point x="2064" y="-182"/>
			<point x="2064" y="-12" type="curve" smooth="yes"/>
			<point x="2064" y="-2"/>
			<point x="2064" y="50"/>
			<point x="2014" y="50" type="curve" smooth="yes"/>
			<point x="2000" y="50"/>
			<point x="1972" y="42"/>
			<point x="1964" y="6" type="curve"/>
			<point x="1960" y="-18"/>
			<point x="1956" y="-44"/>
			<point x="1774" y="-44" type="curve" smooth="yes"/>
			<point x="1702" y="-44"/>
			<point x="1646" y="-44"/>
		</contour>
		<contour>
			<point x="866" y="128" type="curve"/>
			<point x="602" y="218"/>
			<point x="524" y="436"/>
			<point x="524" y="676" type="curve" smooth="yes"/>
			<point x="524" y="852"/>
			<point x="566" y="1010"/>
			<point x="658" y="1108" type="curve" smooth="yes"/>
			<point x="774" y="1228"/>
			<point x="928" y="1282"/>
			<point x="1122" y="1282" type="curve" smooth="yes"/>
			<point x="1284" y="1282"/>
			<point x="1448" y="1246"/>
			<point x="1576" y="1118" type="curve" smooth="yes"/>
			<point x="1698" y="994"/>
			<point x="1720" y="804"/>
			<point x="1720" y="676" type="curve" smooth="yes"/>
			<point x="1720" y="494"/>
			<point x="1676" y="262"/>
			<point x="1442" y="154" type="curve"/>
			<point x="1346" y="248"/>
			<point x="1262" y="330"/>
			<point x="1118" y="330" type="curve" smooth="yes"/>
			<point x="990" y="330"/>
			<point x="864" y="272"/>
			<point x="864" y="152" type="curve" smooth="yes"/>
			<point x="864" y="142"/>
			<point x="864" y="136"/>
		</contour>
		<contour>
			<point x="1294" y="106" type="curve"/>
			<point x="1214" y="90"/>
			<point x="1158" y="90"/>
			<point x="1122" y="90" type="curve" smooth="yes"/>
			<point x="1076" y="90"/>
			<point x="976" y="90"/>
			<point x="976" y="152" type="curve" smooth="yes"/>
			<point x="976" y="206"/>
			<point x="1078" y="218"/>
			<point x="1118" y="218" type="curve" smooth="yes"/>
			<point x="1172" y="218"/>
			<point x="1238" y="202"/>
		</contour>
	</outline>
</glyph>
<glyph name="R" format="2">
	<unicode hex="0052"/>
	<advance width="2204"/>
	<outline>
		<contour>
			<point x="1468" y="680" type="curve"/>
			<point x="1706" y="746"/>
			<point x="1810" y="866"/>
			<point x="1810" y="992" type="curve" smooth="yes"/>
			<point x="1810" y="1210"/>
			<point x="1512" y="1372"/>
			<point x="1076" y="1372" type="curve" smooth="yes"/>
			<point x="192" y="1372" type="line"/>
			<point x="192" y="1238" type="line"/>
			<point x="404" y="1238" type="line"/>
			<point x="404" y="1238"/>
			<point x="404" y="1238"/>
			<point x="404" y="1238" type="curve"/>
			<point x="404" y="134" type="line"/>
			<point x="404" y="134"/>
			<point x="404" y="134"/>
			<point x="404" y="134" type="curve"/>
			<point x="192" y="134" type="line"/>
			<point x="192" y="0" type="line"/>
			<point x="268" y="4"/>
			<point x="402" y="8"/>
			<point x="552" y="8" type="curve" smooth="yes"/>
			<point x="700" y="8"/>
			<point x="824" y="4"/>
			<point x="912" y="0" type="curve"/>
			<point x="912" y="134" type="line"/>
			<point x="700" y="134" type="line"/>
			<point x="700" y="134"/>
			<point x="700" y="134"/>
			<point x="700" y="134" type="curve"/>
			<point x="700" y="630" type="line"/>
			<point x="1034" y="630" type="line" smooth="yes"/>
			<point x="1104" y="630"/>
			<point x="1202" y="620"/>
			<point x="1282" y="566" type="curve" smooth="yes"/>
			<point x="1358" y="514"/>
			<point x="1358" y="466"/>
			<point x="1358" y="348" type="curve" smooth="yes"/>
			<point x="1358" y="194"/>
			<point x="1358" y="90"/>
			<point x="1516" y="16" type="curve" smooth="yes"/>
			<point x="1592" y="-18"/>
			<point x="1718" y="-34"/>
			<point x="1856" y="-34" type="curve" smooth="yes"/>
			<point x="2134" y="-34"/>
			<point x="2164" y="162"/>
			<point x="2164" y="202" type="curve" smooth="yes"/>
			<point x="2164" y="260"/>
			<point x="2120" y="260"/>
			<point x="2080" y="260" type="curve" smooth="yes"/>
			<point x="2042" y="260"/>
			<point x="2002" y="260"/>
			<point x="1998" y="208" type="curve" smooth="yes"/>
			<point x="1988" y="100"/>
			<point x="1920" y="78"/>
			<point x="1880" y="78" type="curve" smooth="yes"/>
			<point x="1778" y="78"/>
			<point x="1724" y="156"/>
			<point x="1704" y="258" type="curve" smooth="yes"/>
			<point x="1698" y="286"/>
			<point x="1680" y="384"/>
			<point x="1672" y="422" type="curve" smooth="yes"/>
			<point x="1662" y="480"/>
			<point x="1638" y="604"/>
		</contour>
		<contour>
			<point x="700" y="742" type="line"/>
			<point x="700" y="1238" type="line"/>
			<point x="700" y="1238"/>
			<point x="700" y="1238"/>
			<point x="700" y="1238" type="curve"/>
			<point x="821" y="1238"/>
			<point x="941" y="1238"/>
			<point x="1062" y="1238" type="curve" smooth="yes"/>
			<point x="1376" y="1238"/>
			<point x="1466" y="1152"/>
			<point x="1466" y="990" type="curve" smooth="yes"/>
			<point x="1466" y="836"/>
			<point x="1380" y="742"/>
			<point x="1062" y="742" type="curve" smooth="yes"/>
		</contour>
	</outline>
</glyph>
<glyph name="S" format="2">
  <advance width="838"/>
  <unicode hex="0053"/>
  <outline>
    <contour>
      <point x="98" y="502" type="curve" smooth="yes"/>
      <point x="98" y="457"/>
      <point x="117" y="414"/>
      <point x="157" y="377" type="curve" smooth="yes"/>
      <point x="215" y="324"/>
      <point x="294" y="310"/>
      <point x="343" y="302" type="curve" smooth="yes"/>
      <point x="376" y="296"/>
      <point x="486" y="278"/>
      <point x="510" y="274" type="curve" smooth="yes"/>
      <point x="565" y="264"/>
      <point x="641" y="230"/>
      <point x="641" y="164" type="curve" smooth="yes"/>
      <point x="641" y="148"/>
      <point x="636" y="50"/>
      <point x="454" y="50" type="curve" smooth="yes"/>
      <point x="191" y="50"/>
      <point x="184" y="152"/>
      <point x="181" y="209" type="curve"/>
      <point x="179" y="228"/>
      <point x="159" y="228"/>
      <point x="138" y="228" type="curve" smooth="yes"/>
      <point x="100" y="228"/>
      <point x="98" y="223"/>
      <point x="98" y="192" type="curve" smooth="yes"/>
      <point x="98" y="18" type="line" smooth="yes"/>
      <point x="98" y="-3"/>
      <point x="98" y="-17"/>
      <point x="128" y="-17" type="curve" smooth="yes"/>
      <point x="142" y="-17"/>
      <point x="144" y="-17"/>
      <point x="167" y="4" type="curve" smooth="yes"/>
      <point x="175" y="12"/>
      <point x="177" y="12"/>
      <point x="197" y="32" type="curve"/>
      <point x="265" y="-6"/>
      <point x="365" y="-17"/>
      <point x="453" y="-17" type="curve" smooth="yes"/>
      <point x="699" y="-17"/>
      <point x="741" y="130"/>
      <point x="741" y="197" type="curve" smooth="yes"/>
      <point x="741" y="265"/>
      <point x="703" y="309"/>
      <point x="693" y="320" type="curve" smooth="yes"/>
      <point x="624" y="390"/>
      <point x="558" y="401"/>
      <point x="487" y="413" type="curve" smooth="yes"/>
      <point x="439.381" y="420.992"/>
      <point x="391.762" y="428.984"/>
      <point x="344" y="437" type="curve" smooth="yes"/>
      <point x="308" y="444"/>
      <point x="198" y="463"/>
      <point x="198" y="539" type="curve" smooth="yes"/>
      <point x="198" y="587"/>
      <point x="247" y="642"/>
      <point x="379" y="642" type="curve" smooth="yes"/>
      <point x="510" y="642"/>
      <point x="595" y="595"/>
      <point x="617" y="485" type="curve" smooth="yes"/>
      <point x="621" y="463"/>
      <point x="621" y="458"/>
      <point x="660" y="458" type="curve" smooth="yes"/>
      <point x="698" y="458"/>
      <point x="701" y="463"/>
      <point x="701" y="493" type="curve" smooth="yes"/>
      <point x="701" y="668" type="line" smooth="yes"/>
      <point x="701" y="689"/>
      <point x="701" y="703"/>
      <point x="671" y="703" type="curve" smooth="yes"/>
      <point x="660" y="703"/>
      <point x="654" y="703"/>
      <point x="643" y="692" type="curve" smooth="yes"/>
      <point x="628.348" y="678.014"/>
      <point x="613.696" y="664.028"/>
      <point x="599" y="650" type="curve"/>
      <point x="531" y="693"/>
      <point x="450" y="703"/>
      <point x="380" y="703" type="curve" smooth="yes"/>
      <point x="167" y="703"/>
      <point x="98" y="590"/>
    </contour>
  </outline>
</glyph>
<glyph name="T" format="2">
	<unicode hex="0054"/>
	<advance width="2082"/>
	<outline>
		<contour>
			<point x="1892" y="1338" type="line"/>
			<point x="192" y="1338" type="line"/>
			<point x="138" y="926" type="line"/>
			<point x="304" y="926" type="line"/>
			<point x="334" y="1150"/>
			<point x="426" y="1204"/>
			<point x="646" y="1204" type="curve" smooth="yes"/>
			<point x="726" y="1204"/>
			<point x="806" y="1204"/>
			<point x="886" y="1204" type="curve"/>
			<point x="886" y="1204"/>
			<point x="886" y="1204"/>
			<point x="886" y="1204" type="curve"/>
			<point x="886" y="134" type="line"/>
			<point x="886" y="134"/>
			<point x="886" y="134"/>
			<point x="886" y="134" type="curve"/>
			<point x="588" y="134" type="line"/>
			<point x="588" y="0" type="line"/>
			<point x="684" y="8"/>
			<point x="934" y="8"/>
			<point x="1042" y="8" type="curve" smooth="yes"/>
			<point x="1150" y="8"/>
			<point x="1400" y="8"/>
			<point x="1496" y="0" type="curve"/>
			<point x="1496" y="134" type="line"/>
			<point x="1198" y="134" type="line"/>
			<point x="1198" y="134"/>
			<point x="1198" y="134"/>
			<point x="1198" y="134" type="curve"/>
			<point x="1198" y="1204" type="line"/>
			<point x="1198" y="1204"/>
			<point x="1198" y="1204"/>
			<point x="1198" y="1204" type="curve"/>
			<point x="1278" y="1204"/>
			<point x="1358" y="1204"/>
			<point x="1438" y="1204" type="curve" smooth="yes"/>
			<point x="1658" y="1204"/>
			<point x="1750" y="1150"/>
			<point x="1780" y="926" type="curve"/>
			<point x="1946" y="926" type="line"/>
		</contour>
	</outline>
</glyph>
<glyph name="U" format="2">
  <advance width="1133"/>
  <unicode hex="0055"/>
  <outline>
    <contour>
      <point x="583" y="50" type="curve" smooth="yes"/>
      <point x="398" y="50"/>
      <point x="354" y="131"/>
      <point x="354" y="231" type="curve" smooth="yes"/>
      <point x="354" y="619" type="line"/>
      <point x="354.0" y="619.0"/>
      <point x="354.0" y="619.0"/>
      <point x="354" y="619" type="curve"/>
      <point x="460" y="619" type="line"/>
      <point x="460" y="686" type="line"/>
      <point x="401" y="683"/>
      <point x="311" y="682"/>
      <point x="276" y="682" type="curve" smooth="yes"/>
      <point x="255" y="682"/>
      <point x="158" y="683"/>
      <point x="92" y="686" type="curve"/>
      <point x="92" y="619" type="line"/>
      <point x="198" y="619" type="line"/>
      <point x="198.0" y="619.0"/>
      <point x="198.0" y="619.0"/>
      <point x="198" y="619" type="curve"/>
      <point x="198" y="232" type="line" smooth="yes"/>
      <point x="198" y="104"/>
      <point x="314" y="-17"/>
      <point x="580" y="-17" type="curve" smooth="yes"/>
      <point x="844" y="-17"/>
      <point x="935" y="116"/>
      <point x="935" y="231" type="curve" smooth="yes"/>
      <point x="935" y="619" type="line"/>
      <point x="935.0" y="619.0"/>
      <point x="935.0" y="619.0"/>
      <point x="935" y="619" type="curve"/>
      <point x="1041" y="619" type="line"/>
      <point x="1041" y="686" type="line"/>
      <point x="1011" y="685"/>
      <point x="953" y="682"/>
      <point x="888" y="682" type="curve" smooth="yes"/>
      <point x="823" y="682"/>
      <point x="768" y="684"/>
      <point x="735" y="686" type="curve"/>
      <point x="735" y="619" type="line"/>
      <point x="841" y="619" type="line"/>
      <point x="841.0" y="619.0"/>
      <point x="841.0" y="619.0"/>
      <point x="841" y="619" type="curve"/>
      <point x="841" y="234" type="line" smooth="yes"/>
      <point x="841" y="93"/>
      <point x="719" y="50"/>
    </contour>
  </outline>
</glyph>
<glyph name="V" format="2">
	<unicode hex="0056"/>
	<advance width="2226"/>
	<outline>
		<contour>
			<point x="1110" y="-34" type="curve" smooth="yes"/>
			<point x="1254" y="-36"/>
			<point x="1268" y="-34"/>
			<point x="1300" y="26" type="curve" smooth="yes"/>
			<point x="1926" y="1238" type="line"/>
			<point x="1926" y="1238"/>
			<point x="1926" y="1238"/>
			<point x="1926" y="1238" type="curve"/>
			<point x="2122" y="1238" type="line"/>
			<point x="2122" y="1372" type="line"/>
			<point x="2036" y="1366"/>
			<point x="1942" y="1364"/>
			<point x="1856" y="1364" type="curve" smooth="yes"/>
			<point x="1738" y="1364"/>
			<point x="1612" y="1370"/>
			<point x="1554" y="1372" type="curve"/>
			<point x="1554" y="1238" type="line"/>
			<point x="1607" y="1238"/>
			<point x="1661" y="1238"/>
			<point x="1714" y="1238" type="curve"/>
			<point x="1714" y="1238"/>
			<point x="1714" y="1238"/>
			<point x="1714" y="1238" type="curve"/>
			<point x="1174" y="192" type="line"/>
			<point x="634" y="1238" type="line"/>
			<point x="634" y="1238"/>
			<point x="634" y="1238"/>
			<point x="634" y="1238" type="curve"/>
			<point x="688" y="1238"/>
			<point x="742" y="1238"/>
			<point x="796" y="1238" type="curve"/>
			<point x="796" y="1372" type="line"/>
			<point x="676" y="1366"/>
			<point x="554" y="1364"/>
			<point x="434" y="1364" type="curve" smooth="yes"/>
			<point x="320" y="1364"/>
			<point x="218" y="1368"/>
			<point x="106" y="1372" type="curve"/>
			<point x="106" y="1238" type="line"/>
			<point x="302" y="1238" type="line"/>
			<point x="302" y="1238"/>
			<point x="302" y="1238"/>
			<point x="302" y="1238" type="curve"/>
			<point x="924" y="32" type="line" smooth="yes"/>
			<point x="958" y="-32"/>
			<point x="968" y="-32"/>
		</contour>
	</outline>
</glyph>
<glyph name="W" format="2">
	<unicode hex="0057"/>
	<advance width="3032"/>
	<outline>
		<contour>
			<point x="1032" y="226" type="line"/>
			<point x="600" y="1238" type="line"/>
			<point x="600" y="1238"/>
			<point x="600" y="1238"/>
			<point x="600" y="1238" type="curve"/>
			<point x="657" y="1238"/>
			<point x="715" y="1238"/>
			<point x="772" y="1238" type="curve"/>
			<point x="772" y="1372" type="line"/>
			<point x="668" y="1368"/>
			<point x="492" y="1364"/>
			<point x="414" y="1364" type="curve" smooth="yes"/>
			<point x="286" y="1364"/>
			<point x="184" y="1368"/>
			<point x="100" y="1372" type="curve"/>
			<point x="100" y="1238" type="line"/>
			<point x="280" y="1238" type="line"/>
			<point x="280" y="1238"/>
			<point x="280" y="1238"/>
			<point x="280" y="1238" type="curve"/>
			<point x="792" y="32" type="line" smooth="yes"/>
			<point x="820" y="-34"/>
			<point x="836" y="-34"/>
			<point x="954" y="-34" type="curve" smooth="yes"/>
			<point x="1080" y="-34"/>
			<point x="1102" y="-34"/>
			<point x="1128" y="26" type="curve" smooth="yes"/>
			<point x="1516" y="942" type="line"/>
			<point x="1906" y="26" type="line" smooth="yes"/>
			<point x="1932" y="-34"/>
			<point x="1952" y="-34"/>
			<point x="2080" y="-34" type="curve" smooth="yes"/>
			<point x="2212" y="-34"/>
			<point x="2216" y="-26"/>
			<point x="2240" y="32" type="curve" smooth="yes"/>
			<point x="2754" y="1238" type="line"/>
			<point x="2754" y="1238"/>
			<point x="2754" y="1238"/>
			<point x="2754" y="1238" type="curve"/>
			<point x="2934" y="1238" type="line"/>
			<point x="2934" y="1372" type="line"/>
			<point x="2856" y="1364"/>
			<point x="2764" y="1364"/>
			<point x="2686" y="1364" type="curve" smooth="yes"/>
			<point x="2596" y="1364"/>
			<point x="2454" y="1370"/>
			<point x="2382" y="1372" type="curve"/>
			<point x="2382" y="1238" type="line"/>
			<point x="2446" y="1238"/>
			<point x="2510" y="1238"/>
			<point x="2574" y="1238" type="curve"/>
			<point x="2574" y="1238"/>
			<point x="2574" y="1238"/>
			<point x="2574" y="1238" type="curve"/>
			<point x="2144" y="226" type="line"/>
			<point x="1712" y="1238" type="line"/>
			<point x="1712" y="1238"/>
			<point x="1712" y="1238"/>
			<point x="1712" y="1238" type="curve"/>
			<point x="1769" y="1238"/>
			<point x="1825" y="1238"/>
			<point x="1882" y="1238" type="curve"/>
			<point x="1882" y="1372" type="line"/>
			<point x="1788" y="1368"/>
			<point x="1652" y="1364"/>
			<point x="1526" y="1364" type="curve" smooth="yes"/>
			<point x="1398" y="1364"/>
			<point x="1296" y="1368"/>
			<point x="1212" y="1372" type="curve"/>
			<point x="1212" y="1238" type="line"/>
			<point x="1390" y="1238" type="line"/>
			<point x="1390" y="1238"/>
			<point x="1390" y="1238"/>
			<point x="1390" y="1238" type="curve"/>
			<point x="1402" y="1210"/>
			<point x="1414" y="1182"/>
			<point x="1426" y="1154" type="curve"/>
		</contour>
	</outline>
</glyph>
<glyph name="X" format="2">
	<unicode hex="0058"/>
	<advance width="1113"/>
	<outline>
		<contour>
			<point x="628" y="380" type="line"/>
			<point x="861" y="619" type="line"/>
			<point x="861" y="619"/>
			<point x="861" y="619"/>
			<point x="861" y="619" type="curve"/>
			<point x="982" y="619" type="line"/>
			<point x="982" y="686" type="line"/>
			<point x="942" y="684"/>
			<point x="890" y="682"/>
			<point x="832" y="682" type="curve" smooth="yes"/>
			<point x="771" y="682"/>
			<point x="707" y="684"/>
			<point x="663" y="686" type="curve"/>
			<point x="663" y="619" type="line"/>
			<point x="685.311" y="619"/>
			<point x="707.622" y="619"/>
			<point x="730" y="619" type="curve"/>
			<point x="730" y="619"/>
			<point x="730" y="619"/>
			<point x="730" y="619" type="curve"/>
			<point x="563" y="447" type="line"/>
			<point x="396" y="619" type="line"/>
			<point x="396" y="619"/>
			<point x="396" y="619"/>
			<point x="396" y="619" type="curve"/>
			<point x="414.315" y="619"/>
			<point x="432.63" y="619"/>
			<point x="451" y="619" type="curve"/>
			<point x="451" y="686" type="line"/>
			<point x="395" y="682"/>
			<point x="319" y="682"/>
			<point x="262" y="682" type="curve" smooth="yes"/>
			<point x="201" y="682"/>
			<point x="152" y="684"/>
			<point x="91" y="686" type="curve"/>
			<point x="91" y="619" type="line"/>
			<point x="202" y="619" type="line"/>
			<point x="202" y="619"/>
			<point x="202" y="619"/>
			<point x="202" y="619" type="curve"/>
			<point x="466" y="347" type="line"/>
			<point x="193" y="67" type="line"/>
			<point x="193" y="67"/>
			<point x="193" y="67"/>
			<point x="193" y="67" type="curve"/>
			<point x="71" y="67" type="line"/>
			<point x="71" y="0" type="line"/>
			<point x="113" y="2"/>
			<point x="160" y="4"/>
			<point x="222" y="4" type="curve" smooth="yes"/>
			<point x="274" y="4"/>
			<point x="346" y="2"/>
			<point x="390" y="0" type="curve"/>
			<point x="390" y="67" type="line"/>
			<point x="368.022" y="67"/>
			<point x="346.044" y="67"/>
			<point x="324" y="67" type="curve"/>
			<point x="324" y="67"/>
			<point x="324" y="67"/>
			<point x="324" y="67" type="curve"/>
			<point x="531" y="280" type="line"/>
			<point x="738" y="67" type="line"/>
			<point x="738" y="67"/>
			<point x="738" y="67"/>
			<point x="738" y="67" type="curve"/>
			<point x="719.685" y="67"/>
			<point x="701.37" y="67"/>
			<point x="683" y="67" type="curve"/>
			<point x="683" y="0" type="line"/>
			<point x="739" y="4"/>
			<point x="815" y="4"/>
			<point x="872" y="4" type="curve" smooth="yes"/>
			<point x="929" y="4"/>
			<point x="981" y="2"/>
			<point x="1043" y="0" type="curve"/>
			<point x="1043" y="67" type="line"/>
			<point x="933" y="67" type="line"/>
			<point x="933" y="67"/>
			<point x="933" y="67"/>
			<point x="933" y="67" type="curve"/>
		</contour>
	</outline>
</glyph>
<glyph name="Y" format="2">
	<unicode hex="0059"/>
	<advance width="2226"/>
	<outline>
		<contour>
			<point x="966" y="548" type="line"/>
			<point x="966" y="134" type="line"/>
			<point x="966" y="134"/>
			<point x="966" y="134"/>
			<point x="966" y="134" type="curve"/>
			<point x="754" y="134" type="line"/>
			<point x="754" y="0" type="line"/>
			<point x="830" y="4"/>
			<point x="964" y="8"/>
			<point x="1114" y="8" type="curve" smooth="yes"/>
			<point x="1266" y="8"/>
			<point x="1386" y="4"/>
			<point x="1472" y="0" type="curve"/>
			<point x="1472" y="134" type="line"/>
			<point x="1262" y="134" type="line"/>
			<point x="1262" y="134"/>
			<point x="1262" y="134"/>
			<point x="1262" y="134" type="curve"/>
			<point x="1262" y="550" type="line"/>
			<point x="1902" y="1238" type="line"/>
			<point x="1902" y="1238"/>
			<point x="1902" y="1238"/>
			<point x="1902" y="1238" type="curve"/>
			<point x="2122" y="1238" type="line"/>
			<point x="2122" y="1372" type="line"/>
			<point x="2030" y="1366"/>
			<point x="1936" y="1364"/>
			<point x="1844" y="1364" type="curve" smooth="yes"/>
			<point x="1740" y="1364"/>
			<point x="1606" y="1370"/>
			<point x="1532" y="1372" type="curve"/>
			<point x="1532" y="1238" type="line"/>
			<point x="1570" y="1238"/>
			<point x="1608" y="1238"/>
			<point x="1646" y="1238" type="curve"/>
			<point x="1646" y="1238"/>
			<point x="1646" y="1238"/>
			<point x="1646" y="1238" type="curve"/>
			<point x="1188" y="744" type="line"/>
			<point x="728" y="1238" type="line"/>
			<point x="728" y="1238"/>
			<point x="728" y="1238"/>
			<point x="728" y="1238" type="curve"/>
			<point x="767" y="1238"/>
			<point x="805" y="1238"/>
			<point x="844" y="1238" type="curve"/>
			<point x="844" y="1372" type="line"/>
			<point x="732" y="1364"/>
			<point x="572" y="1364"/>
			<point x="458" y="1364" type="curve" smooth="yes"/>
			<point x="330" y="1364"/>
			<point x="226" y="1368"/>
			<point x="106" y="1372" type="curve"/>
			<point x="106" y="1238" type="line"/>
			<point x="326" y="1238" type="line"/>
			<point x="326" y="1238"/>
			<point x="326" y="1238"/>
			<point x="326" y="1238" type="curve"/>
		</contour>
	</outline>
</glyph>
<glyph name="Z" format="2">
	<unicode hex="005A"/>
	<advance width="1838"/>
	<outline>
		<contour>
			<point x="272" y="0" type="curve" smooth="yes"/>
			<point x="1614" y="0" type="line"/>
			<point x="1660" y="480" type="line"/>
			<point x="1494" y="480" type="line"/>
			<point x="1460" y="156"/>
			<point x="1164" y="146"/>
			<point x="994" y="146" type="curve" smooth="yes"/>
			<point x="620" y="146" type="line"/>
			<point x="1616" y="1236" type="line" smooth="yes"/>
			<point x="1642" y="1262"/>
			<point x="1642" y="1266"/>
			<point x="1642" y="1302" type="curve" smooth="yes"/>
			<point x="1642" y="1370"/>
			<point x="1614" y="1372"/>
			<point x="1566" y="1372" type="curve" smooth="yes"/>
			<point x="268" y="1372" type="line"/>
			<point x="236" y="960" type="line"/>
			<point x="402" y="960" type="line"/>
			<point x="430" y="1238"/>
			<point x="792" y="1238"/>
			<point x="876" y="1238" type="curve" smooth="yes"/>
			<point x="1222" y="1238" type="line"/>
			<point x="222" y="144" type="line" smooth="yes"/>
			<point x="196" y="118"/>
			<point x="196" y="114"/>
			<point x="196" y="74" type="curve" smooth="yes"/>
			<point x="196" y="10"/>
			<point x="212" y="0"/>
		</contour>
	</outline>
</glyph>
<glyph name="bracketleft" format="2">
	<unicode hex="005B"/>
	<advance width="876"/>
	<outline>
		<contour>
			<point x="780" y="1328" type="line"/>
			<point x="780" y="1500" type="line"/>
			<point x="348" y="1500" type="line"/>
			<point x="348" y="-500" type="line"/>
			<point x="780" y="-500" type="line"/>
			<point x="780" y="-328" type="line"/>
			<point x="520" y="-328" type="line"/>
			<point x="520" y="1328" type="line"/>
		</contour>
	</outline>
</glyph>
<glyph name="bracketright" format="2">
	<unicode hex="005D"/>
	<advance width="876"/>
	<outline>
		<contour>
			<point x="530" y="1500" type="line"/>
			<point x="98" y="1500" type="line"/>
			<point x="98" y="1328" type="line"/>
			<point x="358" y="1328" type="line"/>
			<point x="358" y="-328" type="line"/>
			<point x="98" y="-328" type="line"/>
			<point x="98" y="-500" type="line"/>
			<point x="530" y="-500" type="line"/>
		</contour>
	</outline>
</glyph>
<glyph name="grave" format="2">
  <advance width="758"/>
  <unicode hex="0060"/>
  <outline>
    <contour>
      <point x="406" y="506" type="line"/>
      <point x="441" y="582" type="line"/>
      <point x="277" y="685" type="line"/>
      <point x="270" y="690"/>
      <point x="253" y="700"/>
      <point x="235" y="700" type="curve" smooth="yes"/>
      <point x="197" y="700"/>
      <point x="169" y="664"/>
      <point x="169" y="628" type="curve" smooth="yes"/>
      <point x="169" y="583"/>
      <point x="206" y="571"/>
      <point x="222" y="566" type="curve" smooth="yes"/>
    </contour>
  </outline>
</glyph>
<glyph name="a" format="2">
	<unicode hex="0061"/>
	<advance width="1476"/>
	<outline>
		<contour>
			<point x="126" y="240" type="curve" smooth="yes"/>
			<point x="126" y="-16"/>
			<point x="512" y="-16"/>
			<point x="590" y="-16" type="curve" smooth="yes"/>
			<point x="788" y="-16"/>
			<point x="934" y="30"/>
			<point x="1000" y="126" type="curve"/>
			<point x="1022" y="58"/>
			<point x="1110" y="-12"/>
			<point x="1274" y="-12" type="curve" smooth="yes"/>
			<point x="1394" y="-12"/>
			<point x="1536" y="20"/>
			<point x="1536" y="198" type="curve" smooth="yes"/>
			<point x="1536" y="310" type="line"/>
			<point x="1422" y="310" type="line"/>
			<point x="1422" y="198" type="line" smooth="yes"/>
			<point x="1422" y="108"/>
			<point x="1354" y="96"/>
			<point x="1322" y="96" type="curve" smooth="yes"/>
			<point x="1224" y="96"/>
			<point x="1212" y="150"/>
			<point x="1212" y="186" type="curve" smooth="yes"/>
			<point x="1212" y="580" type="line" smooth="yes"/>
			<point x="1212" y="672"/>
			<point x="1171" y="767"/>
			<point x="1055" y="832" type="curve" smooth="yes"/>
			<point x="969" y="881"/>
			<point x="842" y="912"/>
			<point x="660" y="912" type="curve" smooth="yes"/>
			<point x="518" y="912"/>
			<point x="222" y="912"/>
			<point x="222" y="696" type="curve" smooth="yes"/>
			<point x="222" y="600"/>
			<point x="292" y="544"/>
			<point x="372" y="544" type="curve" smooth="yes"/>
			<point x="460" y="544"/>
			<point x="522" y="608"/>
			<point x="522" y="694" type="curve" smooth="yes"/>
			<point x="522" y="728"/>
			<point x="512" y="760"/>
			<point x="494" y="784" type="curve"/>
			<point x="568" y="800"/>
			<point x="628" y="800"/>
			<point x="662" y="800" type="curve" smooth="yes"/>
			<point x="842" y="800"/>
			<point x="946" y="732"/>
			<point x="946" y="574" type="curve" smooth="yes"/>
			<point x="946" y="536" type="line"/>
			<point x="920" y="534"/>
			<point x="714" y="538"/>
			<point x="516" y="502" type="curve" smooth="yes"/>
			<point x="278" y="458"/>
			<point x="126" y="388"/>
		</contour>
		<contour>
			<point x="392" y="242" type="curve" smooth="yes"/>
			<point x="392" y="420"/>
			<point x="850" y="436"/>
			<point x="946" y="440" type="curve"/>
			<point x="946" y="266" type="line" smooth="yes"/>
			<point x="946" y="218"/>
			<point x="946" y="166"/>
			<point x="844" y="128" type="curve" smooth="yes"/>
			<point x="762" y="96"/>
			<point x="656" y="96"/>
			<point x="644" y="96" type="curve" smooth="yes"/>
			<point x="502" y="96"/>
			<point x="392" y="150"/>
		</contour>
	</outline>
</glyph>
<glyph name="b" format="2">
	<unicode hex="0062"/>
	<advance width="1676"/>
	<outline>
		<contour>
			<point x="312" y="0" type="line"/>
			<point x="478" y="0" type="line"/>
			<point x="497" y="35"/>
			<point x="515" y="69"/>
			<point x="534" y="104" type="curve"/>
			<point x="674" y="4"/>
			<point x="818" y="-16"/>
			<point x="920" y="-16" type="curve" smooth="yes"/>
			<point x="1338" y="-16"/>
			<point x="1548" y="200"/>
			<point x="1548" y="446" type="curve" smooth="yes"/>
			<point x="1548" y="664"/>
			<point x="1378" y="904"/>
			<point x="952" y="904" type="curve" smooth="yes"/>
			<point x="758" y="904"/>
			<point x="624" y="850"/>
			<point x="562" y="818" type="curve"/>
			<point x="562" y="1388" type="line"/>
			<point x="168" y="1372" type="line"/>
			<point x="168" y="1238" type="line"/>
			<point x="296" y="1238"/>
			<point x="312" y="1238"/>
			<point x="312" y="1160" type="curve" smooth="yes"/>
		</contour>
		<contour>
			<point x="892" y="96" type="curve" smooth="yes"/>
			<point x="722" y="96"/>
			<point x="624" y="194"/>
			<point x="578" y="258" type="curve"/>
			<point x="578" y="258"/>
			<point x="578" y="258"/>
			<point x="578" y="258" type="curve"/>
			<point x="578" y="622" type="line" smooth="yes"/>
			<point x="578" y="662"/>
			<point x="578" y="664"/>
			<point x="616" y="694" type="curve" smooth="yes"/>
			<point x="712" y="772"/>
			<point x="836" y="792"/>
			<point x="920" y="792" type="curve" smooth="yes"/>
			<point x="1044" y="792"/>
			<point x="1121" y="758"/>
			<point x="1169" y="710" type="curve" smooth="yes"/>
			<point x="1248" y="632"/>
			<point x="1248" y="515"/>
			<point x="1248" y="448" type="curve" smooth="yes"/>
			<point x="1248" y="382"/>
			<point x="1248" y="265"/>
			<point x="1166" y="184" type="curve" smooth="yes"/>
			<point x="1115" y="133"/>
			<point x="1030" y="96"/>
		</contour>
	</outline>
</glyph>
<glyph name="c" format="2">
	<unicode hex="0063"/>
	<advance width="1354"/>
	<outline>
		<contour>
			<point x="430" y="450" type="curve" smooth="yes"/>
			<point x="430" y="702"/>
			<point x="556" y="788"/>
			<point x="780" y="788" type="curve" smooth="yes"/>
			<point x="868" y="788"/>
			<point x="912" y="782"/>
			<point x="932" y="778" type="curve"/>
			<point x="916" y="754"/>
			<point x="910" y="724"/>
			<point x="910" y="694" type="curve" smooth="yes"/>
			<point x="910" y="608"/>
			<point x="974" y="544"/>
			<point x="1060" y="544" type="curve" smooth="yes"/>
			<point x="1142" y="544"/>
			<point x="1210" y="602"/>
			<point x="1210" y="696" type="curve" smooth="yes"/>
			<point x="1210" y="912"/>
			<point x="912" y="912"/>
			<point x="776" y="912" type="curve" smooth="yes"/>
			<point x="226" y="912"/>
			<point x="130" y="596"/>
			<point x="130" y="444" type="curve" smooth="yes"/>
			<point x="130" y="240"/>
			<point x="288" y="-16"/>
			<point x="760" y="-16" type="curve" smooth="yes"/>
			<point x="1160" y="-16"/>
			<point x="1242" y="172"/>
			<point x="1242" y="220" type="curve" smooth="yes"/>
			<point x="1242" y="264"/>
			<point x="1204" y="264"/>
			<point x="1158" y="264" type="curve" smooth="yes"/>
			<point x="1100" y="264"/>
			<point x="1094" y="264"/>
			<point x="1076" y="232" type="curve" smooth="yes"/>
			<point x="1048" y="178"/>
			<point x="992" y="108"/>
			<point x="822" y="108" type="curve" smooth="yes"/>
			<point x="630" y="108"/>
			<point x="430" y="182"/>
		</contour>
	</outline>
</glyph>
<glyph name="d" format="2">
	<unicode hex="0064"/>
	<advance width="1676"/>
	<outline>
		<contour>
			<point x="1100" y="82" type="curve"/>
			<point x="1100" y="-16" type="line"/>
			<point x="1510" y="0" type="line"/>
			<point x="1510" y="134" type="line"/>
			<point x="1382" y="134"/>
			<point x="1366" y="134"/>
			<point x="1366" y="212" type="curve" smooth="yes"/>
			<point x="1366" y="1388" type="line"/>
			<point x="972" y="1372" type="line"/>
			<point x="972" y="1238" type="line"/>
			<point x="1100" y="1238"/>
			<point x="1116" y="1238"/>
			<point x="1116" y="1160" type="curve" smooth="yes"/>
			<point x="1116" y="822" type="line"/>
			<point x="1036" y="864"/>
			<point x="914" y="904"/>
			<point x="756" y="904" type="curve" smooth="yes"/>
			<point x="328" y="904"/>
			<point x="130" y="680"/>
			<point x="130" y="442" type="curve" smooth="yes"/>
			<point x="130" y="224"/>
			<point x="304" y="-16"/>
			<point x="728" y="-16" type="curve" smooth="yes"/>
			<point x="882" y="-16"/>
			<point x="1008" y="26"/>
		</contour>
		<contour>
			<point x="430" y="440" type="curve" smooth="yes"/>
			<point x="430" y="506"/>
			<point x="430" y="622"/>
			<point x="510" y="702" type="curve" smooth="yes"/>
			<point x="562" y="754"/>
			<point x="646" y="792"/>
			<point x="786" y="792" type="curve" smooth="yes"/>
			<point x="874" y="792"/>
			<point x="974" y="770"/>
			<point x="1058" y="702" type="curve" smooth="yes"/>
			<point x="1100" y="668"/>
			<point x="1100" y="666"/>
			<point x="1100" y="626" type="curve" smooth="yes"/>
			<point x="1100" y="264" type="line"/>
			<point x="1100" y="264"/>
			<point x="1100" y="264"/>
			<point x="1100" y="264" type="curve"/>
			<point x="1000" y="136"/>
			<point x="870" y="96"/>
			<point x="756" y="96" type="curve" smooth="yes"/>
			<point x="634" y="96"/>
			<point x="558" y="130"/>
			<point x="510" y="176" type="curve" smooth="yes"/>
			<point x="430" y="256"/>
			<point x="430" y="374"/>
		</contour>
	</outline>
</glyph>
<glyph name="f" format="2">
  <advance width="476"/>
  <unicode hex="0066"/>
  <outline>
    <contour>
      <point x="173" y="67" type="line"/>
      <point x="149.024" y="67.0"/>
      <point x="125.048" y="67.0"/>
      <point x="101" y="67" type="curve"/>
      <point x="101" y="67" type="line"/>
      <point x="101" y="0" type="line"/>
      <point x="147" y="3"/>
      <point x="193" y="4"/>
      <point x="239" y="4" type="curve" smooth="yes"/>
      <point x="295" y="4"/>
      <point x="353" y="2"/>
      <point x="388" y="0" type="curve"/>
      <point x="388" y="67" type="line"/>
      <point x="388" y="67" type="line"/>
      <point x="358.03" y="67.0"/>
      <point x="328.06" y="67.0"/>
      <point x="298" y="67" type="curve"/>
      <point x="298" y="377" type="line"/>
      <point x="449" y="377" type="line"/>
      <point x="449" y="444" type="line"/>
      <point x="290" y="444" type="line"/>
      <point x="290" y="533" type="line" smooth="yes"/>
      <point x="290" y="616"/>
      <point x="349" y="646"/>
      <point x="414" y="646" type="curve" smooth="yes"/>
      <point x="426" y="646"/>
      <point x="426" y="645"/>
      <point x="426" y="643" type="curve"/>
      <point x="423" y="636"/>
      <point x="416" y="622"/>
      <point x="416" y="603" type="curve" smooth="yes"/>
      <point x="416" y="552"/>
      <point x="457" y="529"/>
      <point x="489" y="529" type="curve" smooth="yes"/>
      <point x="526" y="529"/>
      <point x="563" y="555"/>
      <point x="563" y="603" type="curve" smooth="yes"/>
      <point x="563" y="652"/>
      <point x="520" y="702"/>
      <point x="425" y="702" type="curve" smooth="yes"/>
      <point x="290" y="702"/>
      <point x="173" y="649"/>
      <point x="173" y="535" type="curve" smooth="yes"/>
      <point x="173" y="444" type="line"/>
      <point x="73" y="444" type="line"/>
      <point x="73" y="377" type="line"/>
      <point x="173" y="377" type="line"/>
    </contour>
  </outline>
</glyph>
<glyph name="g" format="2">
	<unicode hex="0067"/>
	<advance width="758"/>
	<outline>
		<contour>
			<point x="379" y="-203" type="curve" smooth="yes"/>
			<point x="526" y="-203"/>
			<point x="701" y="-174"/>
			<point x="701" y="-69" type="curve" smooth="yes"/>
			<point x="701" y="-39"/>
			<point x="690" y="34"/>
			<point x="591" y="68" type="curve" smooth="yes"/>
			<point x="522" y="91"/>
			<point x="460" y="91"/>
			<point x="349" y="91" type="curve" smooth="yes"/>
			<point x="318.697" y="91"/>
			<point x="288.394" y="91"/>
			<point x="258" y="91" type="curve" smooth="yes"/>
			<point x="203" y="91"/>
			<point x="188" y="129"/>
			<point x="188" y="151" type="curve" smooth="yes"/>
			<point x="188" y="163"/>
			<point x="189" y="165"/>
			<point x="192" y="171" type="curve"/>
			<point x="238" y="150"/>
			<point x="295" y="145"/>
			<point x="338" y="145" type="curve" smooth="yes"/>
			<point x="530" y="145"/>
			<point x="582" y="238"/>
			<point x="582" y="298" type="curve" smooth="yes"/>
			<point x="582" y="349"/>
			<point x="549" y="383"/>
			<point x="542" y="389" type="curve"/>
			<point x="562" y="396"/>
			<point x="591" y="402"/>
			<point x="608" y="404" type="curve"/>
			<point x="604" y="393"/>
			<point x="604" y="391"/>
			<point x="604" y="383" type="curve" smooth="yes"/>
			<point x="604" y="346"/>
			<point x="633" y="324"/>
			<point x="663" y="324" type="curve" smooth="yes"/>
			<point x="687" y="324"/>
			<point x="721" y="342"/>
			<point x="721" y="383" type="curve" smooth="yes"/>
			<point x="721" y="420"/>
			<point x="690" y="461"/>
			<point x="631" y="461" type="curve" smooth="yes"/>
			<point x="607" y="461"/>
			<point x="554" y="456"/>
			<point x="498" y="420" type="curve"/>
			<point x="441" y="450"/>
			<point x="375" y="452"/>
			<point x="339" y="452" type="curve" smooth="yes"/>
			<point x="147" y="452"/>
			<point x="95" y="359"/>
			<point x="95" y="299" type="curve" smooth="yes"/>
			<point x="95" y="242"/>
			<point x="132" y="211"/>
			<point x="150" y="195" type="curve"/>
			<point x="134" y="175"/>
			<point x="121" y="147"/>
			<point x="121" y="112" type="curve" smooth="yes"/>
			<point x="121" y="71"/>
			<point x="137" y="40"/>
			<point x="158" y="17" type="curve"/>
			<point x="110" y="5"/>
			<point x="57" y="-20"/>
			<point x="57" y="-72" type="curve" smooth="yes"/>
			<point x="57" y="-145"/>
			<point x="160" y="-203"/>
		</contour>
		<contour>
			<point x="339" y="201" type="curve" smooth="yes"/>
			<point x="229" y="201"/>
			<point x="220" y="253"/>
			<point x="220" y="298" type="curve" smooth="yes"/>
			<point x="220" y="321.86428"/>
			<point x="222.0591565183" y="348.670212169"/>
			<point x="241.6534692578" y="368.2068276308" type="curve" smooth="yes"/>
			<point x="258.1863625576" y="384.6910382874"/>
			<point x="287.20307" y="396"/>
			<point x="338" y="396" type="curve" smooth="yes"/>
			<point x="448" y="396"/>
			<point x="457" y="344"/>
			<point x="457" y="299" type="curve" smooth="yes"/>
			<point x="457" y="275.13572"/>
			<point x="454.9408434817" y="248.329787831"/>
			<point x="435.3465307422" y="228.7931723692" type="curve" smooth="yes"/>
			<point x="418.8136374424" y="212.3089617126"/>
			<point x="389.79693" y="201"/>
		</contour>
		<contour>
			<point x="379" y="-147" type="curve" smooth="yes"/>
			<point x="225" y="-147"/>
			<point x="162" y="-105"/>
			<point x="162" y="-71" type="curve" smooth="yes"/>
			<point x="162" y="-55.33349"/>
			<point x="171.2220377787" y="-44.8890977783"/>
			<point x="184.8884788902" y="-37.9261348159" type="curve" smooth="yes"/>
			<point x="212.2217711106" y="-24"/>
			<point x="257.33321" y="-24"/>
			<point x="282" y="-24" type="curve" smooth="yes"/>
			<point x="339" y="-24" type="line" smooth="yes"/>
			<point x="452" y="-24"/>
			<point x="596" y="-24"/>
			<point x="596" y="-71" type="curve" smooth="yes"/>
			<point x="596" y="-105"/>
			<point x="533" y="-147"/>
		</contour>
	</outline>
</glyph>
<glyph name="h" format="2">
	<unicode hex="0068"/>
	<advance width="838"/>
	<outline>
		<contour>
			<point x="169" y="67" type="line"/>
			<point x="145.024" y="67"/>
			<point x="121.048" y="67"/>
			<point x="97" y="67" type="curve"/>
			<point x="97" y="67" type="line"/>
			<point x="97" y="0" type="line"/>
			<point x="138" y="2"/>
			<point x="196" y="4"/>
			<point x="236" y="4" type="curve" smooth="yes"/>
			<point x="273" y="4"/>
			<point x="330" y="3"/>
			<point x="374" y="0" type="curve"/>
			<point x="374" y="67" type="line"/>
			<point x="374" y="67" type="line"/>
			<point x="350.024" y="67"/>
			<point x="326.048" y="67"/>
			<point x="302" y="67" type="curve"/>
			<point x="302" y="242" type="line" smooth="yes"/>
			<point x="302" y="364"/>
			<point x="425" y="396"/>
			<point x="487" y="396" type="curve" smooth="yes"/>
			<point x="551" y="396"/>
			<point x="571" y="370"/>
			<point x="571" y="298" type="curve" smooth="yes"/>
			<point x="571" y="67" type="line"/>
			<point x="547.024" y="67"/>
			<point x="523.048" y="67"/>
			<point x="499" y="67" type="curve"/>
			<point x="499" y="67" type="line"/>
			<point x="499" y="0" type="line"/>
			<point x="540" y="2"/>
			<point x="598" y="4"/>
			<point x="638" y="4" type="curve" smooth="yes"/>
			<point x="675" y="4"/>
			<point x="732" y="3"/>
			<point x="776" y="0" type="curve"/>
			<point x="776" y="67" type="line"/>
			<point x="776" y="67" type="line"/>
			<point x="752.024" y="67"/>
			<point x="728.048" y="67"/>
			<point x="704" y="67" type="curve"/>
			<point x="704" y="295" type="line" smooth="yes"/>
			<point x="704" y="348"/>
			<point x="688" y="384"/>
			<point x="665" y="407" type="curve" smooth="yes"/>
			<point x="623" y="448"/>
			<point x="557" y="452"/>
			<point x="510" y="452" type="curve" smooth="yes"/>
			<point x="412" y="452"/>
			<point x="341" y="417"/>
			<point x="294" y="358" type="curve"/>
			<point x="294" y="358" type="line"/>
			<point x="294" y="694" type="line"/>
			<point x="97" y="686" type="line"/>
			<point x="97" y="619" type="line"/>
			<point x="161" y="619"/>
			<point x="169" y="619"/>
			<point x="169" y="580" type="curve" smooth="yes"/>
		</contour>
	</outline>
</glyph>
<glyph name="i" format="2">
	<unicode hex="0069"/>
	<advance width="872"/>
	<outline>
		<contour>
			<point x="346" y="134" type="line"/>
			<point x="298" y="134"/>
			<point x="250" y="134"/>
			<point x="202" y="134" type="curve"/>
			<point x="202" y="134" type="line"/>
			<point x="202" y="0" type="line"/>
			<point x="290" y="6"/>
			<point x="380" y="8"/>
			<point x="468" y="8" type="curve" smooth="yes"/>
			<point x="554" y="8"/>
			<point x="640" y="6"/>
			<point x="726" y="0" type="curve"/>
			<point x="726" y="134" type="line"/>
			<point x="683" y="134"/>
			<point x="639" y="134"/>
			<point x="596" y="134" type="curve"/>
			<point x="596" y="904" type="line"/>
			<point x="208" y="888" type="line"/>
			<point x="208" y="754" type="line"/>
			<point x="332" y="754"/>
			<point x="346" y="754"/>
			<point x="346" y="676" type="curve" smooth="yes"/>
		</contour>
		<contour>
			<point x="614" y="1218" type="curve" smooth="yes"/>
			<point x="614" y="1316"/>
			<point x="534" y="1390"/>
			<point x="442" y="1390" type="curve" smooth="yes"/>
			<point x="348" y="1390"/>
			<point x="270" y="1312"/>
			<point x="270" y="1218" type="curve" smooth="yes"/>
			<point x="270" y="1124"/>
			<point x="346" y="1046"/>
			<point x="442" y="1046" type="curve" smooth="yes"/>
			<point x="534" y="1046"/>
			<point x="614" y="1120"/>
		</contour>
	</outline>
</glyph>
<glyph name="j" format="2">
	<unicode hex="006A"/>
	<advance width="952"/>
	<outline>
		<contour>
			<point x="458" y="674" type="curve" smooth="yes"/>
			<point x="458" y="-64" type="line" smooth="yes"/>
			<point x="458" y="-220"/>
			<point x="364" y="-292"/>
			<point x="272" y="-292" type="curve" smooth="yes"/>
			<point x="262" y="-292"/>
			<point x="196" y="-288"/>
			<point x="196" y="-280" type="curve"/>
			<point x="202" y="-266"/>
			<point x="220" y="-240"/>
			<point x="220" y="-192" type="curve" smooth="yes"/>
			<point x="220" y="-104"/>
			<point x="156" y="-42"/>
			<point x="70" y="-42" type="curve" smooth="yes"/>
			<point x="-18" y="-42"/>
			<point x="-80" y="-106"/>
			<point x="-80" y="-192" type="curve" smooth="yes"/>
			<point x="-80" y="-334"/>
			<point x="66" y="-404"/>
			<point x="262" y="-404" type="curve" smooth="yes"/>
			<point x="472" y="-404"/>
			<point x="708" y="-306"/>
			<point x="708" y="-70" type="curve" smooth="yes"/>
			<point x="708" y="904" type="line"/>
			<point x="300" y="888" type="line"/>
			<point x="300" y="754" type="line"/>
			<point x="452" y="754"/>
			<point x="458" y="745"/>
		</contour>
		<contour>
			<point x="708" y="1218" type="curve" smooth="yes"/>
			<point x="708" y="1312"/>
			<point x="630" y="1390"/>
			<point x="536" y="1390" type="curve" smooth="yes"/>
			<point x="442" y="1390"/>
			<point x="364" y="1312"/>
			<point x="364" y="1218" type="curve" smooth="yes"/>
			<point x="364" y="1124"/>
			<point x="442" y="1046"/>
			<point x="536" y="1046" type="curve" smooth="yes"/>
			<point x="630" y="1046"/>
			<point x="708" y="1124"/>
		</contour>
	</outline>
</glyph>
<glyph name="k" format="2">
  <advance width="798"/>
  <unicode hex="006B"/>
  <outline>
    <contour>
      <point x="465" y="265" type="line"/>
      <point x="638" y="377" type="line"/>
      <point x="666.971" y="377.0"/>
      <point x="695.942" y="377.0"/>
      <point x="725" y="377" type="curve"/>
      <point x="725" y="444" type="line"/>
      <point x="687" y="441"/>
      <point x="660" y="440"/>
      <point x="617" y="440" type="curve" smooth="yes"/>
      <point x="574" y="440"/>
      <point x="506" y="443"/>
      <point x="470" y="444" type="curve"/>
      <point x="470" y="377" type="line"/>
      <point x="474.995" y="377.0"/>
      <point x="479.99" y="377.0"/>
      <point x="485" y="377" type="curve"/>
      <point x="485.0" y="377.0"/>
      <point x="485.0" y="377.0"/>
      <point x="485" y="377" type="curve"/>
      <point x="281" y="245" type="line"/>
      <point x="281" y="694" type="line"/>
      <point x="84" y="686" type="line"/>
      <point x="84" y="619" type="line"/>
      <point x="148" y="619"/>
      <point x="156" y="619"/>
      <point x="156" y="580" type="curve" smooth="yes"/>
      <point x="156" y="67" type="line"/>
      <point x="156.0" y="67.0"/>
      <point x="156.0" y="67.0"/>
      <point x="156" y="67" type="curve"/>
      <point x="84" y="67" type="line"/>
      <point x="84" y="0" type="line"/>
      <point x="135" y="3"/>
      <point x="211" y="4"/>
      <point x="214" y="4" type="curve" smooth="yes"/>
      <point x="257" y="4"/>
      <point x="301" y="3"/>
      <point x="344" y="0" type="curve"/>
      <point x="344" y="67" type="line"/>
      <point x="272" y="67" type="line"/>
      <point x="272.0" y="67.0"/>
      <point x="272.0" y="67.0"/>
      <point x="272" y="67" type="curve"/>
      <point x="272" y="141" type="line"/>
      <point x="304.967" y="162.312"/>
      <point x="337.93399999999997" y="183.624"/>
      <point x="371" y="205" type="curve"/>
      <point x="521" y="67" type="line"/>
      <point x="521.0" y="67.0"/>
      <point x="521.0" y="67.0"/>
      <point x="521" y="67" type="curve"/>
      <point x="516.005" y="67.0"/>
      <point x="511.01" y="67.0"/>
      <point x="506" y="67" type="curve"/>
      <point x="506" y="0" type="line"/>
      <point x="553" y="3"/>
      <point x="618" y="4"/>
      <point x="641" y="4" type="curve" smooth="yes"/>
      <point x="684" y="4"/>
      <point x="713" y="4"/>
      <point x="757" y="0" type="curve"/>
      <point x="757" y="67" type="line"/>
      <point x="731.359" y="67.0"/>
      <point x="705.718" y="67.0"/>
      <point x="680" y="67" type="curve"/>
    </contour>
  </outline>
</glyph>
<glyph name="l" format="2">
	<unicode hex="006C"/>
	<advance width="872"/>
	<outline>
		<contour>
			<point x="596" y="1388" type="line"/>
			<point x="202" y="1372" type="line"/>
			<point x="202" y="1238" type="line"/>
			<point x="330" y="1238"/>
			<point x="346" y="1238"/>
			<point x="346" y="1160" type="curve" smooth="yes"/>
			<point x="346" y="134" type="line"/>
			<point x="298" y="134"/>
			<point x="250" y="134"/>
			<point x="202" y="134" type="curve"/>
			<point x="202" y="134" type="line"/>
			<point x="202" y="0" type="line"/>
			<point x="292" y="6"/>
			<point x="380" y="8"/>
			<point x="470" y="8" type="curve" smooth="yes"/>
			<point x="478" y="8"/>
			<point x="634" y="8"/>
			<point x="740" y="0" type="curve"/>
			<point x="740" y="134" type="line"/>
			<point x="740" y="134" type="line"/>
			<point x="692" y="134"/>
			<point x="644" y="134"/>
			<point x="596" y="134" type="curve"/>
		</contour>
	</outline>
</glyph>
<glyph name="m" format="2">
	<unicode hex="006D"/>
	<advance width="2482"/>
	<outline>
		<contour>
			<point x="338" y="134" type="line"/>
			<point x="290" y="134"/>
			<point x="242" y="134"/>
			<point x="194" y="134" type="curve"/>
			<point x="194" y="134" type="line"/>
			<point x="194" y="0" type="line"/>
			<point x="276" y="4"/>
			<point x="392" y="8"/>
			<point x="472" y="8" type="curve" smooth="yes"/>
			<point x="546" y="8"/>
			<point x="660" y="6"/>
			<point x="748" y="0" type="curve"/>
			<point x="748" y="134" type="line"/>
			<point x="748" y="134" type="line"/>
			<point x="700" y="134"/>
			<point x="652" y="134"/>
			<point x="604" y="134" type="curve"/>
			<point x="604" y="484" type="line" smooth="yes"/>
			<point x="604" y="728"/>
			<point x="854" y="792"/>
			<point x="974" y="792" type="curve" smooth="yes"/>
			<point x="1102" y="792"/>
			<point x="1144" y="744"/>
			<point x="1144" y="594" type="curve" smooth="yes"/>
			<point x="1144" y="134" type="line"/>
			<point x="1096" y="134"/>
			<point x="1048" y="134"/>
			<point x="1000" y="134" type="curve"/>
			<point x="1000" y="134" type="line"/>
			<point x="1000" y="0" type="line"/>
			<point x="1082" y="4"/>
			<point x="1198" y="8"/>
			<point x="1278" y="8" type="curve" smooth="yes"/>
			<point x="1352" y="8"/>
			<point x="1466" y="6"/>
			<point x="1554" y="0" type="curve"/>
			<point x="1554" y="134" type="line"/>
			<point x="1554" y="134" type="line"/>
			<point x="1506" y="134"/>
			<point x="1458" y="134"/>
			<point x="1410" y="134" type="curve"/>
			<point x="1410" y="484" type="line" smooth="yes"/>
			<point x="1410" y="728"/>
			<point x="1660" y="792"/>
			<point x="1780" y="792" type="curve" smooth="yes"/>
			<point x="1908" y="792"/>
			<point x="1950" y="744"/>
			<point x="1950" y="594" type="curve" smooth="yes"/>
			<point x="1950" y="134" type="line"/>
			<point x="1902" y="134"/>
			<point x="1854" y="134"/>
			<point x="1806" y="134" type="curve"/>
			<point x="1806" y="134" type="line"/>
			<point x="1806" y="0" type="line"/>
			<point x="1888" y="4"/>
			<point x="2004" y="8"/>
			<point x="2084" y="8" type="curve" smooth="yes"/>
			<point x="2158" y="8"/>
			<point x="2272" y="6"/>
			<point x="2360" y="0" type="curve"/>
			<point x="2360" y="134" type="line"/>
			<point x="2360" y="134" type="line"/>
			<point x="2312" y="134"/>
			<point x="2264" y="134"/>
			<point x="2216" y="134" type="curve"/>
			<point x="2216" y="590" type="line" smooth="yes"/>
			<point x="2216" y="696"/>
			<point x="2186" y="766"/>
			<point x="2138" y="812" type="curve" smooth="yes"/>
			<point x="2056" y="896"/>
			<point x="1926" y="904"/>
			<point x="1828" y="904" type="curve" smooth="yes"/>
			<point x="1700" y="904"/>
			<point x="1526" y="878"/>
			<point x="1394" y="714" type="curve"/>
			<point x="1338" y="858"/>
			<point x="1220" y="904"/>
			<point x="1022" y="904" type="curve" smooth="yes"/>
			<point x="744" y="904"/>
			<point x="616" y="760"/>
			<point x="570" y="690" type="curve"/>
			<point x="570" y="690" type="line"/>
			<point x="570" y="904" type="line"/>
			<point x="194" y="888" type="line"/>
			<point x="194" y="754" type="line"/>
			<point x="322" y="754"/>
			<point x="338" y="754"/>
			<point x="338" y="676" type="curve" smooth="yes"/>
		</contour>
	</outline>
</glyph>
<glyph name="n" format="2">
	<unicode hex="006E"/>
	<advance width="1676"/>
	<outline>
		<contour>
			<point x="338" y="134" type="line"/>
			<point x="290" y="134"/>
			<point x="242" y="134"/>
			<point x="194" y="134" type="curve"/>
			<point x="194" y="134" type="line"/>
			<point x="194" y="0" type="line"/>
			<point x="276" y="4"/>
			<point x="392" y="8"/>
			<point x="472" y="8" type="curve" smooth="yes"/>
			<point x="546" y="8"/>
			<point x="660" y="6"/>
			<point x="748" y="0" type="curve"/>
			<point x="748" y="134" type="line"/>
			<point x="748" y="134" type="line"/>
			<point x="700" y="134"/>
			<point x="652" y="134"/>
			<point x="604" y="134" type="curve"/>
			<point x="604" y="484" type="line" smooth="yes"/>
			<point x="604" y="728"/>
			<point x="850" y="792"/>
			<point x="974" y="792" type="curve" smooth="yes"/>
			<point x="1102" y="792"/>
			<point x="1142" y="740"/>
			<point x="1142" y="596" type="curve" smooth="yes"/>
			<point x="1142" y="134" type="line"/>
			<point x="1094" y="134"/>
			<point x="1046" y="134"/>
			<point x="998" y="134" type="curve"/>
			<point x="998" y="134" type="line"/>
			<point x="998" y="0" type="line"/>
			<point x="1080" y="4"/>
			<point x="1196" y="8"/>
			<point x="1276" y="8" type="curve" smooth="yes"/>
			<point x="1350" y="8"/>
			<point x="1464" y="6"/>
			<point x="1552" y="0" type="curve"/>
			<point x="1552" y="134" type="line"/>
			<point x="1552" y="134" type="line"/>
			<point x="1504" y="134"/>
			<point x="1456" y="134"/>
			<point x="1408" y="134" type="curve"/>
			<point x="1408" y="590" type="line" smooth="yes"/>
			<point x="1408" y="696"/>
			<point x="1376" y="768"/>
			<point x="1330" y="814" type="curve" smooth="yes"/>
			<point x="1246" y="896"/>
			<point x="1114" y="904"/>
			<point x="1020" y="904" type="curve" smooth="yes"/>
			<point x="750" y="904"/>
			<point x="620" y="768"/>
			<point x="570" y="690" type="curve"/>
			<point x="570" y="690" type="line"/>
			<point x="570" y="904" type="line"/>
			<point x="194" y="888" type="line"/>
			<point x="194" y="754" type="line"/>
			<point x="322" y="754"/>
			<point x="338" y="754"/>
			<point x="338" y="676" type="curve" smooth="yes"/>
		</contour>
	</outline>
</glyph>
<glyph name="o" format="2">
	<unicode hex="006F"/>
	<advance width="758"/>
	<outline>
		<contour>
			<point x="701" y="217" type="curve" smooth="yes"/>
			<point x="701" y="329"/>
			<point x="613" y="456"/>
			<point x="379" y="456" type="curve" smooth="yes"/>
			<point x="142" y="456"/>
			<point x="57" y="327"/>
			<point x="57" y="217" type="curve" smooth="yes"/>
			<point x="57" y="111"/>
			<point x="145" y="-8"/>
			<point x="379" y="-8" type="curve" smooth="yes"/>
			<point x="614" y="-8"/>
			<point x="701" y="111"/>
		</contour>
		<contour>
			<point x="379" y="54" type="curve" smooth="yes"/>
			<point x="308.00012" y="54"/>
			<point x="266.3082804652" y="69.8467893213"/>
			<point x="241.826415372" y="94.2252582752" type="curve" smooth="yes"/>
			<point x="207" y="128.9045885749"/>
			<point x="207" y="180.84878"/>
			<point x="207" y="229" type="curve" smooth="yes"/>
			<point x="207" y="274.9306"/>
			<point x="207" y="325.25553748"/>
			<point x="240.8028664208" y="359.3393416599" type="curve" smooth="yes"/>
			<point x="265.14046512" y="383.87921168"/>
			<point x="307" y="400"/>
			<point x="379" y="400" type="curve" smooth="yes"/>
			<point x="449.99988" y="400"/>
			<point x="491.6917195348" y="384.1532106787"/>
			<point x="516.173584628" y="360.0560920974" type="curve" smooth="yes"/>
			<point x="551" y="325.7769937615"/>
			<point x="551" y="274.80238"/>
			<point x="551" y="229" type="curve" smooth="yes"/>
			<point x="551" y="180.84878"/>
			<point x="551" y="128.9045885749"/>
			<point x="516.173584628" y="94.2252582752" type="curve" smooth="yes"/>
			<point x="491.6917195348" y="69.8467893213"/>
			<point x="449.99988" y="54"/>
		</contour>
	</outline>
</glyph>
<glyph name="p" format="2">
	<unicode hex="0070"/>
	<advance width="1676"/>
	<outline>
		<contour>
			<point x="168" y="754" type="line"/>
			<point x="168" y="754" type="line"/>
			<point x="312" y="754"/>
			<point x="312" y="748"/>
			<point x="312" y="686" type="curve" smooth="yes"/>
			<point x="312" y="-254" type="line"/>
			<point x="264" y="-254"/>
			<point x="216" y="-254"/>
			<point x="168" y="-254" type="curve"/>
			<point x="168" y="-254" type="line"/>
			<point x="168" y="-388" type="line"/>
			<point x="248" y="-384"/>
			<point x="364" y="-380"/>
			<point x="444" y="-380" type="curve" smooth="yes"/>
			<point x="482" y="-380"/>
			<point x="612" y="-382"/>
			<point x="722" y="-388" type="curve"/>
			<point x="722" y="-254" type="line"/>
			<point x="674" y="-254"/>
			<point x="626" y="-254"/>
			<point x="578" y="-254" type="curve"/>
			<point x="578" y="74" type="line"/>
			<point x="634" y="40"/>
			<point x="750" y="-16"/>
			<point x="920" y="-16" type="curve" smooth="yes"/>
			<point x="1338" y="-16"/>
			<point x="1548" y="202"/>
			<point x="1548" y="446" type="curve" smooth="yes"/>
			<point x="1548" y="662"/>
			<point x="1386" y="904"/>
			<point x="968" y="904" type="curve" smooth="yes"/>
			<point x="890" y="904"/>
			<point x="722" y="898"/>
			<point x="562" y="816" type="curve"/>
			<point x="562" y="904" type="line"/>
			<point x="168" y="888" type="line"/>
		</contour>
		<contour>
			<point x="1248" y="444" type="curve" smooth="yes"/>
			<point x="1248" y="224"/>
			<point x="1100" y="96"/>
			<point x="890" y="96" type="curve" smooth="yes"/>
			<point x="796" y="96"/>
			<point x="676" y="126"/>
			<point x="578" y="256" type="curve"/>
			<point x="578" y="256"/>
			<point x="578" y="256"/>
			<point x="578" y="256" type="curve"/>
			<point x="578" y="654" type="line"/>
			<point x="578" y="654"/>
			<point x="578" y="654"/>
			<point x="578" y="654" type="curve"/>
			<point x="680" y="760"/>
			<point x="836" y="780"/>
			<point x="916" y="780" type="curve" smooth="yes"/>
			<point x="1136" y="780"/>
			<point x="1248" y="636"/>
		</contour>
	</outline>
</glyph>
<glyph name="q" format="2">
	<unicode hex="0071"/>
	<advance width="1596"/>
	<outline>
		<contour>
			<point x="130" y="442" type="curve" smooth="yes"/>
			<point x="130" y="216"/>
			<point x="314" y="-16"/>
			<point x="726" y="-16" type="curve" smooth="yes"/>
			<point x="902" y="-16"/>
			<point x="1014" y="32"/>
			<point x="1100" y="78" type="curve"/>
			<point x="1100" y="-254" type="line"/>
			<point x="1052" y="-254"/>
			<point x="1004" y="-254"/>
			<point x="956" y="-254" type="curve"/>
			<point x="956" y="-254" type="line"/>
			<point x="956" y="-388" type="line"/>
			<point x="1036" y="-384"/>
			<point x="1152" y="-380"/>
			<point x="1232" y="-380" type="curve" smooth="yes"/>
			<point x="1270" y="-380"/>
			<point x="1400" y="-382"/>
			<point x="1510" y="-388" type="curve"/>
			<point x="1510" y="-254" type="line"/>
			<point x="1510" y="-254" type="line"/>
			<point x="1462" y="-254"/>
			<point x="1414" y="-254"/>
			<point x="1366" y="-254" type="curve"/>
			<point x="1366" y="904" type="line"/>
			<point x="1216" y="904" type="line"/>
			<point x="1154" y="758" type="line"/>
			<point x="1060" y="842"/>
			<point x="924" y="904"/>
			<point x="748" y="904" type="curve" smooth="yes"/>
			<point x="332" y="904"/>
			<point x="130" y="684"/>
		</contour>
		<contour>
			<point x="430" y="442" type="curve" smooth="yes"/>
			<point x="430" y="668"/>
			<point x="592" y="780"/>
			<point x="786" y="780" type="curve" smooth="yes"/>
			<point x="988" y="780"/>
			<point x="1116" y="620"/>
			<point x="1116" y="506" type="curve" smooth="yes"/>
			<point x="1116" y="284" type="line"/>
			<point x="1116" y="284"/>
			<point x="1116" y="284"/>
			<point x="1116" y="284" type="curve"/>
			<point x="1038" y="156"/>
			<point x="892" y="96"/>
			<point x="760" y="96" type="curve" smooth="yes"/>
			<point x="550" y="96"/>
			<point x="430" y="240"/>
		</contour>
	</outline>
</glyph>
<glyph name="r" format="2">
	<unicode hex="0072"/>
	<advance width="1244"/>
	<outline>
		<contour>
			<point x="312" y="134" type="line"/>
			<point x="312" y="134"/>
			<point x="312" y="134"/>
			<point x="312" y="134" type="curve"/>
			<point x="168" y="134" type="line"/>
			<point x="168" y="0" type="line"/>
			<point x="260" y="6"/>
			<point x="352" y="8"/>
			<point x="444" y="8" type="curve" smooth="yes"/>
			<point x="556" y="8"/>
			<point x="672" y="4"/>
			<point x="742" y="0" type="curve"/>
			<point x="742" y="134" type="line"/>
			<point x="562" y="134" type="line"/>
			<point x="562" y="134"/>
			<point x="562" y="134"/>
			<point x="562" y="134" type="curve"/>
			<point x="562" y="394" type="line" smooth="yes"/>
			<point x="562" y="610"/>
			<point x="688" y="778"/>
			<point x="858" y="792" type="curve"/>
			<point x="858" y="792"/>
			<point x="858" y="792"/>
			<point x="858" y="792" type="curve"/>
			<point x="846" y="772"/>
			<point x="838" y="760"/>
			<point x="838" y="714" type="curve" smooth="yes"/>
			<point x="838" y="628"/>
			<point x="902" y="568"/>
			<point x="984" y="568" type="curve" smooth="yes"/>
			<point x="1066" y="568"/>
			<point x="1130" y="626"/>
			<point x="1130" y="714" type="curve" smooth="yes"/>
			<point x="1130" y="830"/>
			<point x="1014" y="904"/>
			<point x="878" y="904" type="curve" smooth="yes"/>
			<point x="702" y="904"/>
			<point x="584" y="780"/>
			<point x="530" y="662" type="curve"/>
			<point x="528" y="662" type="line"/>
			<point x="528" y="904" type="line"/>
			<point x="168" y="888" type="line"/>
			<point x="168" y="754" type="line"/>
			<point x="296" y="754"/>
			<point x="312" y="754"/>
			<point x="312" y="676" type="curve" smooth="yes"/>
		</contour>
	</outline>
</glyph>
<glyph name="s" format="2">
	<unicode hex="0073"/>
	<advance width="1210"/>
	<outline>
		<contour>
			<point x="1080" y="280" type="curve" smooth="yes"/>
			<point x="1080" y="398"/>
			<point x="996" y="468"/>
			<point x="938" y="498" type="curve" smooth="yes"/>
			<point x="838" y="552"/>
			<point x="788" y="560"/>
			<point x="548" y="592" type="curve" smooth="yes"/>
			<point x="410" y="612"/>
			<point x="292" y="628"/>
			<point x="292" y="702" type="curve" smooth="yes"/>
			<point x="292" y="754"/>
			<point x="352" y="812"/>
			<point x="588" y="812" type="curve" smooth="yes"/>
			<point x="794" y="812"/>
			<point x="832" y="758"/>
			<point x="840" y="686" type="curve" smooth="yes"/>
			<point x="844" y="638"/>
			<point x="858" y="634"/>
			<point x="928" y="634" type="curve" smooth="yes"/>
			<point x="1000" y="634"/>
			<point x="1006" y="644"/>
			<point x="1006" y="704" type="curve" smooth="yes"/>
			<point x="1006" y="842" type="line" smooth="yes"/>
			<point x="1006" y="884"/>
			<point x="1006" y="912"/>
			<point x="946" y="912" type="curve" smooth="yes"/>
			<point x="922" y="912"/>
			<point x="884" y="896"/>
			<point x="854" y="882" type="curve"/>
			<point x="854" y="882"/>
			<point x="854" y="882"/>
			<point x="854" y="882" type="curve"/>
			<point x="768" y="912"/>
			<point x="662" y="912"/>
			<point x="600" y="912" type="curve" smooth="yes"/>
			<point x="336" y="912"/>
			<point x="130" y="842"/>
			<point x="130" y="646" type="curve" smooth="yes"/>
			<point x="130" y="556"/>
			<point x="180" y="498"/>
			<point x="248" y="459" type="curve" smooth="yes"/>
			<point x="339" y="408"/>
			<point x="464" y="390"/>
			<point x="550" y="378" type="curve" smooth="yes"/>
			<point x="655" y="364"/>
			<point x="739" y="353"/>
			<point x="800" y="337" type="curve" smooth="yes"/>
			<point x="877" y="316"/>
			<point x="918" y="286"/>
			<point x="918" y="230" type="curve" smooth="yes"/>
			<point x="918" y="96"/>
			<point x="668" y="96"/>
			<point x="618" y="96" type="curve" smooth="yes"/>
			<point x="438" y="96"/>
			<point x="348" y="152"/>
			<point x="298" y="280" type="curve" smooth="yes"/>
			<point x="282" y="318"/>
			<point x="280" y="322"/>
			<point x="212" y="322" type="curve" smooth="yes"/>
			<point x="138" y="322"/>
			<point x="130" y="312"/>
			<point x="130" y="250" type="curve" smooth="yes"/>
			<point x="130" y="54" type="line" smooth="yes"/>
			<point x="130" y="12"/>
			<point x="130" y="-16"/>
			<point x="190" y="-16" type="curve" smooth="yes"/>
			<point x="212" y="-16"/>
			<point x="216" y="-14"/>
			<point x="256" y="8" type="curve" smooth="yes"/>
			<point x="276" y="19"/>
			<point x="296" y="31"/>
			<point x="316" y="42" type="curve"/>
			<point x="428" y="-16"/>
			<point x="558" y="-16"/>
			<point x="614" y="-16" type="curve" smooth="yes"/>
			<point x="694" y="-16"/>
			<point x="1080" y="-16"/>
		</contour>
	</outline>
</glyph>
<glyph name="t" format="2">
	<unicode hex="0074"/>
	<advance width="1194"/>
	<outline>
		<contour>
			<point x="570" y="754" type="line"/>
			<point x="950" y="754" type="line"/>
			<point x="950" y="888" type="line"/>
			<point x="570" y="888" type="line"/>
			<point x="570" y="1270" type="line"/>
			<point x="404" y="1270" type="line"/>
			<point x="400" y="1066"/>
			<point x="292" y="872"/>
			<point x="88" y="866" type="curve"/>
			<point x="88" y="754" type="line"/>
			<point x="304" y="754" type="line"/>
			<point x="304" y="236" type="line" smooth="yes"/>
			<point x="304" y="10"/>
			<point x="522" y="-16"/>
			<point x="652" y="-16" type="curve" smooth="yes"/>
			<point x="798" y="-16"/>
			<point x="998" y="36"/>
			<point x="998" y="238" type="curve" smooth="yes"/>
			<point x="998" y="334" type="line"/>
			<point x="832" y="334" type="line"/>
			<point x="832" y="246" type="line" smooth="yes"/>
			<point x="832" y="186"/>
			<point x="812" y="108"/>
			<point x="696" y="108" type="curve" smooth="yes"/>
			<point x="570" y="108"/>
			<point x="570" y="188"/>
			<point x="570" y="242" type="curve" smooth="yes"/>
		</contour>
	</outline>
</glyph>
<glyph name="u" format="2">
  <advance width="838"/>
  <unicode hex="0075"/>
  <outline>
    <contour>
      <point x="169" y="338" type="curve" smooth="yes"/>
      <point x="169" y="118" type="line" smooth="yes"/>
      <point x="169.0" y="82.55503999999999"/>
      <point x="180.2973965456" y="57.00697284159999"/>
      <point x="198.69839810121644" y="38.61699588931687" type="curve" smooth="yes"/>
      <point x="240.5179802464" y="-3.1775308639999906"/>
      <point x="319.02819999999997" y="-7.99999999999999"/>
      <point x="385" y="-8" type="curve" smooth="yes"/>
      <point x="419" y="-8"/>
      <point x="514" y="-8"/>
      <point x="579" y="57" type="curve"/>
      <point x="579" y="57" type="line"/>
      <point x="579" y="-8" type="line"/>
      <point x="776" y="0" type="line"/>
      <point x="776" y="67" type="line"/>
      <point x="712" y="67"/>
      <point x="704" y="67"/>
      <point x="704" y="106" type="curve" smooth="yes"/>
      <point x="704" y="452" type="line"/>
      <point x="499" y="444" type="line"/>
      <point x="499" y="377" type="line"/>
      <point x="563" y="377"/>
      <point x="571" y="377"/>
      <point x="571" y="338" type="curve" smooth="yes"/>
      <point x="571" y="158" type="line" smooth="yes"/>
      <point x="571" y="65"/>
      <point x="474" y="48"/>
      <point x="406" y="48" type="curve" smooth="yes"/>
      <point x="302" y="48"/>
      <point x="302" y="68"/>
      <point x="302" y="112" type="curve" smooth="yes"/>
      <point x="302" y="452" type="line"/>
      <point x="97" y="444" type="line"/>
      <point x="97" y="377" type="line"/>
      <point x="161" y="377"/>
      <point x="169" y="377"/>
    </contour>
  </outline>
</glyph>
<glyph name="v" format="2">
	<unicode hex="0076"/>
	<advance width="1596"/>
	<outline>
		<contour>
			<point x="812" y="-16" type="curve" smooth="yes"/>
			<point x="920" y="-16"/>
			<point x="942" y="-16"/>
			<point x="972" y="42" type="curve" smooth="yes"/>
			<point x="1097" y="279"/>
			<point x="1221" y="516"/>
			<point x="1346" y="754" type="curve"/>
			<point x="1395" y="754"/>
			<point x="1443" y="754"/>
			<point x="1492" y="754" type="curve"/>
			<point x="1492" y="799"/>
			<point x="1492" y="843"/>
			<point x="1492" y="888" type="curve"/>
			<point x="1424" y="882"/>
			<point x="1358" y="880"/>
			<point x="1290" y="880" type="curve" smooth="yes"/>
			<point x="1220" y="880"/>
			<point x="1134" y="882"/>
			<point x="1064" y="888" type="curve"/>
			<point x="1064" y="843"/>
			<point x="1064" y="799"/>
			<point x="1064" y="754" type="curve"/>
			<point x="1095" y="754"/>
			<point x="1127" y="754"/>
			<point x="1158" y="754" type="curve"/>
			<point x="1158" y="754"/>
			<point x="1158" y="754"/>
			<point x="1158" y="754" type="curve"/>
			<point x="1054" y="556"/>
			<point x="950" y="357"/>
			<point x="846" y="158" type="curve"/>
			<point x="742" y="356"/>
			<point x="638" y="555"/>
			<point x="534" y="754" type="curve"/>
			<point x="534" y="754"/>
			<point x="534" y="754"/>
			<point x="534" y="754" type="curve"/>
			<point x="565" y="754"/>
			<point x="597" y="754"/>
			<point x="628" y="754" type="curve"/>
			<point x="628" y="799"/>
			<point x="628" y="843"/>
			<point x="628" y="888" type="curve"/>
			<point x="554" y="884"/>
			<point x="438" y="880"/>
			<point x="356" y="880" type="curve" smooth="yes"/>
			<point x="258" y="880"/>
			<point x="210" y="880"/>
			<point x="106" y="888" type="curve"/>
			<point x="106" y="843"/>
			<point x="106" y="799"/>
			<point x="106" y="754" type="curve"/>
			<point x="155" y="754"/>
			<point x="203" y="754"/>
			<point x="252" y="754" type="curve"/>
			<point x="376" y="518"/>
			<point x="500" y="282"/>
			<point x="624" y="46" type="curve" smooth="yes"/>
			<point x="652" y="-8"/>
			<point x="662" y="-16"/>
		</contour>
	</outline>
</glyph>
<glyph name="w" format="2">
  <advance width="1080"/>
  <unicode hex="0077"/>
  <outline>
    <contour>
      <point x="965" y="377" type="line"/>
      <point x="986.978" y="377.0"/>
      <point x="1008.956" y="377.0"/>
      <point x="1031" y="377" type="curve"/>
      <point x="1031.0" y="399.311"/>
      <point x="1031.0" y="421.622"/>
      <point x="1031" y="444" type="curve"/>
      <point x="1010" y="442"/>
      <point x="977" y="440"/>
      <point x="933" y="440" type="curve" smooth="yes"/>
      <point x="894" y="440"/>
      <point x="854" y="441"/>
      <point x="815" y="444" type="curve"/>
      <point x="815.0" y="421.689"/>
      <point x="815.0" y="399.378"/>
      <point x="815" y="377" type="curve"/>
      <point x="834.98" y="377.0"/>
      <point x="854.96" y="377.0"/>
      <point x="875" y="377" type="curve"/>
      <point x="875.0" y="377.0"/>
      <point x="875.0" y="377.0"/>
      <point x="875" y="377" type="curve"/>
      <point x="740" y="61" type="line"/>
      <point x="606" y="377" type="line"/>
      <point x="606.0" y="377.0"/>
      <point x="606.0" y="377.0"/>
      <point x="606" y="377" type="curve"/>
      <point x="623.316" y="377.0"/>
      <point x="640.6320000000001" y="377.0"/>
      <point x="658" y="377" type="curve"/>
      <point x="658" y="444" type="line"/>
      <point x="618" y="441"/>
      <point x="577" y="440"/>
      <point x="537" y="440" type="curve" smooth="yes"/>
      <point x="503" y="440"/>
      <point x="464" y="441"/>
      <point x="431" y="444" type="curve"/>
      <point x="431" y="377" type="line"/>
      <point x="451.646" y="377.0"/>
      <point x="472.29200000000003" y="377.0"/>
      <point x="493" y="377" type="curve"/>
      <point x="493.0" y="377.0"/>
      <point x="493.0" y="377.0"/>
      <point x="493" y="377" type="curve"/>
      <point x="372" y="93" type="line"/>
      <point x="252" y="377" type="line"/>
      <point x="252.0" y="377.0"/>
      <point x="252.0" y="377.0"/>
      <point x="252" y="377" type="curve"/>
      <point x="269.31600000000003" y="377.0"/>
      <point x="286.632" y="377.0"/>
      <point x="304" y="377" type="curve"/>
      <point x="304" y="444" type="line"/>
      <point x="269" y="442"/>
      <point x="211" y="440"/>
      <point x="170" y="440" type="curve" smooth="yes"/>
      <point x="132" y="440"/>
      <point x="88" y="441"/>
      <point x="50" y="444" type="curve"/>
      <point x="50" y="377" type="line"/>
      <point x="71.97800000000001" y="377.0"/>
      <point x="93.956" y="377.0"/>
      <point x="116" y="377" type="curve"/>
      <point x="266" y="23" type="line" smooth="yes"/>
      <point x="279" y="-8"/>
      <point x="289" y="-8"/>
      <point x="348" y="-8" type="curve" smooth="yes"/>
      <point x="410" y="-8"/>
      <point x="420" y="-8"/>
      <point x="433" y="22" type="curve" smooth="yes"/>
      <point x="540" y="276" type="line"/>
      <point x="648" y="22" type="line" smooth="yes"/>
      <point x="661" y="-8"/>
      <point x="671" y="-8"/>
      <point x="731" y="-8" type="curve" smooth="yes"/>
      <point x="792" y="-8"/>
      <point x="802" y="-8"/>
      <point x="815" y="23" type="curve" smooth="yes"/>
    </contour>
  </outline>
</glyph>
<glyph name="x" format="2">
	<unicode hex="0078"/>
	<advance width="1596"/>
	<outline>
		<contour>
			<point x="654" y="448" type="line"/>
			<point x="302" y="134" type="line"/>
			<point x="240" y="134"/>
			<point x="178" y="134"/>
			<point x="116" y="134" type="curve"/>
			<point x="116" y="0" type="line"/>
			<point x="200" y="8"/>
			<point x="258" y="8"/>
			<point x="338" y="8" type="curve" smooth="yes"/>
			<point x="420" y="8"/>
			<point x="502" y="6"/>
			<point x="584" y="0" type="curve"/>
			<point x="584" y="134" type="line"/>
			<point x="573" y="134"/>
			<point x="563" y="134"/>
			<point x="552" y="134" type="curve"/>
			<point x="552" y="134"/>
			<point x="552" y="134"/>
			<point x="552" y="134" type="curve"/>
			<point x="627" y="201"/>
			<point x="703" y="269"/>
			<point x="778" y="336" type="curve"/>
			<point x="1004" y="136" type="line"/>
			<point x="1004" y="136"/>
			<point x="1004" y="136"/>
			<point x="1004" y="136" type="curve"/>
			<point x="994" y="134"/>
			<point x="990" y="134"/>
			<point x="980" y="134" type="curve"/>
			<point x="980" y="0" type="line"/>
			<point x="1068" y="6"/>
			<point x="1156" y="8"/>
			<point x="1244" y="8" type="curve" smooth="yes"/>
			<point x="1332" y="8"/>
			<point x="1390" y="8"/>
			<point x="1482" y="0" type="curve"/>
			<point x="1482" y="134" type="line"/>
			<point x="1423" y="134"/>
			<point x="1365" y="134"/>
			<point x="1306" y="134" type="curve"/>
			<point x="928" y="470" type="line"/>
			<point x="1248" y="754" type="line"/>
			<point x="1310" y="754"/>
			<point x="1372" y="754"/>
			<point x="1434" y="754" type="curve"/>
			<point x="1434" y="888" type="line"/>
			<point x="1350" y="880"/>
			<point x="1292" y="880"/>
			<point x="1212" y="880" type="curve" smooth="yes"/>
			<point x="1130" y="880"/>
			<point x="1048" y="882"/>
			<point x="966" y="888" type="curve"/>
			<point x="966" y="754" type="line"/>
			<point x="977" y="754"/>
			<point x="987" y="754"/>
			<point x="998" y="754" type="curve"/>
			<point x="998" y="754"/>
			<point x="998" y="754"/>
			<point x="998" y="754" type="curve"/>
			<point x="804" y="580" type="line"/>
			<point x="610" y="752" type="line"/>
			<point x="610" y="752"/>
			<point x="610" y="752"/>
			<point x="610" y="752" type="curve"/>
			<point x="620" y="754"/>
			<point x="624" y="754"/>
			<point x="634" y="754" type="curve"/>
			<point x="634" y="888" type="line"/>
			<point x="546" y="882"/>
			<point x="458" y="880"/>
			<point x="370" y="880" type="curve" smooth="yes"/>
			<point x="282" y="880"/>
			<point x="224" y="880"/>
			<point x="132" y="888" type="curve"/>
			<point x="132" y="754" type="line"/>
			<point x="191" y="754"/>
			<point x="249" y="754"/>
			<point x="308" y="754" type="curve"/>
		</contour>
	</outline>
</glyph>
<glyph name="y" format="2">
	<unicode hex="0079"/>
	<advance width="798"/>
	<outline>
		<contour>
			<point x="182" y="-202" type="curve" smooth="yes"/>
			<point x="248" y="-202"/>
			<point x="375" y="-180"/>
			<point x="433" y="-71" type="curve" smooth="yes"/>
			<point x="672" y="377" type="line"/>
			<point x="696.309" y="377"/>
			<point x="720.618" y="377"/>
			<point x="745" y="377" type="curve"/>
			<point x="745" y="444" type="line"/>
			<point x="718" y="442"/>
			<point x="686" y="440"/>
			<point x="644" y="440" type="curve" smooth="yes"/>
			<point x="608" y="440"/>
			<point x="567" y="441"/>
			<point x="531" y="444" type="curve"/>
			<point x="531" y="377" type="line"/>
			<point x="546.651" y="377"/>
			<point x="562.302" y="377"/>
			<point x="578" y="377" type="curve"/>
			<point x="578" y="377"/>
			<point x="578" y="377"/>
			<point x="578" y="377" type="curve"/>
			<point x="445" y="126" type="line"/>
			<point x="283" y="377" type="line"/>
			<point x="283" y="377"/>
			<point x="283" y="377"/>
			<point x="283" y="377" type="curve"/>
			<point x="296.32" y="377"/>
			<point x="309.64" y="377"/>
			<point x="323" y="377" type="curve"/>
			<point x="323" y="444" type="line"/>
			<point x="275" y="441"/>
			<point x="210" y="440"/>
			<point x="185" y="440" type="curve" smooth="yes"/>
			<point x="143" y="440"/>
			<point x="100" y="441"/>
			<point x="58" y="444" type="curve"/>
			<point x="58" y="377" type="line"/>
			<point x="83.308" y="377"/>
			<point x="108.616" y="377"/>
			<point x="134" y="377" type="curve"/>
			<point x="377" y="0" type="line"/>
			<point x="368.675" y="-15.651"/>
			<point x="360.35" y="-31.302"/>
			<point x="352" y="-47" type="curve" smooth="yes"/>
			<point x="332" y="-84"/>
			<point x="300" y="-146"/>
			<point x="184" y="-146" type="curve" smooth="yes"/>
			<point x="178" y="-146"/>
			<point x="170" y="-146"/>
			<point x="170" y="-144" type="curve"/>
			<point x="177" y="-135"/>
			<point x="187" y="-120"/>
			<point x="187" y="-94" type="curve" smooth="yes"/>
			<point x="187" y="-48"/>
			<point x="153" y="-23"/>
			<point x="116" y="-23" type="curve" smooth="yes"/>
			<point x="79" y="-23"/>
			<point x="45" y="-48"/>
			<point x="45" y="-94" type="curve" smooth="yes"/>
			<point x="45" y="-152"/>
			<point x="99" y="-202"/>
		</contour>
	</outline>
</glyph>
<glyph name="z" format="2">
  <advance width="677"/>
  <unicode hex="007A"/>
  <outline>
    <contour>
      <point x="407" y="388" type="line"/>
      <point x="70" y="64" type="line" smooth="yes"/>
      <point x="59" y="53"/>
      <point x="57" y="52"/>
      <point x="57" y="33" type="curve" smooth="yes"/>
      <point x="57" y="0"/>
      <point x="74" y="0"/>
      <point x="95" y="0" type="curve" smooth="yes"/>
      <point x="578" y="0" type="line"/>
      <point x="601" y="178" type="line"/>
      <point x="518" y="178" type="line"/>
      <point x="503" y="72"/>
      <point x="435" y="62"/>
      <point x="347" y="62" type="curve" smooth="yes"/>
      <point x="249" y="62" type="line"/>
      <point x="584" y="384" type="line" smooth="yes"/>
      <point x="595" y="394"/>
      <point x="597" y="396"/>
      <point x="597" y="413" type="curve" smooth="yes"/>
      <point x="597" y="444"/>
      <point x="579" y="444"/>
      <point x="559" y="444" type="curve" smooth="yes"/>
      <point x="93" y="444" type="line"/>
      <point x="77" y="289" type="line"/>
      <point x="160" y="289" type="line"/>
      <point x="172" y="380"/>
      <point x="234" y="388"/>
      <point x="316" y="388" type="curve" smooth="yes"/>
    </contour>
  </outline>
</glyph>
<glyph name="exclamdown" format="2">
	<unicode hex="00A1"/>
	<advance width="950"/>
	<outline>
		<contour>
			<point x="476" y="-422" type="curve" smooth="yes"/>
			<point x="562" y="-422"/>
			<point x="648" y="-360"/>
			<point x="648" y="-262" type="curve" smooth="yes"/>
			<point x="648" y="-240"/>
			<point x="648" y="-236"/>
			<point x="562" y="458" type="curve" smooth="yes"/>
			<point x="554" y="518"/>
			<point x="548" y="522"/>
			<point x="480" y="522" type="curve" smooth="yes"/>
			<point x="404" y="522"/>
			<point x="398" y="518"/>
			<point x="390" y="458" type="curve" smooth="yes"/>
			<point x="304" y="-236"/>
			<point x="304" y="-240"/>
			<point x="304" y="-262" type="curve" smooth="yes"/>
			<point x="304" y="-360"/>
			<point x="390" y="-422"/>
		</contour>
		<contour>
			<point x="648" y="828" type="curve" smooth="yes"/>
			<point x="648" y="922"/>
			<point x="570" y="1000"/>
			<point x="476" y="1000" type="curve" smooth="yes"/>
			<point x="382" y="1000"/>
			<point x="304" y="922"/>
			<point x="304" y="828" type="curve" smooth="yes"/>
			<point x="304" y="734"/>
			<point x="382" y="656"/>
			<point x="476" y="656" type="curve" smooth="yes"/>
			<point x="570" y="656"/>
			<point x="648" y="734"/>
		</contour>
	</outline>
</glyph>
<glyph name="dieresis" format="2">
	<unicode hex="00A8"/>
	<advance width="1516"/>
	<outline>
		<contour>
			<point x="632" y="1234" type="curve" smooth="yes"/>
			<point x="632" y="1326"/>
			<point x="558" y="1390"/>
			<point x="478" y="1390" type="curve" smooth="yes"/>
			<point x="386" y="1390"/>
			<point x="322" y="1314"/>
			<point x="322" y="1236" type="curve" smooth="yes"/>
			<point x="322" y="1146"/>
			<point x="394" y="1080"/>
			<point x="476" y="1080" type="curve" smooth="yes"/>
			<point x="568" y="1080"/>
			<point x="632" y="1154"/>
		</contour>
		<contour>
			<point x="1194" y="1234" type="curve" smooth="yes"/>
			<point x="1194" y="1324"/>
			<point x="1122" y="1390"/>
			<point x="1040" y="1390" type="curve" smooth="yes"/>
			<point x="948" y="1390"/>
			<point x="884" y="1316"/>
			<point x="884" y="1236" type="curve" smooth="yes"/>
			<point x="884" y="1144"/>
			<point x="958" y="1080"/>
			<point x="1038" y="1080" type="curve" smooth="yes"/>
			<point x="1130" y="1080"/>
			<point x="1194" y="1156"/>
		</contour>
	</outline>
</glyph>
<glyph name="macron" format="2">
	<unicode hex="00AF"/>
	<advance width="1516"/>
	<outline>
		<contour>
			<point x="1280" y="1124" type="line"/>
			<point x="1280" y="1266" type="line"/>
			<point x="236" y="1266" type="line"/>
			<point x="236" y="1124" type="line"/>
		</contour>
	</outline>
</glyph>
<glyph name="acute" format="2">
	<unicode hex="00B4"/>
	<advance width="1516"/>
	<outline>
		<contour>
			<point x="704" y="1012" type="line"/>
			<point x="1072" y="1132" type="line" smooth="yes"/>
			<point x="1104" y="1142"/>
			<point x="1178" y="1166"/>
			<point x="1178" y="1256" type="curve" smooth="yes"/>
			<point x="1178" y="1328"/>
			<point x="1122" y="1400"/>
			<point x="1046" y="1400" type="curve" smooth="yes"/>
			<point x="1006" y="1400"/>
			<point x="986" y="1386"/>
			<point x="966" y="1374" type="curve" smooth="yes"/>
			<point x="855" y="1304"/>
			<point x="745" y="1234"/>
			<point x="634" y="1164" type="curve"/>
		</contour>
	</outline>
</glyph>
<glyph name="cedilla" format="2">
	<unicode hex="00B8"/>
	<advance width="1354"/>
	<outline>
		<contour>
			<point x="868" y="-224" type="curve" smooth="yes"/>
			<point x="868" y="-318"/>
			<point x="568" y="-318"/>
			<point x="492" y="-318" type="curve" smooth="yes"/>
			<point x="456" y="-318"/>
			<point x="420" y="-318"/>
			<point x="384" y="-318" type="curve"/>
			<point x="384" y="-430" type="line"/>
			<point x="430" y="-430"/>
			<point x="476" y="-430"/>
			<point x="522" y="-430" type="curve" smooth="yes"/>
			<point x="650" y="-430"/>
			<point x="778" y="-426"/>
			<point x="904" y="-400" type="curve" smooth="yes"/>
			<point x="1026" y="-376"/>
			<point x="1134" y="-330"/>
			<point x="1134" y="-224" type="curve" smooth="yes"/>
			<point x="1134" y="-74"/>
			<point x="986" y="-20"/>
			<point x="710" y="-20" type="curve" smooth="yes"/>
			<point x="626" y="-20" type="line"/>
			<point x="626" y="-132" type="line"/>
			<point x="664" y="-132" type="line" smooth="yes"/>
			<point x="760" y="-132"/>
			<point x="868" y="-144"/>
		</contour>
	</outline>
</glyph>
<glyph name="questiondown" format="2">
	<unicode hex="00BF"/>
	<advance width="718"/>
	<outline>
		<contour>
			<point x="98" y="-71" type="curve" smooth="yes"/>
			<point x="98" y="-164"/>
			<point x="195" y="-202"/>
			<point x="333" y="-202" type="curve" smooth="yes"/>
			<point x="442" y="-202"/>
			<point x="620" y="-202"/>
			<point x="620" y="-72" type="curve" smooth="yes"/>
			<point x="620" y="-22"/>
			<point x="583" y="4"/>
			<point x="545" y="4" type="curve" smooth="yes"/>
			<point x="504" y="4"/>
			<point x="470" y="-25"/>
			<point x="470" y="-71" type="curve" smooth="yes"/>
			<point x="470" y="-107"/>
			<point x="493" y="-126"/>
			<point x="494" y="-127" type="curve"/>
			<point x="450" y="-145"/>
			<point x="380" y="-146"/>
			<point x="346" y="-146" type="curve" smooth="yes"/>
			<point x="253" y="-146"/>
			<point x="248" y="-128"/>
			<point x="248" y="-77" type="curve" smooth="yes"/>
			<point x="248" y="-35"/>
			<point x="259" y="-24"/>
			<point x="272" y="-12" type="curve" smooth="yes"/>
			<point x="340" y="53"/>
			<point x="381" y="107"/>
			<point x="381" y="218" type="curve" smooth="yes"/>
			<point x="381" y="223"/>
			<point x="381" y="227"/>
			<point x="381" y="231" type="curve" smooth="yes"/>
			<point x="380" y="256"/>
			<point x="378" y="261"/>
			<point x="340" y="261" type="curve" smooth="yes"/>
			<point x="300" y="261"/>
			<point x="298" y="257"/>
			<point x="298" y="228" type="curve" smooth="yes"/>
			<point x="298" y="218" type="line" smooth="yes"/>
			<point x="298" y="174"/>
			<point x="298" y="101"/>
			<point x="167" y="32" type="curve" smooth="yes"/>
			<point x="116" y="5"/>
			<point x="98" y="-33"/>
		</contour>
		<contour>
			<point x="425" y="414" type="curve" smooth="yes"/>
			<point x="425" y="461"/>
			<point x="386" y="500"/>
			<point x="339" y="500" type="curve" smooth="yes"/>
			<point x="292" y="500"/>
			<point x="253" y="461"/>
			<point x="253" y="414" type="curve" smooth="yes"/>
			<point x="253" y="367"/>
			<point x="292" y="328"/>
			<point x="339" y="328" type="curve" smooth="yes"/>
			<point x="386" y="328"/>
			<point x="425" y="367"/>
		</contour>
	</outline>
</glyph>
<glyph name="Oslash" format="2">
	<unicode hex="00D8"/>
	<advance width="2322"/>
	<outline>
		<contour>
			<point x="1904" y="1428" type="line"/>
			<point x="1812" y="1512" type="line"/>
			<point x="1648" y="1326" type="line"/>
			<point x="1550" y="1362"/>
			<point x="1400" y="1406"/>
			<point x="1162" y="1406" type="curve" smooth="yes"/>
			<point x="464" y="1406"/>
			<point x="196" y="1024"/>
			<point x="196" y="676" type="curve" smooth="yes"/>
			<point x="196" y="520"/>
			<point x="254" y="264"/>
			<point x="554" y="98" type="curve"/>
			<point x="418" y="-56" type="line"/>
			<point x="449" y="-84"/>
			<point x="479" y="-112"/>
			<point x="510" y="-140" type="curve"/>
			<point x="672" y="44" type="line"/>
			<point x="838" y="-18"/>
			<point x="1014" y="-34"/>
			<point x="1160" y="-34" type="curve" smooth="yes"/>
			<point x="1862" y="-34"/>
			<point x="2126" y="338"/>
			<point x="2126" y="676" type="curve" smooth="yes"/>
			<point x="2126" y="874"/>
			<point x="2034" y="1124"/>
			<point x="1764" y="1270" type="curve"/>
		</contour>
		<contour>
			<point x="1162" y="78" type="curve" smooth="yes"/>
			<point x="1066" y="78"/>
			<point x="904" y="84"/>
			<point x="772" y="154" type="curve"/>
			<point x="1652" y="1146" type="line"/>
			<point x="1716" y="1088"/>
			<point x="1814" y="980"/>
			<point x="1814" y="676" type="curve" smooth="yes"/>
			<point x="1814" y="520"/>
			<point x="1790" y="358"/>
			<point x="1678" y="242" type="curve" smooth="yes"/>
			<point x="1572" y="134"/>
			<point x="1394" y="78"/>
		</contour>
		<contour>
			<point x="666" y="224" type="line"/>
			<point x="514" y="350"/>
			<point x="508" y="586"/>
			<point x="508" y="676" type="curve" smooth="yes"/>
			<point x="508" y="912"/>
			<point x="562" y="1040"/>
			<point x="658" y="1134" type="curve" smooth="yes"/>
			<point x="756" y="1232"/>
			<point x="916" y="1294"/>
			<point x="1160" y="1294" type="curve" smooth="yes"/>
			<point x="1272" y="1294"/>
			<point x="1420" y="1282"/>
			<point x="1548" y="1216" type="curve"/>
		</contour>
	</outline>
</glyph>
<glyph name="germandbls" format="2">
	<unicode hex="00DF"/>
	<advance width="1524"/>
	<outline>
		<contour>
			<point x="1094" y="828" type="curve"/>
			<point x="1188" y="868"/>
			<point x="1328" y="954"/>
			<point x="1328" y="1116" type="curve" smooth="yes"/>
			<point x="1328" y="1244"/>
			<point x="1204" y="1404"/>
			<point x="814" y="1404" type="curve" smooth="yes"/>
			<point x="512" y="1404"/>
			<point x="312" y="1300"/>
			<point x="312" y="1104" type="curve" smooth="yes"/>
			<point x="312" y="888" type="line"/>
			<point x="168" y="888" type="line"/>
			<point x="168" y="754" type="line"/>
			<point x="312" y="754" type="line"/>
			<point x="312" y="134" type="line"/>
			<point x="264" y="134"/>
			<point x="216" y="134"/>
			<point x="168" y="134" type="curve"/>
			<point x="168" y="0" type="line"/>
			<point x="246" y="6"/>
			<point x="386" y="8"/>
			<point x="414" y="8" type="curve" smooth="yes"/>
			<point x="428" y="8"/>
			<point x="508" y="8"/>
			<point x="562" y="0" type="curve"/>
			<point x="562" y="1100" type="line" smooth="yes"/>
			<point x="562" y="1158"/>
			<point x="562" y="1292"/>
			<point x="812" y="1292" type="curve" smooth="yes"/>
			<point x="974" y="1292"/>
			<point x="1052" y="1236"/>
			<point x="1052" y="1116" type="curve" smooth="yes"/>
			<point x="1052" y="972"/>
			<point x="964" y="896"/>
			<point x="790" y="888" type="curve" smooth="yes"/>
			<point x="752" y="886"/>
			<point x="724" y="886"/>
			<point x="724" y="832" type="curve" smooth="yes"/>
			<point x="724" y="780"/>
			<point x="752" y="778"/>
			<point x="782" y="776" type="curve" smooth="yes"/>
			<point x="1040" y="764"/>
			<point x="1134" y="588"/>
			<point x="1134" y="360" type="curve" smooth="yes"/>
			<point x="1134" y="302"/>
			<point x="1134" y="96"/>
			<point x="902" y="96" type="curve" smooth="yes"/>
			<point x="878" y="96"/>
			<point x="870" y="100"/>
			<point x="862" y="104" type="curve"/>
			<point x="868" y="112"/>
			<point x="890" y="140"/>
			<point x="890" y="186" type="curve" smooth="yes"/>
			<point x="890" y="260"/>
			<point x="834" y="308"/>
			<point x="768" y="308" type="curve" smooth="yes"/>
			<point x="696" y="308"/>
			<point x="644" y="256"/>
			<point x="644" y="184" type="curve" smooth="yes"/>
			<point x="644" y="92"/>
			<point x="724" y="-16"/>
			<point x="906" y="-16" type="curve" smooth="yes"/>
			<point x="1212" y="-16"/>
			<point x="1410" y="138"/>
			<point x="1410" y="360" type="curve" smooth="yes"/>
			<point x="1410" y="676"/>
			<point x="1160" y="796"/>
		</contour>
	</outline>
</glyph>
<glyph name="ae" format="2">
	<unicode hex="00E6"/>
	<advance width="2160"/>
	<outline>
		<contour>
			<point x="142" y="226" type="curve" smooth="yes"/>
			<point x="142" y="-14"/>
			<point x="488" y="-16"/>
			<point x="626" y="-16" type="curve" smooth="yes"/>
			<point x="836" y="-16"/>
			<point x="1040" y="-8"/>
			<point x="1130" y="108" type="curve"/>
			<point x="1282" y="4"/>
			<point x="1462" y="-16"/>
			<point x="1594" y="-16" type="curve" smooth="yes"/>
			<point x="1948" y="-16"/>
			<point x="2048" y="158"/>
			<point x="2048" y="220" type="curve" smooth="yes"/>
			<point x="2048" y="270"/>
			<point x="2004" y="270"/>
			<point x="1966" y="270" type="curve" smooth="yes"/>
			<point x="1908" y="270"/>
			<point x="1900" y="268"/>
			<point x="1880" y="230" type="curve" smooth="yes"/>
			<point x="1842" y="154"/>
			<point x="1760" y="108"/>
			<point x="1636" y="108" type="curve" smooth="yes"/>
			<point x="1534" y="108"/>
			<point x="1242" y="132"/>
			<point x="1218" y="394" type="curve"/>
			<point x="1972" y="394" type="line" smooth="yes"/>
			<point x="2014" y="394"/>
			<point x="2048" y="394"/>
			<point x="2048" y="460" type="curve" smooth="yes"/>
			<point x="2048" y="748"/>
			<point x="1870" y="912"/>
			<point x="1554" y="912" type="curve" smooth="yes"/>
			<point x="1400" y="912"/>
			<point x="1248" y="882"/>
			<point x="1118" y="788" type="curve"/>
			<point x="980" y="912"/>
			<point x="744" y="912"/>
			<point x="662" y="912" type="curve" smooth="yes"/>
			<point x="518" y="912"/>
			<point x="222" y="912"/>
			<point x="222" y="696" type="curve" smooth="yes"/>
			<point x="222" y="600"/>
			<point x="292" y="544"/>
			<point x="372" y="544" type="curve" smooth="yes"/>
			<point x="460" y="544"/>
			<point x="522" y="608"/>
			<point x="522" y="694" type="curve" smooth="yes"/>
			<point x="522" y="728"/>
			<point x="512" y="760"/>
			<point x="494" y="784" type="curve"/>
			<point x="568" y="800"/>
			<point x="628" y="800"/>
			<point x="664" y="800" type="curve" smooth="yes"/>
			<point x="842" y="800"/>
			<point x="948" y="732"/>
			<point x="948" y="574" type="curve" smooth="yes"/>
			<point x="948" y="488" type="line"/>
			<point x="474" y="476"/>
			<point x="142" y="422"/>
		</contour>
		<contour>
			<point x="650" y="96" type="curve" smooth="yes"/>
			<point x="494" y="96"/>
			<point x="408" y="152"/>
			<point x="408" y="226" type="curve" smooth="yes"/>
			<point x="408" y="342"/>
			<point x="734" y="382"/>
			<point x="954" y="386" type="curve"/>
			<point x="958" y="358"/>
			<point x="962" y="342"/>
			<point x="976" y="306" type="curve" smooth="yes"/>
			<point x="984" y="286"/>
			<point x="986" y="268"/>
			<point x="986" y="246" type="curve" smooth="yes"/>
			<point x="986" y="106"/>
			<point x="754" y="96"/>
		</contour>
		<contour>
			<point x="1216" y="496" type="line"/>
			<point x="1222" y="618"/>
			<point x="1270" y="800"/>
			<point x="1554" y="800" type="curve" smooth="yes"/>
			<point x="1792" y="800"/>
			<point x="1838" y="636"/>
			<point x="1846" y="496" type="curve"/>
		</contour>
	</outline>
</glyph>
<glyph name="oslash" format="2">
	<unicode hex="00F8"/>
	<advance width="758"/>
	<outline>
		<contour>
			<point x="145" y="-115" type="line"/>
			<point x="243" y="8" type="line"/>
			<point x="296" y="-6"/>
			<point x="350" y="-8"/>
			<point x="379" y="-8" type="curve" smooth="yes"/>
			<point x="614" y="-8"/>
			<point x="701" y="111"/>
			<point x="701" y="217" type="curve" smooth="yes"/>
			<point x="701" y="259"/>
			<point x="689" y="355"/>
			<point x="571" y="417" type="curve"/>
			<point x="656" y="524" type="line"/>
			<point x="613" y="560" type="line"/>
			<point x="515" y="438" type="line"/>
			<point x="458" y="456"/>
			<point x="395" y="456"/>
			<point x="379" y="456" type="curve" smooth="yes"/>
			<point x="142" y="456"/>
			<point x="57" y="327"/>
			<point x="57" y="217" type="curve" smooth="yes"/>
			<point x="57" y="168"/>
			<point x="78" y="79"/>
			<point x="188" y="29" type="curve"/>
			<point x="102" y="-79" type="line"/>
		</contour>
		<contour>
			<point x="379" y="48" type="curve" smooth="yes"/>
			<point x="358" y="48"/>
			<point x="322" y="48"/>
			<point x="285" y="59" type="curve"/>
			<point x="524" y="359" type="line"/>
			<point x="564" y="325"/>
			<point x="568" y="266"/>
			<point x="568" y="219" type="curve" smooth="yes"/>
			<point x="568" y="169.34944"/>
			<point x="563.3399279616" y="123.4851885312"/>
			<point x="531.8568074752" y="91.781404764" type="curve" smooth="yes"/>
			<point x="505.0032831232" y="64.7396656896"/>
			<point x="458.63536" y="48"/>
		</contour>
		<contour>
			<point x="233" y="85" type="line"/>
			<point x="191" y="121"/>
			<point x="190" y="180"/>
			<point x="190" y="219" type="curve" smooth="yes"/>
			<point x="190" y="268.3548"/>
			<point x="194.0891853925" y="319.2823636125"/>
			<point x="228.7300903396" y="354.4938351849" type="curve" smooth="yes"/>
			<point x="255.8541937675" y="382.0646968075"/>
			<point x="301.7096" y="400"/>
			<point x="379" y="400" type="curve" smooth="yes"/>
			<point x="397" y="400"/>
			<point x="437" y="400"/>
			<point x="474" y="387" type="curve"/>
		</contour>
	</outline>
</glyph>
<glyph name="dotlessi" format="2">
	<unicode hex="0131"/>
	<advance width="872"/>
	<outline>
		<contour>
			<point x="596" y="904" type="line"/>
			<point x="208" y="888" type="line"/>
			<point x="208" y="754" type="line"/>
			<point x="332" y="754"/>
			<point x="346" y="754"/>
			<point x="346" y="676" type="curve" smooth="yes"/>
			<point x="346" y="134" type="line"/>
			<point x="346" y="134"/>
			<point x="346" y="134"/>
			<point x="346" y="134" type="curve"/>
			<point x="202" y="134" type="line"/>
			<point x="202" y="0" type="line"/>
			<point x="290" y="6"/>
			<point x="380" y="8"/>
			<point x="468" y="8" type="curve" smooth="yes"/>
			<point x="554" y="8"/>
			<point x="640" y="6"/>
			<point x="726" y="0" type="curve"/>
			<point x="726" y="134" type="line"/>
			<point x="683" y="134"/>
			<point x="639" y="134"/>
			<point x="596" y="134" type="curve"/>
		</contour>
	</outline>
</glyph>
<glyph name="OE" format="2">
	<unicode hex="0152"/>
	<advance width="3000"/>
	<outline>
		<contour>
			<point x="2886" y="458" type="line"/>
			<point x="2720" y="458" type="line"/>
			<point x="2646" y="182"/>
			<point x="2492" y="134"/>
			<point x="2222" y="134" type="curve" smooth="yes"/>
			<point x="1800" y="134" type="line"/>
			<point x="1800" y="134"/>
			<point x="1800" y="134"/>
			<point x="1800" y="134" type="curve"/>
			<point x="1800" y="644" type="line"/>
			<point x="2056" y="644" type="line" smooth="yes"/>
			<point x="2186" y="644"/>
			<point x="2330" y="640"/>
			<point x="2336" y="478" type="curve"/>
			<point x="2502" y="478" type="line"/>
			<point x="2502" y="944" type="line"/>
			<point x="2336" y="944" type="line"/>
			<point x="2330" y="782"/>
			<point x="2188" y="778"/>
			<point x="2056" y="778" type="curve" smooth="yes"/>
			<point x="1800" y="778" type="line"/>
			<point x="1800" y="1238" type="line"/>
			<point x="1800" y="1238"/>
			<point x="1800" y="1238"/>
			<point x="1800" y="1238" type="curve"/>
			<point x="2194" y="1238" type="line" smooth="yes"/>
			<point x="2392" y="1238"/>
			<point x="2588" y="1224"/>
			<point x="2638" y="960" type="curve"/>
			<point x="2804" y="960" type="line"/>
			<point x="2726" y="1372" type="line"/>
			<point x="1648" y="1372" type="line" smooth="yes"/>
			<point x="1592" y="1372"/>
			<point x="1514" y="1380"/>
			<point x="1420" y="1390" type="curve" smooth="yes"/>
			<point x="1276" y="1406"/>
			<point x="1226" y="1406"/>
			<point x="1188" y="1406" type="curve" smooth="yes"/>
			<point x="528" y="1406"/>
			<point x="230" y="1048"/>
			<point x="230" y="676" type="curve" smooth="yes"/>
			<point x="230" y="306"/>
			<point x="536" y="-34"/>
			<point x="1186" y="-34" type="curve" smooth="yes"/>
			<point x="1246" y="-34"/>
			<point x="1286" y="-32"/>
			<point x="1452" y="-14" type="curve" smooth="yes"/>
			<point x="1540" y="-4"/>
			<point x="1610" y="0"/>
			<point x="1648" y="0" type="curve" smooth="yes"/>
			<point x="2770" y="0" type="line"/>
		</contour>
		<contour>
			<point x="558" y="710" type="curve" smooth="yes"/>
			<point x="558" y="1004"/>
			<point x="740" y="1294"/>
			<point x="1208" y="1294" type="curve" smooth="yes"/>
			<point x="1482" y="1294"/>
			<point x="1512" y="1218"/>
			<point x="1516" y="944" type="curve" smooth="yes"/>
			<point x="1518" y="814"/>
			<point x="1518" y="810"/>
			<point x="1518" y="688" type="curve" smooth="yes"/>
			<point x="1518" y="596"/>
			<point x="1518" y="504"/>
			<point x="1516" y="412" type="curve" smooth="yes"/>
			<point x="1512" y="140"/>
			<point x="1462" y="78"/>
			<point x="1210" y="78" type="curve" smooth="yes"/>
			<point x="726" y="78"/>
			<point x="558" y="414"/>
		</contour>
	</outline>
</glyph>
<glyph name="oe" format="2">
	<unicode hex="0153"/>
	<advance width="2322"/>
	<outline>
		<contour>
			<point x="744" y="-16" type="curve" smooth="yes"/>
			<point x="1030" y="-16"/>
			<point x="1176" y="82"/>
			<point x="1242" y="146" type="curve"/>
			<point x="1380" y="22"/>
			<point x="1568" y="-16"/>
			<point x="1754" y="-16" type="curve" smooth="yes"/>
			<point x="2084" y="-16"/>
			<point x="2208" y="144"/>
			<point x="2208" y="220" type="curve" smooth="yes"/>
			<point x="2208" y="270"/>
			<point x="2168" y="270"/>
			<point x="2128" y="270" type="curve" smooth="yes"/>
			<point x="2066" y="270"/>
			<point x="2060" y="268"/>
			<point x="2040" y="230" type="curve" smooth="yes"/>
			<point x="2002" y="156"/>
			<point x="1920" y="108"/>
			<point x="1796" y="108" type="curve" smooth="yes"/>
			<point x="1694" y="108"/>
			<point x="1406" y="122"/>
			<point x="1378" y="394" type="curve"/>
			<point x="2132" y="394" type="line" smooth="yes"/>
			<point x="2174" y="394"/>
			<point x="2208" y="394"/>
			<point x="2208" y="460" type="curve" smooth="yes"/>
			<point x="2208" y="786"/>
			<point x="1986" y="912"/>
			<point x="1714" y="912" type="curve" smooth="yes"/>
			<point x="1574" y="912"/>
			<point x="1386" y="888"/>
			<point x="1238" y="756" type="curve"/>
			<point x="1156" y="832"/>
			<point x="1004" y="912"/>
			<point x="744" y="912" type="curve" smooth="yes"/>
			<point x="288" y="912"/>
			<point x="114" y="668"/>
			<point x="114" y="450" type="curve" smooth="yes"/>
			<point x="114" y="240"/>
			<point x="280" y="-16"/>
		</contour>
		<contour>
			<point x="744" y="96" type="curve" smooth="yes"/>
			<point x="388" y="96"/>
			<point x="380" y="348"/>
			<point x="380" y="460" type="curve" smooth="yes"/>
			<point x="380" y="570"/>
			<point x="392" y="800"/>
			<point x="744" y="800" type="curve" smooth="yes"/>
			<point x="1100" y="800"/>
			<point x="1108" y="566"/>
			<point x="1108" y="458" type="curve" smooth="yes"/>
			<point x="1108" y="342"/>
			<point x="1096" y="96"/>
		</contour>
		<contour>
			<point x="1376" y="496" type="line"/>
			<point x="1382" y="618"/>
			<point x="1430" y="800"/>
			<point x="1714" y="800" type="curve" smooth="yes"/>
			<point x="1952" y="800"/>
			<point x="1998" y="636"/>
			<point x="2006" y="496" type="curve"/>
		</contour>
	</outline>
</glyph>
<glyph name="circumflex" format="2">
	<unicode hex="02C6"/>
	<advance width="1516"/>
	<outline>
		<contour>
			<point x="758" y="1388" type="line"/>
			<point x="356" y="1160" type="line"/>
			<point x="436" y="1014" type="line"/>
			<point x="758" y="1182" type="line"/>
			<point x="1080" y="1014" type="line"/>
			<point x="1160" y="1160" type="line"/>
		</contour>
	</outline>
</glyph>
<glyph name="caron" format="2">
	<unicode hex="02C7"/>
	<advance width="1516"/>
	<outline>
		<contour>
			<point x="758" y="1230" type="line"/>
			<point x="426" y="1342" type="line"/>
			<point x="366" y="1186" type="line"/>
			<point x="758" y="1024" type="line"/>
			<point x="1150" y="1186" type="line"/>
			<point x="1090" y="1342" type="line"/>
		</contour>
	</outline>
</glyph>
<glyph name="breve" format="2">
	<unicode hex="02D8"/>
	<advance width="1516"/>
	<outline>
		<contour>
			<point x="1104" y="1388" type="line"/>
			<point x="1096" y="1194"/>
			<point x="822" y="1186"/>
			<point x="758" y="1186" type="curve" smooth="yes"/>
			<point x="692" y="1186"/>
			<point x="420" y="1194"/>
			<point x="412" y="1388" type="curve"/>
			<point x="300" y="1388" type="line"/>
			<point x="308" y="1132"/>
			<point x="560" y="1022"/>
			<point x="758" y="1022" type="curve" smooth="yes"/>
			<point x="956" y="1022"/>
			<point x="1208" y="1132"/>
			<point x="1216" y="1388" type="curve"/>
		</contour>
	</outline>
</glyph>
<glyph name="dotaccent" format="2">
	<unicode hex="02D9"/>
	<advance width="872"/>
	<outline>
		<contour>
			<point x="608" y="1222" type="curve" smooth="yes"/>
			<point x="608" y="1318"/>
			<point x="528" y="1390"/>
			<point x="436" y="1390" type="curve" smooth="yes"/>
			<point x="340" y="1390"/>
			<point x="264" y="1314"/>
			<point x="264" y="1224" type="curve" smooth="yes"/>
			<point x="264" y="1128"/>
			<point x="344" y="1056"/>
			<point x="436" y="1056" type="curve" smooth="yes"/>
			<point x="532" y="1056"/>
			<point x="608" y="1132"/>
		</contour>
	</outline>
</glyph>
<glyph name="ring" format="2">
	<unicode hex="02DA"/>
	<advance width="1113"/>
	<outline>
		<contour>
			<point x="718" y="628" type="curve" smooth="yes"/>
			<point x="718" y="662"/>
			<point x="681" y="711"/>
			<point x="557" y="711" type="curve" smooth="yes"/>
			<point x="431" y="711"/>
			<point x="396" y="661"/>
			<point x="396" y="628" type="curve" smooth="yes"/>
			<point x="396" y="588"/>
			<point x="439" y="544"/>
			<point x="557" y="544" type="curve" smooth="yes"/>
			<point x="676" y="544"/>
			<point x="718" y="589"/>
		</contour>
		<contour>
			<point x="557" y="586" type="curve" smooth="yes"/>
			<point x="504" y="586"/>
			<point x="477" y="586"/>
			<point x="477" y="627" type="curve" smooth="yes"/>
			<point x="477" y="669"/>
			<point x="503" y="669"/>
			<point x="557" y="669" type="curve" smooth="yes"/>
			<point x="610" y="669"/>
			<point x="637" y="669"/>
			<point x="637" y="628" type="curve" smooth="yes"/>
			<point x="637" y="586"/>
			<point x="611" y="586"/>
		</contour>
	</outline>
</glyph>
<glyph name="tilde" format="2">
  <advance width="758"/>
  <unicode hex="02DC"/>
  <outline>
    <contour>
      <point x="175" y="539" type="line"/>
      <point x="198" y="559"/>
      <point x="243" y="595"/>
      <point x="288" y="595" type="curve" smooth="yes"/>
      <point x="316" y="595"/>
      <point x="343" y="580"/>
      <point x="360" y="569" type="curve" smooth="yes"/>
      <point x="391" y="551"/>
      <point x="413" y="539"/>
      <point x="442" y="539" type="curve" smooth="yes"/>
      <point x="487" y="539"/>
      <point x="528" y="573"/>
      <point x="550" y="591" type="curve" smooth="yes"/>
      <point x="574" y="610"/>
      <point x="556" y="598"/>
      <point x="620" y="651" type="curve"/>
      <point x="583" y="694" type="line"/>
      <point x="560" y="674"/>
      <point x="515" y="638"/>
      <point x="470" y="638" type="curve" smooth="yes"/>
      <point x="442" y="638"/>
      <point x="415" y="653"/>
      <point x="398" y="664" type="curve" smooth="yes"/>
      <point x="367" y="682"/>
      <point x="345" y="694"/>
      <point x="316" y="694" type="curve" smooth="yes"/>
      <point x="271" y="694"/>
      <point x="230" y="660"/>
      <point x="208" y="642" type="curve" smooth="yes"/>
      <point x="184" y="623"/>
      <point x="202" y="635"/>
      <point x="138" y="582" type="curve"/>
    </contour>
  </outline>
</glyph>
<glyph name="hungarumlaut" format="2">
  <advance width="758"/>
  <unicode hex="02DD"/>
  <outline>
    <contour>
      <point x="191" y="575" type="line"/>
      <point x="246" y="513" type="line"/>
      <point x="352" y="575" type="line" smooth="yes"/>
      <point x="386" y="595"/>
      <point x="391" y="618"/>
      <point x="391" y="634" type="curve" smooth="yes"/>
      <point x="391" y="672"/>
      <point x="356" y="707"/>
      <point x="320" y="707" type="curve" smooth="yes"/>
      <point x="299" y="707"/>
      <point x="280" y="695"/>
      <point x="267" y="677" type="curve" smooth="yes"/>
    </contour>
    <contour>
      <point x="433" y="575" type="line"/>
      <point x="488" y="513" type="line"/>
      <point x="594" y="575" type="line" smooth="yes"/>
      <point x="628" y="595"/>
      <point x="633" y="618"/>
      <point x="633" y="634" type="curve" smooth="yes"/>
      <point x="633" y="672"/>
      <point x="598" y="707"/>
      <point x="562" y="707" type="curve" smooth="yes"/>
      <point x="541" y="707"/>
      <point x="522" y="695"/>
      <point x="509" y="677" type="curve" smooth="yes"/>
    </contour>
  </outline>
</glyph>
<glyph name="Xi" format="2">
  <advance width="1000"/>
  <unicode hex="039E"/>
  <outline>
    <contour>
      <point x="903" y="669" type="line"/>
      <point x="97" y="669" type="line"/>
      <point x="85" y="482" type="line"/>
      <point x="168" y="482" type="line"/>
      <point x="168" y="483"/>
      <point x="170" y="537"/>
      <point x="191" y="541" type="curve"/>
      <point x="195" y="541"/>
      <point x="234" y="544"/>
      <point x="266" y="544" type="curve" smooth="yes"/>
      <point x="734" y="544" type="line" smooth="yes"/>
      <point x="749" y="544"/>
      <point x="800" y="543"/>
      <point x="812" y="540" type="curve" smooth="yes"/>
      <point x="821" y="538"/>
      <point x="831" y="514"/>
      <point x="832" y="482" type="curve"/>
      <point x="915" y="482" type="line"/>
    </contour>
    <contour>
      <point x="89" y="0" type="line"/>
      <point x="911" y="0" type="line"/>
      <point x="923" y="194" type="line"/>
      <point x="840" y="194" type="line"/>
      <point x="839" y="149"/>
      <point x="827" y="131"/>
      <point x="819" y="129" type="curve" smooth="yes"/>
      <point x="802" y="125"/>
      <point x="764" y="125"/>
      <point x="736" y="125" type="curve" smooth="yes"/>
      <point x="264" y="125" type="line" smooth="yes"/>
      <point x="232" y="125"/>
      <point x="187" y="127"/>
      <point x="180" y="130" type="curve"/>
      <point x="178" y="130"/>
      <point x="162" y="140"/>
      <point x="160" y="194" type="curve"/>
      <point x="77" y="194" type="line"/>
    </contour>
    <contour>
      <point x="782" y="458" type="line"/>
      <point x="699" y="458" type="line"/>
      <point x="699" y="410" type="line"/>
      <point x="301" y="410" type="line"/>
      <point x="301" y="458" type="line"/>
      <point x="218" y="458" type="line"/>
      <point x="218" y="237" type="line"/>
      <point x="301" y="237" type="line"/>
      <point x="301" y="285" type="line"/>
      <point x="699" y="285" type="line"/>
      <point x="699" y="237" type="line"/>
      <point x="782" y="237" type="line"/>
    </contour>
  </outline>
</glyph>
<glyph name="endash" format="2">
	<unicode hex="2013"/>
	<advance width="758"/>
	<outline>
		<contour>
			<point x="741" y="246" type="line"/>
			<point x="741" y="302" type="line"/>
			<point x="17" y="302" type="line"/>
			<point x="17" y="246" type="line"/>
		</contour>
	</outline>
</glyph>
<glyph name="emdash" format="2">
	<unicode hex="2014"/>
	<advance width="1516"/>
	<outline>
		<contour>
			<point x="1483" y="246" type="line"/>
			<point x="1483" y="302" type="line"/>
			<point x="34" y="302" type="line"/>
			<point x="34" y="246" type="line"/>
		</contour>
	</outline>
</glyph>
<glyph name="quoteleft" format="2">
	<unicode hex="2018"/>
	<advance width="872"/>
	<outline>
		<contour>
			<point x="436" y="656" type="curve" smooth="yes"/>
			<point x="542" y="656"/>
			<point x="608" y="736"/>
			<point x="608" y="828" type="curve" smooth="yes"/>
			<point x="608" y="920"/>
			<point x="542" y="1000"/>
			<point x="436" y="1000" type="curve" smooth="yes"/>
			<point x="380" y="1000"/>
			<point x="342" y="974"/>
			<point x="340" y="974" type="curve"/>
			<point x="366" y="1170"/>
			<point x="498" y="1256"/>
			<point x="542" y="1286" type="curve" smooth="yes"/>
			<point x="554" y="1294"/>
			<point x="568" y="1304"/>
			<point x="568" y="1328" type="curve" smooth="yes"/>
			<point x="568" y="1352"/>
			<point x="536" y="1388"/>
			<point x="508" y="1388" type="curve" smooth="yes"/>
			<point x="466" y="1388"/>
			<point x="224" y="1218"/>
			<point x="224" y="924" type="curve" smooth="yes"/>
			<point x="224" y="770"/>
			<point x="314" y="656"/>
		</contour>
	</outline>
</glyph>
<glyph name="quoteright" format="2">
	<unicode hex="2019"/>
	<advance width="872"/>
	<outline>
		<contour>
			<point x="364" y="656" type="curve" smooth="yes"/>
			<point x="406" y="656"/>
			<point x="648" y="826"/>
			<point x="648" y="1120" type="curve" smooth="yes"/>
			<point x="648" y="1274"/>
			<point x="558" y="1388"/>
			<point x="436" y="1388" type="curve" smooth="yes"/>
			<point x="330" y="1388"/>
			<point x="264" y="1308"/>
			<point x="264" y="1216" type="curve" smooth="yes"/>
			<point x="264" y="1124"/>
			<point x="330" y="1044"/>
			<point x="436" y="1044" type="curve" smooth="yes"/>
			<point x="492" y="1044"/>
			<point x="530" y="1070"/>
			<point x="532" y="1070" type="curve"/>
			<point x="506" y="874"/>
			<point x="374" y="788"/>
			<point x="330" y="758" type="curve" smooth="yes"/>
			<point x="318" y="750"/>
			<point x="304" y="740"/>
			<point x="304" y="716" type="curve" smooth="yes"/>
			<point x="304" y="692"/>
			<point x="336" y="656"/>
		</contour>
	</outline>
</glyph>
